<?xml version="1.0" encoding="UTF-8" standalone="no"?>
<!-- Created with Inkscape (http://www.inkscape.org/) -->

<svg
   version="1.1"
   id="svg1"
   width="900"
   height="1334.6667"
   viewBox="0 0 900 1334.6667"
   xmlns="http://www.w3.org/2000/svg"
   xmlns:svg="http://www.w3.org/2000/svg">
  <defs
     id="defs1" />
  <g
     id="g1">
    <path
       style="fill:#000000"
       d="m 340,1259.209 c -7.00103,-3.0345 -12,-8.3998 -12,-12.8794 0,-8.4528 5.61924,-13.9182 20.58005,-20.0167 6.84636,-2.7909 12.87166,-6.4302 17.07376,-10.3128 5.73659,-5.3005 6.79336,-7.166 9.06377,-16 1.41353,-5.5 2.58034,-13.3411 2.5929,-17.4247 0.0555,-18.0199 9.59695,-33.3833 27.35619,-44.048 5.86666,-3.523 14.56666,-8.0205 19.33333,-9.9944 4.76667,-1.9739 10.10874,-4.957 11.87127,-6.6292 l 3.20461,-3.0402 -3.84962,-20.4318 c -3.23312,-17.1597 -3.84934,-23.8482 -3.84787,-41.7651 0.002,-24.6439 0.79095,-27.8832 12.07201,-49.5683 9.89118,-19.01338 11.06744,-28.3668 3.90956,-31.08822 C 443.62299,974.58939 440,968.35191 440,963.339 c 0,-3.32126 5.2045,-10.00561 7.79047,-10.00561 1.47413,0 0.75696,-15.3497 -1.33936,-28.66667 -0.80807,-5.13333 -4.13245,-17.43333 -7.38751,-27.33333 -7.65145,-23.27128 -8.57248,-34.46451 -3.70987,-45.08586 l 3.31938,-7.25047 -4.66989,-5.16901 c -3.5999,-3.98466 -4.66989,-6.32216 -4.66989,-10.20183 0,-6.10114 2.06224,-9.25396 9.36164,-14.31245 l 5.56143,-3.85408 -5.12512,-1.77436 c -2.81882,-0.9759 -6.02651,-2.69303 -7.1282,-3.81584 -2.15601,-2.19734 -2.01199,-2.37291 7.42157,-9.04773 8.41283,-5.95258 12.43687,-23.82324 11.97414,-53.1769 l -0.33139,-21.02186 -4.7786,-4.7786 c -6.0869,-6.0869 -8.95547,-12.15716 -8.95547,-18.95093 0,-4.39585 0.8999,-6.29464 4.9598,-10.46516 4.89978,-5.03329 4.96593,-5.24581 5.4667,-17.56516 0.59014,-14.51771 -1.61255,-31.86346 -5.03761,-39.67006 -2.78222,-6.34142 -0.9847,-5.9013 -37.38889,-9.15461 -52.77073,-4.71591 -54.48241,-4.99294 -63.41494,-10.26326 -2.36431,-1.39498 -4.68041,-3.86507 -5.14689,-5.48909 -0.46648,-1.62402 -1.53903,-12.03729 -2.38343,-23.14061 -2.72834,-35.87564 3.17054,-85.26728 12.87607,-107.81216 5.72086,-13.28891 14.14267,-31.80595 22.1343,-48.66667 15.03375,-31.7182 17.26958,-38.32924 17.25973,-51.03471 -0.009,-11.63208 -4.5123,-31.62571 -11.40174,-50.62132 -1.93041,-5.32252 -4.35722,-12.07731 -5.39293,-15.01064 -1.03571,-2.93333 -2.40653,-6.25965 -3.04628,-7.39181 -0.63975,-1.13216 -2.42978,-6.94482 -3.97785,-12.91703 -1.54807,-5.9722 -3.65944,-13.44589 -4.69193,-16.60819 -1.0325,-3.1623 -3.49191,-11.74964 -5.46537,-19.08297 -1.97346,-7.33334 -4.38906,-15.48252 -5.36799,-18.1093 -6.07523,-16.30177 -11.68189,-41.29308 -12.31966,-54.91405 -1.16058,-24.78695 2.41086,-29.81915 27.02301,-38.07563 8.80959,-2.95529 21.40959,-7.59408 28,-10.30841 6.59041,-2.71433 14.0004,-5.67404 16.46663,-6.57714 5.28197,-1.93418 11.50328,-7.5009 14.1905,-12.69741 3.11811,-6.02976 4.50709,-21.810756 2.29182,-26.038745 -1.73433,-3.310094 -1.6033,-3.831132 1.87708,-7.463866 2.05787,-2.147947 6.45994,-4.694228 9.78239,-5.658401 4.90426,-1.423213 6.11754,-2.390641 6.44858,-5.141875 0.22426,-1.863858 2.53304,-5.322798 5.13061,-7.686533 l 4.72285,-4.297702 -0.55962,-10.848811 c -0.30779,-5.966846 -0.81657,-11.748812 -1.13061,-12.848812 -0.4655,-1.630474 1.27664,-2.063183 9.42901,-2.341967 13.59488,-0.4649 14.13817,0.03696 10.79219,9.96935 -4.75201,14.106127 -4.92107,18.122534 -0.93076,22.112844 1.90955,1.909543 3.4719,4.92794 3.4719,6.70755 0,2.703149 0.94982,3.474821 5.77142,4.688914 11.2088,2.822407 16.91171,11.286608 10.0712,14.947543 -2.57425,1.377693 -2.7444,2.236931 -1.92359,9.713578 0.62199,5.665683 2.19108,10.350653 5.07388,15.149583 6.62499,11.02846 18.85565,16.41894 56.5162,24.90864 11.09667,2.50149 21.35355,5.1785 22.79305,5.94889 1.4395,0.7704 4.34878,3.67085 6.46506,6.44543 6.19363,8.12027 6.05878,17.63852 -0.61037,43.08299 -2.97927,11.36667 -6.312,23.36667 -7.40606,26.66667 -1.09406,3.3 -3.20274,10.73317 -4.68596,16.51816 -1.48323,5.78499 -3.89633,14.48499 -5.36246,19.33334 -1.46612,4.84834 -5.11542,17.21517 -8.10955,27.48183 -2.99414,10.26667 -6.86498,22.26667 -8.60189,26.66667 -5.46602,13.84674 -11.23173,32.58355 -12.80276,41.60505 -3.71083,21.30917 3.36311,49.26961 21.35177,84.39496 2.81671,5.5 6.47737,14.2 8.13481,19.33333 1.65745,5.13334 3.44147,9.93334 3.9645,10.66667 0.98268,1.3778 10.23405,30.39573 13.81534,43.33334 3.96005,14.30584 6.3205,40.86841 5.92427,66.66667 -0.46515,30.2851 -0.89085,31.48527 -12.37886,34.90008 -14.4632,4.29919 -55.6544,11.67296 -74.20461,13.2836 l -18.20462,1.58064 -2.6631,5.45117 c -4.05674,8.30387 -5.59434,18.02115 -5.59434,35.35505 v 15.77261 l 4.08117,1.69048 c 5.672,2.34941 10.58661,9.20488 10.58052,14.7589 -0.007,6.13519 -6.44314,16.04748 -12.69034,19.5436 -2.85533,1.59792 -3.37186,11.47182 -1.85743,35.50648 1.54195,24.47153 2.95122,28.10327 15.0153,38.69494 4.87893,4.28346 8.87078,8.52036 8.87078,9.41533 0,1.53704 -5.78702,4.99438 -11.07135,6.61435 -2.04534,0.62702 -1.59705,1.50546 3,5.87853 4.61271,4.38797 5.40469,5.94719 5.40469,10.64058 0,5.4188 -3.79931,14.21297 -7.33935,16.98823 -1.46614,1.1494 -1.01846,2.9781 2.43841,9.96049 3.93096,7.93998 4.22897,9.51054 4.16022,21.92545 -0.0703,12.69689 -0.31833,13.84461 -4.90702,22.70617 -6.10889,11.79735 -8.63021,20.97505 -9.7515,35.49581 -1.12819,14.61016 -0.16036,19.32433 4.19158,20.4166 8.00335,2.00871 6.8713,16.01593 -1.70325,21.07504 l -4.74814,2.80147 0.65685,9.18039 c 0.6622,9.25517 0.84959,9.7227 13.77331,34.36404 7.0576,13.4566 8.05569,42.1756 2.45591,70.6667 -1.9458,9.9 -3.83598,19.65 -4.20042,21.6666 -0.57193,3.1649 -0.22503,3.6667 2.53494,3.6667 4.51882,0 17.38616,4.7167 25.76015,9.4426 12.68857,7.161 18.65158,13.4971 23.43071,24.8967 4.87779,11.6349 5.82027,15.8142 8.56699,37.9887 1.06697,8.6137 2.89644,17.511 4.0655,19.7717 2.92108,5.6488 9.11767,7.9003 21.74278,7.9003 13.17054,0 19.05257,2.3147 23.69024,9.3227 3.97225,6.0025 5.56257,15.5627 3.29396,19.8016 -2.82241,5.2737 -8.9775,7.3065 -19.44431,6.4218 -34.59164,-2.9241 -48.6717,-18.8666 -60.05422,-67.9981 -3.19,-13.7693 -4.40188,-16.7762 -9.48883,-23.5433 -5.95705,-7.9247 -10.59604,-10.6714 -18.02315,-10.6714 -4.36732,0 -5.65095,2.3016 -7.13248,12.7885 -1.57996,11.1838 -3.14149,12.5482 -14.33295,12.524 -10.83732,-0.023 -23.25787,-2.5511 -28.0885,-5.7162 -2.29262,-1.5022 -3.48333,-3.8546 -4.12836,-8.1559 -0.49856,-3.3247 -1.46839,-6.3922 -2.15517,-6.8166 -1.73092,-1.0698 -14.45356,5.4731 -19.06628,9.8052 -15.17852,14.2551 -25.4518,39.1193 -28.2981,68.4892 -0.88288,9.1101 -1.30347,10.1067 -6.42214,15.2174 -9.44847,9.4338 -31.70739,14.9302 -42.14405,10.4067 z m 25.1268,-3.9149 c 7.7357,-1.9253 15.83873,-6.8766 18.63464,-11.3867 0.96879,-1.5627 2.30159,-8.0312 2.96177,-14.3743 4.17454,-40.1098 23.56806,-70.6932 49.15415,-77.5155 11.51669,-3.0708 17.52634,-13.9803 12.9675,-23.5403 -2.87486,-6.0286 -5.47731,-6.8004 -12.05093,-3.5736 -3.00333,1.4743 -12.0606,5.8902 -20.12726,9.8131 -25.24066,12.275 -34.84171,24.7753 -36.82864,47.9499 -2.43476,28.3979 -8.2908,37.2612 -30.79252,46.6055 -15.65556,6.5012 -22.86598,16.9204 -16.00584,23.1288 6.8984,6.243 15.50832,7.0193 32.08713,2.8931 z m 226.54832,-6.0472 c 11.30681,-3.9416 6.74241,-22.7264 -6.76192,-27.8287 -2.06441,-0.78 -8.53368,-1.4181 -14.37616,-1.4181 -19.59492,0 -24.08426,-4.6519 -26.62041,-27.584 -3.35178,-30.3072 -8.84197,-46.3256 -18.96634,-55.3369 -7.85606,-6.9924 -22.39609,-13.8058 -34.80288,-16.3084 -12.18483,-2.458 -13.11571,-2.0754 -17.16254,7.0528 -2.48798,5.612 -2.4966,6.0123 -0.23722,11.0227 3.21355,7.1264 9.41454,10.8125 16.32938,9.7068 7.59597,-1.2147 13.87789,1.3483 20.25091,8.2622 6.16927,6.6929 8.93151,12.3106 11.40006,23.1848 6.41277,28.2489 12.74073,44.3384 21.43143,54.4915 9.88884,11.5529 36.20578,19.3951 49.51569,14.7553 z m -111.97003,-77.5802 c 0.75072,-0.9166 1.97735,-5.5666 2.72585,-10.3333 1.28152,-8.1611 1.19315,-8.7833 -1.51498,-10.6667 -8.61238,-5.9893 -10.58466,-8.7496 -11.25786,-15.7558 -0.56533,-5.8835 -0.14427,-7.7191 2.78665,-12.148 1.89893,-2.8695 4.63681,-5.5931 6.08417,-6.0524 3.40072,-1.0794 5.97067,-9.0347 9.4115,-29.1335 4.74439,-27.7132 3.42825,-53.8622 -3.3571,-66.6988 -12.1031,-22.89667 -13.00582,-25.22096 -13.6413,-35.12315 l -0.62604,-9.75499 h -8.34086 -8.34086 l -0.51747,9 c -0.44204,7.68822 -1.71883,11.53262 -8.75995,26.37614 -6.03803,12.7288 -8.66002,20.0391 -9.80363,27.3333 -1.87811,11.979 -0.81182,39.7674 1.9681,51.2906 1.06149,4.4 2.65382,12.9935 3.53853,19.0967 1.37841,9.5091 2.03732,11.2597 4.60555,12.2361 3.63872,1.3835 8.66794,9.1603 8.66794,13.4036 0,5.1458 -5.32982,14.5266 -9.46988,16.6675 -3.29518,1.704 -3.86345,2.7902 -3.86345,7.3846 0,9.6619 0.47107,9.996 19.33333,13.7103 6.42422,1.2651 19.07749,0.7482 20.37176,-0.8322 z m -9.03842,-199.064 c 8.68478,-0.97366 12.42093,-4.67176 11.74914,-11.62946 L 482,956.66672 l -18.42785,-0.0691 c -16.17276,-0.0606 -18.57944,0.21418 -19.66666,2.24567 -2.0501,3.83065 -1.40087,10.32802 1.30207,13.03096 2.65001,2.65001 7.16657,2.77924 25.45911,0.72842 z m 2.66666,-32.53701 c 0,-18.62293 1.50926,-25.72104 8.85199,-41.63138 5.41576,-11.73496 5.95924,-13.84961 6.02208,-23.43148 0.0766,-11.68138 -3.21054,-21.68217 -8.87615,-27.00474 -2.84435,-2.67212 -3.69942,-2.80672 -9.68116,-1.52386 -4.65708,0.99876 -9.12223,0.98276 -15.3857,-0.0551 -7.69477,-1.27506 -9.27226,-1.16884 -12.32246,0.82972 -9.12038,5.97591 -9.66002,25.06005 -1.35644,47.96998 6.04183,16.66969 8.47223,27.14622 10.19734,43.95701 0.75187,7.32676 1.66872,13.80952 2.03746,14.40614 0.36873,0.59663 5.13501,1.08477 10.59173,1.08477 h 9.92131 z m -2,-96.75798 c 10.09213,-1.14897 12.43271,-2.42204 14.77955,-8.03882 3.98339,-9.5336 1.82851,-16.74919 -6.44522,-21.58172 -3.80772,-2.22403 -6.15839,-2.43981 -19.34758,-1.77603 l -15.01326,0.75558 -6.48426,5.59494 c -3.91614,3.37904 -6.76549,7.06606 -7.19433,9.30939 -0.86735,4.53727 1.75924,9.95081 6.25831,12.89872 3.1975,2.09508 19.21547,4.91089 23.44679,4.12173 1.1,-0.20516 5.6,-0.78286 10,-1.28379 z m 14.77375,-37.26647 c 2.50777,-1.04782 4.55735,-2.38574 4.55461,-2.97316 -0.003,-0.58742 -3.6321,-3.9995 -8.06526,-7.5824 -4.43315,-3.5829 -9.30465,-8.95353 -10.82554,-11.93473 -3.14955,-6.17362 -4.95299,-23.09983 -5.0461,-47.36022 -0.0508,-13.24606 -0.32228,-15.04129 -2.16717,-14.33334 -1.15998,0.44513 -4.10665,0.80932 -6.54816,0.80932 h -4.4391 l -0.54504,27 c -0.7324,36.28142 -3.65095,45.4903 -16.76234,52.89009 -3.21356,1.81366 -0.72653,3.88761 6.4993,5.41979 8.21276,1.74145 37.69559,0.42504 43.3448,-1.93535 z m -22.77375,-86.57851 c 12.61446,-2.76499 20.77355,-14.88114 16.67852,-24.76741 -1.04388,-2.52014 -3.70217,-4.93173 -7.42032,-6.73165 -7.91898,-3.83351 -22.8145,-2.62008 -28.70756,2.33861 -7.31537,6.15548 -4.46951,19.53894 5.87651,27.63592 4.07342,3.18793 5.33672,3.32983 13.57285,1.52453 z m 3.69345,-54.61142 c 0.67975,-17.85459 1.87741,-24.05355 6.92657,-35.85127 0.85481,-1.9973 0.23897,-2.33334 -4.27619,-2.33334 -2.90115,0 -9.96045,-0.39608 -15.68733,-0.88017 l -10.41252,-0.88018 0.92444,3.21351 c 3.01479,10.47989 4.838,24.722 5.01581,39.1812 l 0.20286,16.49723 8.29433,-0.0478 8.29433,-0.0479 z m 52.19446,-44.95754 c 24.92813,-4.0086 48.96952,-9.19071 54.08059,-11.65705 3.69238,-1.78175 4.87067,-3.32146 5.79308,-7.57002 1.90395,-8.76953 -0.12837,-62.62114 -2.98209,-79.01824 -3.74203,-21.50114 -19.0293,-65.83842 -31.3449,-90.90882 -4.12309,-8.39321 -10.26749,-23.94029 -13.65423,-34.54905 -6.08416,-19.05829 -6.14852,-19.45096 -5.38827,-32.87599 0.70267,-12.40825 1.70217,-16.38209 11.51798,-45.79375 5.91169,-17.71353 11.97438,-36.85217 13.47265,-42.5303 1.49826,-5.67813 4.72524,-16.92387 7.17106,-24.99053 4.93131,-16.26412 8.25654,-28.08865 13.49829,-48.00001 1.93053,-7.33333 4.35858,-15.9043 5.39566,-19.0466 2.23758,-6.77971 2.49004,-22.89247 0.42656,-27.224 -3.14634,-6.60459 -8.62609,-9.19133 -28.97631,-13.6784 -50.00978,-11.02677 -62.14969,-19.20457 -65.04208,-43.814238 l -0.85718,-7.293313 -26.16603,-0.553991 c -15.09208,-0.319532 -26.87138,-0.02686 -27.83269,0.691533 -0.91666,0.685038 -1.66666,3.463156 -1.66666,6.173596 0,7.444413 -3.45999,17.522193 -7.80915,22.745413 -5.7006,6.84627 -26.4767,16.61514 -48.19085,22.65922 -11.37498,3.1662 -24.21892,7.88357 -26.43079,9.7076 -4.91037,4.04937 -6.90291,11.371 -6.87074,25.24673 0.0345,14.89194 0.0876,15.18216 7.26672,39.71979 8.19381,28.00584 15.53261,53.457 18.64652,64.66667 1.62969,5.86666 4.7929,15.76666 7.02935,22 2.23646,6.23333 5.6864,15.83333 7.66655,21.33333 6.98794,19.40952 11.34153,38.6613 11.35055,50.19273 0.008,9.60028 -0.62689,12.4603 -5.47158,24.66667 -3.01405,7.594 -8.71405,20.61837 -12.66667,28.94305 C 367.23396,437.46047 364,444.54551 364,444.88033 c 0,0.33482 -3.6,8.38731 -8,17.89442 -4.4,9.50711 -8,18.37814 -8,19.7134 0,1.33526 -1.15654,5.78928 -2.57008,9.89782 -3.14224,9.13308 -6.09387,28.69248 -8.14097,53.9474 -1.56501,19.30746 -0.0436,52.42135 2.74551,59.75731 2.43456,6.40338 10.62888,8.38844 46.63221,11.29659 9.9,0.79967 27.3,2.32549 38.66666,3.39072 39.13393,3.66742 67.22812,3.40284 93.88791,-0.88422 z M 488.85649,85.986127 c 1.12886,-2.941754 -3.09097,-7.101864 -8.7349,-8.611274 -8.2761,-2.21336 -27.08722,-3.442494 -36.52419,-2.38652 -12.61059,1.411094 -20.97188,6.173312 -19.15444,10.909503 0.61643,1.606395 6.03645,1.952167 32.17729,2.052762 27.35859,0.105281 31.53978,-0.14952 32.23624,-1.964471 z m -19.04616,-18.97275 c -1.50549,-5.757005 -17.55504,-7.695572 -23.69924,-2.862545 -6.52736,5.134421 -4.21319,7.101173 9.2357,7.849172 12.97588,0.721692 15.70981,-0.220889 14.46354,-4.986627 z m -6.37171,-14.68004 c 1.23286,-4.216667 3.04827,-9.890685 4.03424,-12.608929 2.13143,-5.876172 1.63418,-6.331878 -7.99334,-7.325526 l -7.11859,-0.734703 0.15287,14.164626 0.15287,14.164627 4.2652,0.0033 c 4.04439,0.0031 4.38124,-0.393621 6.50675,-7.663381 z"
       id="path1" />
    <path
       style="fill:#eee8cf;fill-opacity:1;stroke-width:0.499869"
       d="m 341.41025,1256.7186 c -5.35842,-1.6991 -9.93885,-5.3944 -10.51888,-8.4863 -0.89845,-4.7891 3.98886,-11.0481 12.26842,-15.7115 1.5121,-0.8517 5.06174,-2.5598 7.88809,-3.7959 7.92683,-3.4666 12.90683,-6.6096 17.10441,-10.7951 7.25396,-7.2329 9.57737,-14.2241 12.21005,-36.7403 1.67666,-14.3398 5.41164,-22.766 13.81684,-31.1712 5.36318,-5.3631 13.02503,-10.1683 28.43446,-17.8327 15.43036,-7.6748 17.8711,-8.7309 20.17722,-8.7309 2.30788,0 3.63638,1.1329 5.46403,4.6598 1.38234,2.6675 1.6007,3.5987 1.60323,6.8371 0.002,2.8398 -0.273,4.3553 -1.13472,6.2484 -2.28534,5.0207 -7.52317,9.0298 -14.33759,10.9743 -8.54979,2.4396 -17.72923,8.7445 -24.67229,16.9462 -11.69392,13.8139 -19.53916,33.1421 -22.55048,55.5576 -1.66331,12.3812 -2.77135,17.5793 -4.21091,19.7547 -1.58598,2.3965 -6.585,5.9959 -11.37967,8.1934 -8.56635,3.9262 -24.05766,6.028 -30.16221,4.0924 z"
       id="path24" />
    <path
       style="fill:#eee8cf;fill-opacity:1;stroke-width:0.499869"
       d="m 574.59895,1249.6527 c -12.94975,-2.0476 -26.84628,-8.8154 -32.6541,-15.9031 -7.80302,-9.5226 -13.29741,-23.0605 -19.64061,-48.3936 -3.51765,-14.0486 -5.01516,-18.2292 -8.23868,-23.0001 -2.74415,-4.0614 -7.4626,-8.9929 -10.42039,-10.8909 -4.26247,-2.7352 -6.13941,-3.1747 -13.77395,-3.225 -6.78178,-0.045 -7.08106,-0.092 -9.67956,-1.5291 -3.88504,-2.1487 -7.12409,-6.4927 -8.45801,-11.3432 -0.41328,-1.5028 -0.30242,-2.4107 0.61489,-5.0359 1.4735,-4.2169 3.69136,-8.2374 5.19777,-9.4223 1.633,-1.2845 5.69185,-1.2527 12.19808,0.096 12.9644,2.6865 27.92592,9.7872 35.46117,16.83 9.16418,8.5651 14.29632,22.761 17.66156,48.853 1.85549,14.3864 3.00277,19.8854 5.02916,24.1052 2.00992,4.1855 4.82229,6.6818 8.9085,7.9074 3.10382,0.9309 10.47483,1.697 16.5445,1.7195 9.4816,0.035 14.38076,1.6896 18.78132,6.3425 3.81924,4.0383 5.21237,7.4328 5.21237,12.7005 0,3.9289 -0.11749,4.4418 -1.40359,6.128 -3.30548,4.3337 -10.70839,5.7426 -21.34043,4.0616 z"
       id="path26" />
    <path
       style="fill:#eee8cf;fill-opacity:1;stroke-width:0.499869"
       d="m 455.01434,956.63616 c 0.89844,-0.11125 2.24809,-0.10896 2.99921,0.005 0.75113,0.11406 0.016,0.20508 -1.63352,0.20227 -1.64957,-0.003 -2.26413,-0.0961 -1.36569,-0.20737 z"
       id="path27" />
    <path
       style="fill:#eee8cf;fill-opacity:1;stroke-width:0.499869"
       d="m 453.97082,720.05166 c -3.80291,-1.14127 -9.58553,-7.19221 -12.19124,-12.75693 -1.18406,-2.52866 -1.39535,-3.62325 -1.39535,-7.22876 0,-3.71081 0.17008,-4.53819 1.34304,-6.53338 2.65441,-4.51513 8.1195,-6.88074 16.90217,-7.31624 8.33826,-0.41346 14.07672,1.16961 18.40095,5.0763 5.60085,5.06002 4.62392,14.71909 -2.1765,21.51952 -3.36577,3.36576 -7.75345,5.52338 -13.74706,6.76001 -5.23554,1.08023 -5.15274,1.07467 -7.13601,0.47948 z"
       id="path32" />
    <path
       style="fill:#eee8cf;fill-opacity:1;stroke-width:0.499869"
       d="m 449.95971,678.69659 c -0.1775,-2.68055 -0.32622,-8.02289 -0.33048,-11.87188 -0.0136,-12.27195 -1.61056,-25.84249 -4.28077,-36.3764 -0.69455,-2.73998 -1.19587,-5.03953 -1.11405,-5.11012 0.0818,-0.0706 3.63536,0.15936 7.89674,0.51098 4.26138,0.35162 10.84451,0.80088 14.62918,0.99836 3.78467,0.19749 6.99396,0.54148 7.13176,0.76444 0.13779,0.22296 -0.31239,1.67827 -1.00042,3.23402 -4.3829,9.9105 -5.5166,17.58945 -6.54796,44.35152 l -0.32267,8.3728 h -7.86929 -7.8693 z"
       id="path33" />
    <path
       style="fill:#eee8cf;fill-opacity:1;stroke-width:0.249934"
       d="m 436.88515,87.597899 c -6.60116,-0.200672 -10.25011,-0.546387 -11.36469,-1.076734 -0.85496,-0.40681 -1.29751,-1.36214 -1.12026,-2.418274 0.60344,-3.595465 6.89644,-6.944609 15.98403,-8.506734 7.887,-1.355748 23.42919,-0.950429 34.57593,0.901692 4.2664,0.708896 6.48576,1.322444 8.55136,2.364043 4.51638,2.277437 6.84229,6.517164 4.29729,7.833235 -1.66521,0.861112 -4.12486,0.965138 -24.43062,1.033249 -10.99711,0.03689 -22.91898,-0.02183 -26.49304,-0.130477 z"
       id="path34" />
    <path
       style="fill:#eee8cf;fill-opacity:1;stroke-width:0.249934"
       d="m 454.63049,71.851155 c -3.38069,-0.222636 -7.59401,-0.79376 -9.152,-1.240572 -1.31543,-0.377248 -2.58246,-1.309371 -2.6774,-1.969689 -0.17702,-1.231345 2.53617,-4.089936 5.10794,-5.381661 2.12134,-1.065488 3.98391,-1.445605 7.7212,-1.575754 2.91692,-0.10158 3.9149,-0.03488 5.99842,0.400928 4.47606,0.936247 7.4828,2.895865 8.12976,5.298518 0.55804,2.072392 -0.3232,3.594107 -2.45152,4.23323 -1.22578,0.368097 -8.584,0.504507 -12.6764,0.235 z"
       id="path35" />
    <path
       style="fill:#eee8cf;fill-opacity:1;stroke-width:0.249934"
       d="m 452.75598,56.045608 c 0,-2.118812 -0.0748,-8.440958 -0.16616,-14.049213 l -0.16616,-10.196828 1.72825,0.172267 c 10.00674,0.997446 12.67546,1.469464 13.6139,2.407905 0.81668,0.816679 0.61077,2.239092 -1.02554,7.08438 -0.83098,2.460614 -2.24661,6.903196 -3.14583,9.872405 -2.53194,8.360343 -2.53066,8.358901 -7.48166,8.479622 l -3.3568,0.08185 z"
       id="path36" />
    <path
       style="fill:#eee8cf;fill-opacity:1;stroke-width:0.999737"
       d="m 441.96213,807.16732 c -6.59282,-1.54595 -7.11574,-2.70551 -2.6718,-5.92468 5.07122,-3.67357 8.51052,-8.3289 10.46514,-14.16529 2.01865,-6.02759 3.62145,-22.91977 3.63162,-38.27419 0.004,-6.59827 0.28993,-14.9821 0.63459,-18.63074 l 0.62665,-6.6339 5.11473,-0.50468 c 2.81311,-0.27758 5.33968,-0.29154 5.6146,-0.031 0.27493,0.26051 0.81217,10.2211 1.19386,22.13464 0.7829,24.43602 2.49625,35.66103 6.27566,41.11471 1.37511,1.98428 5.65559,6.43288 9.51219,9.88577 3.85659,3.4529 7.01199,6.62713 7.01199,7.05385 0,3.80701 -35.45046,6.77974 -47.40923,3.97554 z"
       id="path45" />
    <path
       style="fill:#eee8cf;fill-opacity:1;stroke-width:0.999737"
       d="m 447.75085,842.78594 c -8.03908,-1.7484 -11.99042,-3.88066 -13.84799,-7.47279 -2.91564,-5.63824 -2.0594,-8.66775 4.31336,-15.26123 6.78826,-7.02338 8.79703,-7.60835 26.46129,-7.70586 12.14048,-0.067 14.54167,0.72195 19.54675,6.42242 3.76763,4.29108 4.16986,9.66496 1.21118,16.18135 -2.39888,5.28345 -4.33391,6.27702 -15.48707,7.95202 -10.9201,1.63999 -14.20275,1.62285 -22.19752,-0.11591 z"
       id="path46" />
    <path
       style="fill:#eee8cf;fill-opacity:1;stroke-width:0.999737"
       d="m 457.87963,1171.6764 c -0.54985,-0.1967 -3.65261,-0.8816 -6.89502,-1.522 -7.80584,-1.5418 -10.60038,-4.2897 -10.60038,-10.4236 0,-3.4726 0.51533,-4.9672 2.17014,-6.2938 6.96243,-5.5817 10.76735,-12.1089 10.80449,-18.535 0.0288,-4.9777 -1.99978,-8.72 -6.96029,-12.8405 l -4.04334,-3.3586 -3.58006,-18.9935 c -3.04268,-16.1425 -3.65948,-21.8505 -4.10921,-38.0275 -0.64413,-23.1693 0.30245,-27.8526 10.00921,-49.5214 7.1262,-15.90808 8.69169,-20.59456 8.70007,-26.04473 0.003,-1.99322 0.29032,-5.04777 0.63834,-6.78788 l 0.63277,-3.16384 7.61507,0.28959 7.61506,0.2896 0.59738,8.0209 c 0.75455,10.13118 1.72985,13.06409 9.55579,28.73606 3.5054,7.0198 7.03693,15.5675 7.84784,18.995 3.60322,15.2297 2.90802,37.2172 -1.9689,62.272 -2.91893,14.9957 -4.52299,18.8818 -9.58081,23.2111 -5.33517,4.5667 -6.95117,8.0012 -6.95117,14.7731 0,7.4136 2.14289,11.6487 8.1107,16.0294 4.16978,3.0609 4.88589,4.0798 4.88589,6.9513 0,4.4096 -1.96168,13.6231 -3.2384,15.2101 -0.68738,0.8544 -4.04973,1.2247 -10.6304,1.1707 -5.29377,-0.043 -10.07491,-0.2398 -10.62477,-0.4365 z"
       id="path52" />
    <path
       style="fill:#eee8cf;fill-opacity:1;stroke-width:0.706921"
       d="m 453.70579,953.43136 c -0.50093,-0.31848 -1.58313,-6.43726 -2.66067,-15.0436 -2.13291,-17.03565 -3.89222,-24.76499 -9.5625,-42.012 -2.3009,-6.99852 -4.67605,-15.54975 -5.27811,-19.00273 -2.68479,-15.39792 -0.11558,-26.0334 7.3447,-30.404 2.07524,-1.21578 2.80064,-1.26345 8.05464,-0.52929 7.2475,1.01272 14.55766,1.02815 19.89231,0.042 3.68336,-0.68091 4.32504,-0.61678 5.96193,0.59587 5.25502,3.89304 8.72146,11.5527 10.00476,22.10717 1.23106,10.12484 0.16918,15.58901 -5.66162,29.1335 -7.46302,17.33597 -7.95423,19.64641 -8.34168,39.23564 l -0.32509,16.43591 -9.29214,-0.0108 c -5.11068,-0.006 -9.67212,-0.2524 -10.13653,-0.54764 z"
       id="path54" />
    <path
       style="fill:#eee8cf;fill-opacity:1;stroke-width:0.706921"
       d="m 458.32015,953.46694 -4.71306,-0.24597 -0.76155,-4.74075 c -0.41886,-2.60742 -1.41083,-9.35341 -2.20438,-14.99111 -1.74013,-12.36243 -3.68188,-20.62662 -8.47099,-36.05297 -5.35073,-17.23538 -6.34278,-21.93781 -6.34845,-30.09256 -0.007,-9.34327 1.31733,-13.84381 5.19847,-17.67291 l 2.92617,-2.88693 16.47214,0.12695 16.47214,0.12695 2.37728,2.30415 c 6.5846,6.38205 10.04846,23.91872 7.03592,35.6212 -0.61498,2.38896 -3.01711,8.88941 -5.33805,14.44544 -6.35742,15.2188 -6.96137,18.1759 -7.68244,37.61529 -0.33892,9.13695 -0.63657,16.69217 -0.66146,16.78937 -0.0508,0.19834 -7.17033,0.026 -14.30174,-0.34615 z"
       id="path55" />
    <path
       style="fill:#eee8cf;fill-opacity:1;stroke-width:0.35346"
       d="m 449.72845,973.62004 c -4.62412,-0.83725 -6.67781,-3.59028 -6.73345,-9.02641 -0.0454,-4.43237 1.11391,-6.63148 3.83324,-7.27153 1.85317,-0.43619 25.82631,-0.83852 30.93684,-0.5192 l 4.12032,0.25745 0.25143,3.01838 c 0.59282,7.11667 -2.02232,10.45984 -9.33654,11.93578 -5.41958,1.09362 -20.21332,2.12309 -23.07184,1.60553 z"
       id="path56" />
  </g>
</svg>
