<?xml version="1.0" encoding="UTF-8" standalone="no"?>
<!-- Created with Inkscape (http://www.inkscape.org/) -->

<svg
   width="178.59375mm"
   height="264.8479mm"
   viewBox="0 0 178.59375 264.8479"
   version="1.1"
   id="svg1"
   xmlns="http://www.w3.org/2000/svg"
   xmlns:svg="http://www.w3.org/2000/svg">
  <defs
     id="defs1">
    <clipPath
       clipPathUnits="userSpaceOnUse"
       id="clipPath208-7">
      <path
         d="M 0,962.382 H 1259.617 V 0 H 0 Z"
         transform="translate(-951.1123,-838.16572)"
         id="path208-8" />
    </clipPath>
    <clipPath
       clipPathUnits="userSpaceOnUse"
       id="clipPath210-1">
      <path
         d="M 0,962.382 H 1259.617 V 0 H 0 Z"
         transform="translate(-986.73242,-838.16572)"
         id="path210-7" />
    </clipPath>
    <clipPath
       clipPathUnits="userSpaceOnUse"
       id="clipPath212-0">
      <path
         d="M 0,962.382 H 1259.617 V 0 H 0 Z"
         transform="translate(-943.0996,-782.51632)"
         id="path212-4" />
    </clipPath>
    <clipPath
       clipPathUnits="userSpaceOnUse"
       id="clipPath214-6">
      <path
         d="M 0,962.382 H 1259.617 V 0 H 0 Z"
         transform="translate(-994.8418,-782.51632)"
         id="path214-9" />
    </clipPath>
    <clipPath
       clipPathUnits="userSpaceOnUse"
       id="clipPath216-5">
      <path
         d="M 0,962.382 H 1259.617 V 0 H 0 Z"
         transform="translate(-948.98635,-821.66622)"
         id="path216-3" />
    </clipPath>
    <clipPath
       clipPathUnits="userSpaceOnUse"
       id="clipPath218-2">
      <path
         d="M 0,962.382 H 1259.617 V 0 H 0 Z"
         transform="translate(-988.9561,-821.66622)"
         id="path218-9" />
    </clipPath>
    <clipPath
       clipPathUnits="userSpaceOnUse"
       id="clipPath220-4">
      <path
         d="M 0,962.382 H 1259.617 V 0 H 0 Z"
         transform="translate(-969.23245,-859.36442)"
         id="path220-1" />
    </clipPath>
    <clipPath
       clipPathUnits="userSpaceOnUse"
       id="clipPath222-6">
      <path
         d="M 0,962.382 H 1259.617 V 0 H 0 Z"
         transform="translate(-963.46832,-881.24582)"
         id="path222-6" />
    </clipPath>
    <clipPath
       clipPathUnits="userSpaceOnUse"
       id="clipPath224-0">
      <path
         d="M 0,962.382 H 1259.617 V 0 H 0 Z"
         transform="translate(-963.7681,-881.25902)"
         id="path224-2" />
    </clipPath>
    <clipPath
       clipPathUnits="userSpaceOnUse"
       id="clipPath226-3">
      <path
         d="M 0,962.382 H 1259.617 V 0 H 0 Z"
         transform="translate(-974.18852,-881.26682)"
         id="path226-3" />
    </clipPath>
    <clipPath
       clipPathUnits="userSpaceOnUse"
       id="clipPath228-5">
      <path
         d="M 0,962.382 H 1259.617 V 0 H 0 Z"
         transform="translate(-973.9639,-881.28392)"
         id="path228-8" />
    </clipPath>
    <clipPath
       clipPathUnits="userSpaceOnUse"
       id="clipPath230-1">
      <path
         d="M 0,962.382 H 1259.617 V 0 H 0 Z"
         transform="translate(-990.9751,-779.85572)"
         id="path230-8" />
    </clipPath>
    <clipPath
       clipPathUnits="userSpaceOnUse"
       id="clipPath232-1">
      <path
         d="M 0,962.382 H 1259.617 V 0 H 0 Z"
         transform="translate(-947.03762,-780.07102)"
         id="path232-1" />
    </clipPath>
  </defs>
  <g
     id="layer1">
    <g
       id="g267"
       transform="matrix(1.3121448,0,0,1.3712016,-1603.9995,-78.594471)">
      <path
         id="path207"
         d="m 0,0 -8.301,-56.133 4.283,-1.273"
         style="fill:#ffffff;fill-opacity:1;fill-rule:nonzero;stroke:#050606;stroke-width:0.218;stroke-linecap:butt;stroke-linejoin:miter;stroke-miterlimit:10;stroke-dasharray:none;stroke-opacity:1"
         transform="matrix(1.3333333,0,0,-1.3333333,1268.1497,165.62173)"
         clip-path="url(#clipPath208-7)" />
      <path
         id="path209"
         d="M 0,0 8.371,-56.133 4.087,-57.406"
         style="fill:#ffffff;fill-opacity:1;fill-rule:nonzero;stroke:#050606;stroke-width:0.218;stroke-linecap:butt;stroke-linejoin:miter;stroke-miterlimit:10;stroke-dasharray:none;stroke-opacity:1"
         transform="matrix(1.3333333,0,0,-1.3333333,1315.6432,165.62173)"
         clip-path="url(#clipPath210-1)" />
      <path
         id="path211"
         d="M 0,0 3.682,-1.104"
         style="fill:#ffffff;fill-opacity:1;fill-rule:nonzero;stroke:#050606;stroke-width:0.055;stroke-linecap:round;stroke-linejoin:round;stroke-miterlimit:10;stroke-dasharray:0.218, 0.218;stroke-dashoffset:0;stroke-opacity:1"
         transform="matrix(1.3333333,0,0,-1.3333333,1257.4661,239.82093)"
         clip-path="url(#clipPath212-0)" />
      <path
         id="path213"
         d="M 0,0 -3.965,-1.104"
         style="fill:#ffffff;fill-opacity:1;fill-rule:nonzero;stroke:#050606;stroke-width:0.055;stroke-linecap:round;stroke-linejoin:round;stroke-miterlimit:10;stroke-dasharray:0.218, 0.218;stroke-dashoffset:0;stroke-opacity:1"
         transform="matrix(1.3333333,0,0,-1.3333333,1326.4557,239.82093)"
         clip-path="url(#clipPath214-6)" />
      <path
         id="path215"
         d="M 0,0 -5.548,-39.713"
         style="fill:#ffffff;fill-opacity:1;fill-rule:nonzero;stroke:#050606;stroke-width:0.055;stroke-linecap:round;stroke-linejoin:round;stroke-miterlimit:10;stroke-dasharray:0.218, 0.218;stroke-dashoffset:0;stroke-opacity:1"
         transform="matrix(1.3333333,0,0,-1.3333333,1265.3151,187.62107)"
         clip-path="url(#clipPath216-5)" />
      <path
         id="path217"
         d="M 0,0 5.548,-39.713"
         style="fill:#ffffff;fill-opacity:1;fill-rule:nonzero;stroke:#050606;stroke-width:0.055;stroke-linecap:round;stroke-linejoin:round;stroke-miterlimit:10;stroke-dasharray:0.218, 0.218;stroke-dashoffset:0;stroke-opacity:1"
         transform="matrix(1.3333333,0,0,-1.3333333,1318.6081,187.62107)"
         clip-path="url(#clipPath218-2)" />
      <path
         id="path219"
         d="m 0,0 -4.123,-81.597 c 0,0 -7.017,-1.412 -8.648,-1.249 -1.632,0.163 -9.337,2.929 -9.337,2.929 l 2.23,46.633 c 0,0 5.242,36.125 5.976,40.601 0.735,4.475 1.421,7.07 1.421,7.07 0,0 1.1,0.552 3.616,2.977 2.407,2.318 2.81,4.495 2.81,4.495 H 5.349 c 0,0 0.49,-2.177 2.896,-4.495 2.517,-2.425 3.617,-2.977 3.617,-2.977 0,0 0.686,-2.595 1.42,-7.07 0.734,-4.476 5.977,-40.601 5.977,-40.601 l 2.23,-46.633 c 0,0 -7.706,-2.766 -9.337,-2.929 -1.632,-0.163 -8.649,1.249 -8.649,1.249 L 0,0 v 21.859"
         style="fill:#ffffff;fill-opacity:1;fill-rule:nonzero;stroke:#050606;stroke-width:0.218;stroke-linecap:butt;stroke-linejoin:round;stroke-miterlimit:10;stroke-dasharray:none;stroke-opacity:1"
         transform="matrix(1.3333333,0,0,-1.3333333,1292.3099,137.3568)"
         clip-path="url(#clipPath220-4)" />
      <path
         id="path221"
         d="m 0,0 c 0,0 -2.65,23.188 -0.246,24.446 l 0.106,0.005"
         style="fill:none;stroke:#231f20;stroke-width:0.105;stroke-linecap:butt;stroke-linejoin:miter;stroke-miterlimit:10;stroke-dasharray:none;stroke-opacity:1"
         transform="matrix(1.3333333,0,0,-1.3333333,1284.6244,108.1816)"
         clip-path="url(#clipPath222-6)" />
      <path
         id="path223"
         d="m 0,0 c 0,0 -2.649,23.188 -0.246,24.446 l 0.106,0.005"
         style="fill:none;stroke:#231f20;stroke-width:0.105;stroke-linecap:butt;stroke-linejoin:miter;stroke-miterlimit:10;stroke-dasharray:none;stroke-opacity:1"
         transform="matrix(1.3333333,0,0,-1.3333333,1285.0241,108.164)"
         clip-path="url(#clipPath224-0)" />
      <path
         id="path225"
         d="M 0,0 C 0,0 2.936,22.61 1.183,23.872 L 1.104,23.878"
         style="fill:none;stroke:#231f20;stroke-width:0.09;stroke-linecap:butt;stroke-linejoin:miter;stroke-miterlimit:10;stroke-dasharray:none;stroke-opacity:1"
         transform="matrix(1.3333333,0,0,-1.3333333,1298.918,108.1536)"
         clip-path="url(#clipPath226-3)" />
      <path
         id="path227"
         d="M 0,0 C 0,0 2.936,22.61 1.183,23.872 L 1.104,23.878"
         style="fill:none;stroke:#231f20;stroke-width:0.09;stroke-linecap:butt;stroke-linejoin:miter;stroke-miterlimit:10;stroke-dasharray:none;stroke-opacity:1"
         transform="matrix(1.3333333,0,0,-1.3333333,1298.6185,108.1308)"
         clip-path="url(#clipPath228-5)" />
      <path
         id="path229"
         d="m 0,0 c 0,0 -7.706,-2.747 -9.337,-2.908 -1.632,-0.162 -8.648,1.24 -8.648,1.24"
         style="fill:#ffffff;fill-opacity:1;fill-rule:nonzero;stroke:#050606;stroke-width:0.055;stroke-linecap:round;stroke-linejoin:round;stroke-miterlimit:10;stroke-dasharray:0.218, 0.218;stroke-dashoffset:0;stroke-opacity:1"
         transform="matrix(1.3333333,0,0,-1.3333333,1321.3001,243.3684)"
         clip-path="url(#clipPath230-1)" />
      <path
         id="path231"
         d="m 0,0 c 0,0 7.706,-2.747 9.337,-2.908 1.632,-0.162 8.648,1.24 8.648,1.24"
         style="fill:#ffffff;fill-opacity:1;fill-rule:nonzero;stroke:#050606;stroke-width:0.055;stroke-linecap:round;stroke-linejoin:round;stroke-miterlimit:10;stroke-dasharray:0.218, 0.218;stroke-dashoffset:0;stroke-opacity:1"
         transform="matrix(1.3333333,0,0,-1.3333333,1262.7168,243.08133)"
         clip-path="url(#clipPath232-1)" />
    </g>
  </g>
</svg>
