<?xml version="1.0" encoding="UTF-8" standalone="no"?>
<!-- Created with Inkscape (http://www.inkscape.org/) -->

<svg
   width="178.59375mm"
   height="264.8479mm"
   viewBox="0 0 178.59375 264.8479"
   version="1.1"
   id="svg1"
   xmlns="http://www.w3.org/2000/svg"
   xmlns:svg="http://www.w3.org/2000/svg">
  <defs
     id="defs1">
    <clipPath
       clipPathUnits="userSpaceOnUse"
       id="clipPath146-7">
      <path
         d="M 0,962.382 H 1259.617 V 0 H 0 Z"
         transform="translate(-752.24319,-781.25902)"
         id="path146-5" />
    </clipPath>
    <clipPath
       clipPathUnits="userSpaceOnUse"
       id="clipPath148-0">
      <path
         d="M 0,962.382 H 1259.617 V 0 H 0 Z"
         transform="translate(-761.37452,-781.73902)"
         id="path148-2" />
    </clipPath>
    <clipPath
       clipPathUnits="userSpaceOnUse"
       id="clipPath150-5">
      <path
         d="M 0,962.382 H 1259.617 V 0 H 0 Z"
         transform="translate(-757.15532,-878.30492)"
         id="path150-4" />
    </clipPath>
    <clipPath
       clipPathUnits="userSpaceOnUse"
       id="clipPath152-2">
      <path
         d="M 0,962.382 H 1259.617 V 0 H 0 Z"
         transform="translate(-757.01514,-858.36152)"
         id="path152-1" />
    </clipPath>
    <clipPath
       clipPathUnits="userSpaceOnUse"
       id="clipPath154-5">
      <path
         d="M 0,962.382 H 1259.617 V 0 H 0 Z"
         transform="translate(-757.25342,-876.45332)"
         id="path154-1" />
    </clipPath>
    <clipPath
       clipPathUnits="userSpaceOnUse"
       id="clipPath156-6">
      <path
         d="M 0,962.382 H 1259.617 V 0 H 0 Z"
         transform="translate(-758.51319,-877.48162)"
         id="path156-0" />
    </clipPath>
    <clipPath
       clipPathUnits="userSpaceOnUse"
       id="clipPath158-0">
      <path
         d="M 0,962.382 H 1259.617 V 0 H 0 Z"
         transform="translate(-766.51952,-877.78922)"
         id="path158-2" />
    </clipPath>
    <clipPath
       clipPathUnits="userSpaceOnUse"
       id="clipPath160-3">
      <path
         d="M 0,962.382 H 1259.617 V 0 H 0 Z"
         transform="translate(-758.94339,-876.42012)"
         id="path160-0" />
    </clipPath>
    <clipPath
       clipPathUnits="userSpaceOnUse"
       id="clipPath162-5">
      <path
         d="M 0,962.382 H 1259.617 V 0 H 0 Z"
         transform="translate(-758.94924,-875.92652)"
         id="path162-0" />
    </clipPath>
    <clipPath
       clipPathUnits="userSpaceOnUse"
       id="clipPath164-5">
      <path
         d="M 0,962.382 H 1259.617 V 0 H 0 Z"
         transform="translate(-757.24269,-863.43572)"
         id="path164-7" />
    </clipPath>
    <clipPath
       clipPathUnits="userSpaceOnUse"
       id="clipPath166-4">
      <path
         d="M 0,962.382 H 1259.617 V 0 H 0 Z"
         transform="translate(-747.54542,-877.27512)"
         id="path166-8" />
    </clipPath>
    <clipPath
       clipPathUnits="userSpaceOnUse"
       id="clipPath168-0">
      <path
         d="M 0,962.382 H 1259.617 V 0 H 0 Z"
         transform="translate(-766.38962,-877.27512)"
         id="path168-6" />
    </clipPath>
    <clipPath
       clipPathUnits="userSpaceOnUse"
       id="clipPath170-0">
      <path
         d="M 0,962.382 H 1259.617 V 0 H 0 Z"
         transform="translate(-757.25342,-876.66522)"
         id="path170-5" />
    </clipPath>
    <clipPath
       clipPathUnits="userSpaceOnUse"
       id="clipPath172-9">
      <path
         d="M 0,962.382 H 1259.617 V 0 H 0 Z"
         transform="translate(-766.70364,-877.39372)"
         id="path172-2" />
    </clipPath>
    <clipPath
       clipPathUnits="userSpaceOnUse"
       id="clipPath174-8">
      <path
         d="M 0,962.382 H 1259.617 V 0 H 0 Z"
         transform="translate(-747.26032,-877.36932)"
         id="path174-3" />
    </clipPath>
  </defs>
  <g
     id="layer1">
    <g
       id="g266"
       transform="matrix(1.3121413,0,0,1.3712016,-1234.0062,-78.594471)">
      <path
         id="path145"
         d="m 0,0 c 0,0 -3.215,-0.761 -4.657,-0.722 -2.85,0.078 -6.007,0.959 -6.007,0.959"
         style="fill:none;stroke:#231f20;stroke-width:0.1;stroke-linecap:round;stroke-linejoin:miter;stroke-miterlimit:10;stroke-dasharray:0.201, 0.401;stroke-dashoffset:0;stroke-opacity:1"
         transform="matrix(1.3333333,0,0,-1.3333333,1002.9909,241.49733)"
         clip-path="url(#clipPath146-7)" />
      <path
         id="path147"
         d="m 0,0 c 0,0 3.215,-0.761 4.657,-0.722 2.85,0.078 6.007,0.959 6.007,0.959"
         style="fill:none;stroke:#231f20;stroke-width:0.1;stroke-linecap:round;stroke-linejoin:miter;stroke-miterlimit:10;stroke-dasharray:0.201, 0.401;stroke-dashoffset:0;stroke-opacity:1"
         transform="matrix(1.3333333,0,0,-1.3333333,1015.166,240.85733)"
         clip-path="url(#clipPath148-0)" />
      <path
         id="path149"
         d="m 0,0 -0.116,-19.683 -0.101,-1.081 c -0.023,-0.099 -2.468,-31.306 -2.648,-32.572 -0.18,-1.265 -1.8,-23.886 -1.8,-25.31 0,-1.424 -0.18,-18.824 -0.18,-18.824 0,0 -2.328,-0.958 -4.656,-0.91 -4.157,0.085 -6.007,1.147 -6.007,1.147 0,0 0.117,83.761 0.657,85.185 0.539,1.423 4.956,11.112 4.956,11.112"
         style="fill:#ffffff;fill-opacity:1;fill-rule:nonzero;stroke:#231f20;stroke-width:0.201;stroke-linecap:round;stroke-linejoin:miter;stroke-miterlimit:10;stroke-dasharray:none;stroke-opacity:1"
         transform="matrix(1.3333333,0,0,-1.3333333,1009.5404,112.1028)"
         clip-path="url(#clipPath150-5)" />
      <path
         id="path151"
         d="m 0,0 c 0.022,-0.099 2.173,-31.907 2.353,-33.173 0.18,-1.265 1.8,-23.887 1.8,-25.31 0,-1.424 0.18,-18.825 0.18,-18.825 0,0 2.329,-0.957 4.657,-0.909 4.156,0.085 6.007,1.147 6.007,1.147 0,0 -0.117,83.761 -0.657,85.184 C 13.8,9.538 9.688,19.032 9.688,19.032"
         style="fill:#ffffff;fill-opacity:1;fill-rule:nonzero;stroke:#231f20;stroke-width:0.201;stroke-linecap:round;stroke-linejoin:miter;stroke-miterlimit:10;stroke-dasharray:none;stroke-opacity:1"
         transform="matrix(1.3333333,0,0,-1.3333333,1009.3535,138.694)"
         clip-path="url(#clipPath152-2)" />
      <path
         id="path153"
         d="M 0,0 C 0,0 -3.004,0.069 -5.03,0.278 -8.655,0.652 -9.993,0.916 -9.993,0.916 L -8.97,2.84 C -6.995,2.447 -4.375,2.033 0.467,1.944 5.332,1.854 8.482,3.021 8.482,3.021 L 9.45,0.94 c 0,0 -3.668,-1.05 -9.651,-0.952"
         style="fill:#ffffff;fill-opacity:1;fill-rule:nonzero;stroke:#231f20;stroke-width:0.201;stroke-linecap:butt;stroke-linejoin:miter;stroke-miterlimit:10;stroke-dasharray:none;stroke-opacity:1"
         transform="matrix(1.3333333,0,0,-1.3333333,1009.6712,114.5716)"
         clip-path="url(#clipPath154-5)" />
      <path
         id="path155"
         d="m 0,0 c 0,-0.256 -0.236,-0.464 -0.528,-0.464 -0.292,0 -0.528,0.208 -0.528,0.464 0,0.256 0.236,0.464 0.528,0.464 C -0.236,0.464 0,0.256 0,0"
         style="fill:#ffffff;fill-opacity:1;fill-rule:nonzero;stroke:#231f20;stroke-width:0.201;stroke-linecap:butt;stroke-linejoin:miter;stroke-miterlimit:10;stroke-dasharray:none;stroke-opacity:1"
         transform="matrix(1.3333333,0,0,-1.3333333,1011.3509,113.20053)"
         clip-path="url(#clipPath156-6)" />
      <path
         id="path157"
         d="M 0,0 C 0,0 -3.484,-1.21 -9.467,-1.112"
         style="fill:none;stroke:#231f20;stroke-width:0.1;stroke-linecap:round;stroke-linejoin:miter;stroke-miterlimit:10;stroke-dasharray:0.201, 0.401;stroke-dashoffset:0;stroke-opacity:1"
         transform="matrix(1.3333333,0,0,-1.3333333,1022.026,112.7904)"
         clip-path="url(#clipPath158-0)" />
      <path
         id="path159"
         d="M 0,0 C 0,0 0,-0.034 0.001,-0.097"
         style="fill:none;stroke:#231f20;stroke-width:0.1;stroke-linecap:round;stroke-linejoin:miter;stroke-miterlimit:10;stroke-dasharray:none;stroke-opacity:1"
         transform="matrix(1.3333333,0,0,-1.3333333,1011.9245,114.61587)"
         clip-path="url(#clipPath160-3)" />
      <path
         id="path161"
         d="m 0,0 c 0.026,-2.152 0.112,-10.628 -0.108,-11.068 -0.438,-0.872 -1.04,-1.228 -1.401,-1.363"
         style="fill:none;stroke:#231f20;stroke-width:0.1;stroke-linecap:round;stroke-linejoin:miter;stroke-miterlimit:10;stroke-dasharray:0.201, 0.402;stroke-dashoffset:0;stroke-opacity:1"
         transform="matrix(1.3333333,0,0,-1.3333333,1011.9323,115.274)"
         clip-path="url(#clipPath162-5)" />
      <path
         id="path163"
         d="M 0,0 C -0.044,-0.01 -0.077,-0.014 -0.096,-0.015"
         style="fill:none;stroke:#231f20;stroke-width:0.1;stroke-linecap:round;stroke-linejoin:miter;stroke-miterlimit:10;stroke-dasharray:none;stroke-opacity:1"
         transform="matrix(1.3333333,0,0,-1.3333333,1009.6569,131.9284)"
         clip-path="url(#clipPath164-5)" />
      <path
         id="path165"
         d="M 0,0 C 0,0 -2.976,-9.975 -5.146,-11.344"
         style="fill:none;stroke:#231f20;stroke-width:0.1;stroke-linecap:round;stroke-linejoin:miter;stroke-miterlimit:10;stroke-dasharray:0.201, 0.401;stroke-dashoffset:0;stroke-opacity:1"
         transform="matrix(1.3333333,0,0,-1.3333333,996.7272,113.47587)"
         clip-path="url(#clipPath166-4)" />
      <path
         id="path167"
         d="M 0,0 C 0,0 2.663,-10.717 5.146,-11.344"
         style="fill:none;stroke:#231f20;stroke-width:0.1;stroke-linecap:round;stroke-linejoin:miter;stroke-miterlimit:10;stroke-dasharray:0.201, 0.401;stroke-dashoffset:0;stroke-opacity:1"
         transform="matrix(1.3333333,0,0,-1.3333333,1021.8528,113.47587)"
         clip-path="url(#clipPath168-0)" />
      <path
         id="path169"
         d="M 0,0 C 0,0 -3.004,0.069 -5.03,0.278 -8.655,0.652 -9.84,0.993 -9.84,0.993"
         style="fill:none;stroke:#231f20;stroke-width:0.1;stroke-linecap:round;stroke-linejoin:miter;stroke-miterlimit:10;stroke-dasharray:0.201, 0.401;stroke-dashoffset:0;stroke-opacity:1"
         transform="matrix(1.3333333,0,0,-1.3333333,1009.6712,114.28907)"
         clip-path="url(#clipPath170-0)" />
      <path
         id="path171"
         d="M 0,0 C 0,0 3.123,-10.401 4.697,-10.836"
         style="fill:#ffffff;fill-opacity:1;fill-rule:nonzero;stroke:#231f20;stroke-width:0.201;stroke-linecap:butt;stroke-linejoin:miter;stroke-miterlimit:10;stroke-dasharray:none;stroke-opacity:1"
         transform="matrix(1.3333333,0,0,-1.3333333,1022.2715,113.31773)"
         clip-path="url(#clipPath172-9)" />
      <path
         id="path173"
         d="M 0,0 C 0,0 -3.201,-10.52 -4.776,-10.955"
         style="fill:#ffffff;fill-opacity:1;fill-rule:nonzero;stroke:#231f20;stroke-width:0.201;stroke-linecap:butt;stroke-linejoin:miter;stroke-miterlimit:10;stroke-dasharray:none;stroke-opacity:1"
         transform="matrix(1.3333333,0,0,-1.3333333,996.34707,113.35027)"
         clip-path="url(#clipPath174-8)" />
    </g>
  </g>
</svg>
