<?xml version="1.0" encoding="UTF-8" standalone="no"?>
<!-- Created with Inkscape (http://www.inkscape.org/) -->

<svg
   width="178.59375mm"
   height="264.8479mm"
   viewBox="0 0 178.59375 264.8479"
   version="1.1"
   id="svg1"
   xmlns="http://www.w3.org/2000/svg"
   xmlns:svg="http://www.w3.org/2000/svg">
  <defs
     id="defs1">
    <clipPath
       clipPathUnits="userSpaceOnUse"
       id="clipPath58-4">
      <path
         d="M 0,962.382 H 1259.617 V 0 H 0 Z"
         transform="translate(-99.577202,-780.43722)"
         id="path58-3" />
    </clipPath>
    <clipPath
       clipPathUnits="userSpaceOnUse"
       id="clipPath60-0">
      <path
         d="M 0,962.382 H 1259.617 V 0 H 0 Z"
         transform="translate(-124.2823,-784.22432)"
         id="path60-7" />
    </clipPath>
    <clipPath
       clipPathUnits="userSpaceOnUse"
       id="clipPath62">
      <path
         d="M 0,962.382 H 1259.617 V 0 H 0 Z"
         transform="translate(-109.42971,-879.02662)"
         id="path62" />
    </clipPath>
    <clipPath
       clipPathUnits="userSpaceOnUse"
       id="clipPath64">
      <path
         d="M 0,962.382 H 1259.617 V 0 H 0 Z"
         transform="translate(-101.33301,-877.67062)"
         id="path64" />
    </clipPath>
    <clipPath
       clipPathUnits="userSpaceOnUse"
       id="clipPath66">
      <path
         d="M 0,962.382 H 1259.617 V 0 H 0 Z"
         transform="translate(-107.0391,-878.09052)"
         id="path66" />
    </clipPath>
    <clipPath
       clipPathUnits="userSpaceOnUse"
       id="clipPath68-9">
      <path
         d="M 0,962.382 H 1259.617 V 0 H 0 Z"
         transform="translate(-107.2339,-878.13692)"
         id="path68-9" />
    </clipPath>
    <clipPath
       clipPathUnits="userSpaceOnUse"
       id="clipPath70">
      <path
         d="M 0,962.382 H 1259.617 V 0 H 0 Z"
         transform="translate(-96.7207,-878.09052)"
         id="path70" />
    </clipPath>
    <clipPath
       clipPathUnits="userSpaceOnUse"
       id="clipPath72">
      <path
         d="M 0,962.382 H 1259.617 V 0 H 0 Z"
         transform="translate(-96.915602,-878.04362)"
         id="path72" />
    </clipPath>
    <clipPath
       clipPathUnits="userSpaceOnUse"
       id="clipPath74">
      <path
         d="M 0,962.382 H 1259.617 V 0 H 0 Z"
         transform="translate(-83.8321,-828.98502)"
         id="path74" />
    </clipPath>
    <clipPath
       clipPathUnits="userSpaceOnUse"
       id="clipPath76-9">
      <path
         d="M 0,962.382 H 1259.617 V 0 H 0 Z"
         transform="translate(-84.0865,-828.33952)"
         id="path76-4" />
    </clipPath>
    <clipPath
       clipPathUnits="userSpaceOnUse"
       id="clipPath78">
      <path
         d="M 0,962.382 H 1259.617 V 0 H 0 Z"
         transform="translate(-119.5645,-828.76482)"
         id="path78" />
    </clipPath>
    <clipPath
       clipPathUnits="userSpaceOnUse"
       id="clipPath80">
      <path
         d="M 0,962.382 H 1259.617 V 0 H 0 Z"
         transform="translate(-119.3916,-828.33952)"
         id="path80" />
    </clipPath>
  </defs>
  <g
     id="layer1">
    <g
       id="g263"
       transform="matrix(1.3121379,0,0,1.3712016,-87.475883,-78.594471)">
      <path
         id="path57"
         d="M 0,0 C -0.821,-0.118 -2.904,-0.257 -3.188,0.049 -3.294,0.164 -3.359,0.29 -3.397,0.379 -4.903,0.18 -6.092,0.037 -6.843,-0.061 -6.959,-0.076 -7.209,-0.109 -7.501,0.012 -8.033,0.233 -8.337,0.813 -8.49,1.185 -8.956,1.187 -9.652,1.183 -10.498,1.148 c -1.611,-0.065 -2.763,-0.197 -2.996,-0.219 -1.242,-0.118 -3.296,0.36 -6.86,2.931"
         style="fill:#ffffff;fill-opacity:1;fill-rule:nonzero;stroke:#231f20;stroke-width:0.2;stroke-linecap:round;stroke-linejoin:miter;stroke-miterlimit:10;stroke-dasharray:0.533, 0.533;stroke-dashoffset:0;stroke-opacity:1"
         transform="matrix(1.3333333,0,0,-1.3333333,132.7696,242.59307)"
         clip-path="url(#clipPath58-4)" />
      <path
         id="path59"
         d="m 0,0 c -1.097,-0.855 -2.931,-2.051 -5.393,-2.639 -2.842,-0.679 -5.198,-0.232 -6.531,0.147 -0.121,-0.316 -0.387,-0.878 -0.899,-1.173 -0.426,-0.245 -0.826,-0.192 -1.138,-0.147 -0.692,0.102 -1.688,0.277 -2.936,0.587 -0.275,-0.227 -0.7,-0.512 -1.259,-0.66 -1.132,-0.299 -2.057,0.17 -2.396,0.367"
         style="fill:#ffffff;fill-opacity:1;fill-rule:nonzero;stroke:#231f20;stroke-width:0.2;stroke-linecap:round;stroke-linejoin:miter;stroke-miterlimit:10;stroke-dasharray:0.533, 0.533;stroke-dashoffset:0;stroke-opacity:1"
         transform="matrix(1.3333333,0,0,-1.3333333,165.70973,237.5436)"
         clip-path="url(#clipPath60-0)" />
      <path
         id="path61"
         d="m 0,0 c 0.54,-1.686 7.251,-11.651 7.542,-29.465 0.195,-11.922 2.827,-23.633 4.075,-35.476 0.767,-7.28 1.873,-17.738 3.236,-30.492 -1.098,-0.856 -2.932,-2.051 -5.393,-2.639 -2.842,-0.679 -5.199,-0.233 -6.531,0.147 -0.121,-0.316 -0.387,-0.878 -0.899,-1.173 -0.426,-0.245 -0.827,-0.193 -1.138,-0.147 -0.692,0.102 -1.689,0.277 -2.937,0.587 -0.275,-0.227 -0.699,-0.512 -1.258,-0.66 -1.132,-0.299 -2.058,0.17 -2.397,0.366 l -1.917,71.466 c -0.096,0.214 -0.32,0.376 -0.48,0.405 0,0 -0.15,0.056 -0.459,-0.381 -0.451,-0.636 -0.922,-34.165 -1.308,-71.563 -0.667,-0.195 -1.239,-0.303 -1.678,-0.366 -0.821,-0.119 -1.215,-0.087 -1.498,0.22 -0.106,0.115 -0.171,0.24 -0.21,0.329 -1.506,-0.198 -2.694,-0.342 -3.445,-0.439 -0.117,-0.015 -0.367,-0.049 -0.659,0.073 -0.532,0.221 -0.835,0.801 -0.989,1.173 -0.465,0.002 -1.162,-0.003 -2.007,-0.037 -1.612,-0.065 -2.764,-0.198 -2.996,-0.22 -1.243,-0.118 -3.296,0.36 -6.861,2.932 3.598,33.238 6.379,57.916 7.37,68.167 0.919,16.345 7.034,26.619 7.034,26.619 0.064,0.215 0.116,0.39 0.149,0.501 2.577,-0.659 3.816,-1.213 7.557,-1.226 C -4.112,-1.312 -2.685,-0.708 0,0"
         style="fill:#ffffff;fill-opacity:1;fill-rule:nonzero;stroke:#231f20;stroke-width:0.267;stroke-linecap:butt;stroke-linejoin:miter;stroke-miterlimit:10;stroke-dasharray:none;stroke-opacity:1"
         transform="matrix(1.3333333,0,0,-1.3333333,145.90627,111.14053)"
         clip-path="url(#clipPath62)" />
      <path
         id="path63"
         d="M 0,0 V -25.725"
         style="fill:#ffffff;fill-opacity:1;fill-rule:nonzero;stroke:#231f20;stroke-width:0.267;stroke-linecap:butt;stroke-linejoin:miter;stroke-miterlimit:10;stroke-dasharray:none;stroke-opacity:1"
         transform="matrix(1.3333333,0,0,-1.3333333,135.11067,112.94853)"
         clip-path="url(#clipPath64)" />
      <path
         id="path65"
         d="M 0,0 1.738,-7.257"
         style="fill:#ffffff;fill-opacity:1;fill-rule:nonzero;stroke:none"
         transform="matrix(1.3333333,0,0,-1.3333333,142.7188,112.38867)"
         clip-path="url(#clipPath66)" />
      <path
         id="path67"
         d="m 0,0 1.543,-7.303 -1.932,7.21 z"
         style="fill:#231f20;fill-opacity:1;fill-rule:nonzero;stroke:none"
         transform="matrix(1.3333333,0,0,-1.3333333,142.97853,112.3268)"
         clip-path="url(#clipPath68-9)" />
      <path
         id="path69"
         d="M 0,0 -1.738,-7.257"
         style="fill:#ffffff;fill-opacity:1;fill-rule:nonzero;stroke:none"
         transform="matrix(1.3333333,0,0,-1.3333333,128.96093,112.38867)"
         clip-path="url(#clipPath70)" />
      <path
         id="path71"
         d="m 0,0 -1.933,-7.21 1.544,7.303 z"
         style="fill:#231f20;fill-opacity:1;fill-rule:nonzero;stroke:none"
         transform="matrix(1.3333333,0,0,-1.3333333,129.2208,112.4512)"
         clip-path="url(#clipPath72)" />
      <path
         id="path73"
         d="M 0,0 C 0.041,-0.055 0.409,-0.754 0.409,-0.754"
         style="fill:#ffffff;fill-opacity:1;fill-rule:nonzero;stroke:#231f20;stroke-width:0.267;stroke-linecap:butt;stroke-linejoin:miter;stroke-miterlimit:10;stroke-dasharray:none;stroke-opacity:1"
         transform="matrix(1.3333333,0,0,-1.3333333,111.77613,177.86267)"
         clip-path="url(#clipPath74)" />
      <path
         id="path75"
         d="m 0,0 -5.763,-43.187 1.028,-0.294"
         style="fill:#ffffff;fill-opacity:1;fill-rule:nonzero;stroke:#231f20;stroke-width:0.267;stroke-linecap:butt;stroke-linejoin:miter;stroke-miterlimit:10;stroke-dasharray:none;stroke-opacity:1"
         transform="matrix(1.3333333,0,0,-1.3333333,112.11533,178.72333)"
         clip-path="url(#clipPath76-9)" />
      <path
         id="path77"
         d="M 0,0 C -0.041,-0.055 -0.409,-0.754 -0.409,-0.754"
         style="fill:#ffffff;fill-opacity:1;fill-rule:nonzero;stroke:#231f20;stroke-width:0.267;stroke-linecap:butt;stroke-linejoin:miter;stroke-miterlimit:10;stroke-dasharray:none;stroke-opacity:1"
         transform="matrix(1.3333333,0,0,-1.3333333,159.41933,178.15627)"
         clip-path="url(#clipPath78)" />
      <path
         id="path79"
         d="M 0,0 5.861,-43.187 4.833,-43.481"
         style="fill:#ffffff;fill-opacity:1;fill-rule:nonzero;stroke:#231f20;stroke-width:0.267;stroke-linecap:butt;stroke-linejoin:miter;stroke-miterlimit:10;stroke-dasharray:none;stroke-opacity:1"
         transform="matrix(1.3333333,0,0,-1.3333333,159.1888,178.72333)"
         clip-path="url(#clipPath80)" />
    </g>
  </g>
</svg>
