<?xml version="1.0" encoding="UTF-8" standalone="no"?>
<!-- Created with Inkscape (http://www.inkscape.org/) -->

<svg
   width="178.59375mm"
   height="264.8479mm"
   viewBox="0 0 178.59375 264.8479"
   version="1.1"
   id="svg1"
   xmlns="http://www.w3.org/2000/svg"
   xmlns:svg="http://www.w3.org/2000/svg">
  <defs
     id="defs1">
    <clipPath
       clipPathUnits="userSpaceOnUse"
       id="clipPath474-7">
      <path
         d="M 0,1063.397 H 1790.733 V 0 H 0 Z"
         transform="translate(-537.14201,-976.31122)"
         id="path474-9" />
    </clipPath>
    <clipPath
       clipPathUnits="userSpaceOnUse"
       id="clipPath476-5">
      <path
         d="M 0,1063.397 H 1790.733 V 0 H 0 Z"
         transform="translate(-527.55412,-971.96062)"
         id="path476-33" />
    </clipPath>
    <clipPath
       clipPathUnits="userSpaceOnUse"
       id="clipPath478-3">
      <path
         d="M 0,1063.397 H 1790.733 V 0 H 0 Z"
         transform="translate(-527.52001,-971.98792)"
         id="path478-85" />
    </clipPath>
    <clipPath
       clipPathUnits="userSpaceOnUse"
       id="clipPath480-8">
      <path
         d="M 0,1063.397 H 1790.733 V 0 H 0 Z"
         transform="translate(-527.41552,-971.36833)"
         id="path480-9" />
    </clipPath>
    <clipPath
       clipPathUnits="userSpaceOnUse"
       id="clipPath482-6">
      <path
         d="M 0,1063.397 H 1790.733 V 0 H 0 Z"
         transform="translate(-527.39111,-971.40442)"
         id="path482-0" />
    </clipPath>
    <clipPath
       clipPathUnits="userSpaceOnUse"
       id="clipPath484-42">
      <path
         d="M 0,1063.397 H 1790.733 V 0 H 0 Z"
         transform="translate(-527.33441,-971.02112)"
         id="path484-3" />
    </clipPath>
    <clipPath
       clipPathUnits="userSpaceOnUse"
       id="clipPath486-3">
      <path
         d="M 0,1063.397 H 1790.733 V 0 H 0 Z"
         transform="translate(-527.33441,-971.06563)"
         id="path486-7" />
    </clipPath>
    <clipPath
       clipPathUnits="userSpaceOnUse"
       id="clipPath488-0">
      <path
         d="M 0,1063.397 H 1790.733 V 0 H 0 Z"
         transform="translate(-527.46041,-970.43083)"
         id="path488-0" />
    </clipPath>
    <clipPath
       clipPathUnits="userSpaceOnUse"
       id="clipPath490-1">
      <path
         d="M 0,1063.397 H 1790.733 V 0 H 0 Z"
         transform="translate(-527.44381,-970.47182)"
         id="path490-03" />
    </clipPath>
    <clipPath
       clipPathUnits="userSpaceOnUse"
       id="clipPath492-0">
      <path
         d="M 0,1063.397 H 1790.733 V 0 H 0 Z"
         transform="translate(-534.88621,-975.97082)"
         id="path492-0" />
    </clipPath>
    <clipPath
       clipPathUnits="userSpaceOnUse"
       id="clipPath494-3">
      <path
         d="M 0,1063.397 H 1790.733 V 0 H 0 Z"
         transform="translate(-534.92821,-975.96013)"
         id="path494-8" />
    </clipPath>
    <clipPath
       clipPathUnits="userSpaceOnUse"
       id="clipPath496-3">
      <path
         d="M 0,1063.397 H 1790.733 V 0 H 0 Z"
         transform="translate(-527.68702,-972.55822)"
         id="path496-6" />
    </clipPath>
    <clipPath
       clipPathUnits="userSpaceOnUse"
       id="clipPath498-0">
      <path
         d="M 0,1063.397 H 1790.733 V 0 H 0 Z"
         transform="translate(-527.68702,-972.55822)"
         id="path498-4" />
    </clipPath>
    <clipPath
       clipPathUnits="userSpaceOnUse"
       id="clipPath500-0">
      <path
         d="M 0,1063.397 H 1790.733 V 0 H 0 Z"
         transform="translate(-525.74851,-970.31953)"
         id="path500-9" />
    </clipPath>
    <clipPath
       clipPathUnits="userSpaceOnUse"
       id="clipPath502-2">
      <path
         d="M 0,1063.397 H 1790.733 V 0 H 0 Z"
         transform="translate(-525.74752,-970.31953)"
         id="path502-4" />
    </clipPath>
    <clipPath
       clipPathUnits="userSpaceOnUse"
       id="clipPath504-9">
      <path
         d="M 0,1063.397 H 1790.733 V 0 H 0 Z"
         transform="translate(-527.27002,-968.34832)"
         id="path504-2" />
    </clipPath>
    <clipPath
       clipPathUnits="userSpaceOnUse"
       id="clipPath506-9">
      <path
         d="M 0,1063.397 H 1790.733 V 0 H 0 Z"
         transform="translate(-527.27191,-968.35222)"
         id="path506-1" />
    </clipPath>
    <clipPath
       clipPathUnits="userSpaceOnUse"
       id="clipPath508-0">
      <path
         d="M 0,1063.397 H 1790.733 V 0 H 0 Z"
         transform="translate(-528.78172,-968.89033)"
         id="path508-9" />
    </clipPath>
    <clipPath
       clipPathUnits="userSpaceOnUse"
       id="clipPath510-3">
      <path
         d="M 0,1063.397 H 1790.733 V 0 H 0 Z"
         transform="translate(-528.78562,-968.89273)"
         id="path510-0" />
    </clipPath>
    <clipPath
       clipPathUnits="userSpaceOnUse"
       id="clipPath512-0">
      <path
         d="M 0,1063.397 H 1790.733 V 0 H 0 Z"
         transform="translate(-526.97411,-969.52312)"
         id="path512-3" />
    </clipPath>
    <clipPath
       clipPathUnits="userSpaceOnUse"
       id="clipPath514-0">
      <path
         d="M 0,1063.397 H 1790.733 V 0 H 0 Z"
         transform="translate(-526.97891,-969.52312)"
         id="path514-1" />
    </clipPath>
    <clipPath
       clipPathUnits="userSpaceOnUse"
       id="clipPath516-9">
      <path
         d="M 0,1063.397 H 1790.733 V 0 H 0 Z"
         transform="translate(-525.28361,-968.72722)"
         id="path516-86" />
    </clipPath>
    <clipPath
       clipPathUnits="userSpaceOnUse"
       id="clipPath518-9">
      <path
         d="M 0,1063.397 H 1790.733 V 0 H 0 Z"
         transform="translate(-525.28852,-968.72722)"
         id="path518-0" />
    </clipPath>
    <clipPath
       clipPathUnits="userSpaceOnUse"
       id="clipPath520-1">
      <path
         d="M 0,1063.397 H 1790.733 V 0 H 0 Z"
         transform="translate(-516.06001,-976.31122)"
         id="path520-6" />
    </clipPath>
    <clipPath
       clipPathUnits="userSpaceOnUse"
       id="clipPath522-4">
      <path
         d="M 0,1063.397 H 1790.733 V 0 H 0 Z"
         transform="translate(-525.64792,-971.96062)"
         id="path522-4" />
    </clipPath>
    <clipPath
       clipPathUnits="userSpaceOnUse"
       id="clipPath524-8">
      <path
         d="M 0,1063.397 H 1790.733 V 0 H 0 Z"
         transform="translate(-525.61372,-971.93323)"
         id="path524-6" />
    </clipPath>
    <clipPath
       clipPathUnits="userSpaceOnUse"
       id="clipPath526-1">
      <path
         d="M 0,1063.397 H 1790.733 V 0 H 0 Z"
         transform="translate(-525.75631,-971.50012)"
         id="path526-4" />
    </clipPath>
    <clipPath
       clipPathUnits="userSpaceOnUse"
       id="clipPath528-08">
      <path
         d="M 0,1063.397 H 1790.733 V 0 H 0 Z"
         transform="translate(-525.74161,-971.45863)"
         id="path528-1" />
    </clipPath>
    <clipPath
       clipPathUnits="userSpaceOnUse"
       id="clipPath530-0">
      <path
         d="M 0,1063.397 H 1790.733 V 0 H 0 Z"
         transform="translate(-525.88031,-970.97182)"
         id="path530-3" />
    </clipPath>
    <clipPath
       clipPathUnits="userSpaceOnUse"
       id="clipPath532-1">
      <path
         d="M 0,1063.397 H 1790.733 V 0 H 0 Z"
         transform="translate(-525.88031,-970.92793)"
         id="path532-15" />
    </clipPath>
    <clipPath
       clipPathUnits="userSpaceOnUse"
       id="clipPath534-0">
      <path
         d="M 0,1063.397 H 1790.733 V 0 H 0 Z"
         transform="translate(-525.69571,-970.34923)"
         id="path534-8" />
    </clipPath>
    <clipPath
       clipPathUnits="userSpaceOnUse"
       id="clipPath536-4">
      <path
         d="M 0,1063.397 H 1790.733 V 0 H 0 Z"
         transform="translate(-525.65771,-970.37173)"
         id="path536-9" />
    </clipPath>
    <clipPath
       clipPathUnits="userSpaceOnUse"
       id="clipPath538-3">
      <path
         d="M 0,1063.397 H 1790.733 V 0 H 0 Z"
         transform="translate(-518.31682,-975.97082)"
         id="path538-0" />
    </clipPath>
    <clipPath
       clipPathUnits="userSpaceOnUse"
       id="clipPath540-5">
      <path
         d="M 0,1063.397 H 1790.733 V 0 H 0 Z"
         transform="translate(-518.35981,-975.98162)"
         id="path540-2" />
    </clipPath>
    <clipPath
       clipPathUnits="userSpaceOnUse"
       id="clipPath542-3">
      <path
         d="M 0,1063.397 H 1790.733 V 0 H 0 Z"
         transform="translate(-517.42031,-969.55732)"
         id="path542-8" />
    </clipPath>
    <clipPath
       clipPathUnits="userSpaceOnUse"
       id="clipPath544-7">
      <path
         d="M 0,1063.397 H 1790.733 V 0 H 0 Z"
         transform="translate(-535.78171,-969.55732)"
         id="path544-8" />
    </clipPath>
  </defs>
  <g
     id="layer1">
    <g
       id="g1920"
       transform="matrix(1.3096379,0,0,1.3712087,-829.18646,-108.8109)">
      <path
         id="path473"
         d="m 0,0 c -0.992,3.772 -2.181,13.119 -2.181,13.119 l -0.593,0.08 C -4.232,10.004 -6.405,7.686 -7.161,5.781 -8.751,1.776 -9.427,-3.75 -9.481,-3.896 l -0.424,-1.811 c 0.173,-0.077 0.877,-0.793 1.555,-1.696 2.179,0 6.028,0.366 6.99,0.649 0.149,0.349 0.293,0.717 0.435,1.102 0.237,0.641 0.513,1.465 0.668,2.193 C 0.169,-2.17 0.166,-0.627 0,0"
         style="fill:#ffffff;fill-opacity:1;fill-rule:nonzero;stroke:#050606;stroke-width:0.088;stroke-linecap:round;stroke-linejoin:round;stroke-miterlimit:10;stroke-dasharray:none;stroke-opacity:1"
         transform="matrix(1.3333333,0,0,-1.3333333,716.18933,116.1184)"
         clip-path="url(#clipPath474-7)" />
      <path
         id="path475"
         d="M 0,0 C 0.283,0.358 3.238,4.853 3.238,4.853"
         style="fill:#ffffff;fill-opacity:1;fill-rule:nonzero;stroke:none"
         transform="matrix(1.3333333,0,0,-1.3333333,703.40547,121.9192)"
         clip-path="url(#clipPath476-5)" />
      <path
         id="path477"
         d="m 0,0 3.272,4.825 -3.203,-4.88 c -0.013,-0.02 -0.041,-0.026 -0.061,-0.012 -0.02,0.013 -0.026,0.04 -0.013,0.061 0,0 0.001,0 0.001,0 z"
         style="fill:#050606;fill-opacity:1;fill-rule:nonzero;stroke:none"
         transform="matrix(1.3333333,0,0,-1.3333333,703.36,121.8828)"
         clip-path="url(#clipPath478-3)" />
      <path
         id="path479"
         d="M 0,0 C 0,0 2.116,1.438 2.451,1.952 3.258,3.189 4.509,5.527 4.509,5.527"
         style="fill:#ffffff;fill-opacity:1;fill-rule:nonzero;stroke:none"
         transform="matrix(1.3333333,0,0,-1.3333333,703.22067,122.70893)"
         clip-path="url(#clipPath480-8)" />
      <path
         id="path481"
         d="M 0,0 C 0.5,0.339 0.995,0.688 1.476,1.055 1.948,1.429 2.458,1.781 2.702,2.354 L 4.533,5.491 2.739,2.33 C 2.505,1.756 1.979,1.376 1.517,1.002 1.038,0.629 0.547,0.274 0.049,-0.073 0.029,-0.086 0.002,-0.082 -0.012,-0.062 -0.026,-0.042 -0.021,-0.014 -0.001,0 Z"
         style="fill:#050606;fill-opacity:1;fill-rule:nonzero;stroke:none"
         transform="matrix(1.3333333,0,0,-1.3333333,703.18813,122.6608)"
         clip-path="url(#clipPath482-6)" />
      <path
         id="path483"
         d="M 0,0 C 0.075,0 3.131,1.325 3.807,2.057 4.345,2.639 5.892,5.792 5.892,5.792"
         style="fill:#ffffff;fill-opacity:1;fill-rule:nonzero;stroke:none"
         transform="matrix(1.3333333,0,0,-1.3333333,703.11253,123.17187)"
         clip-path="url(#clipPath484-42)" />
      <path
         id="path485"
         d="M 0,0 C 0.636,0.25 1.309,0.567 1.945,0.883 2.577,1.214 3.237,1.532 3.766,2.009 4.22,2.556 4.544,3.211 4.896,3.834 5.238,4.466 5.569,5.105 5.892,5.748 5.577,5.101 5.253,4.458 4.918,3.822 4.571,3.193 4.262,2.54 3.803,1.974 3.265,1.479 2.609,1.16 1.977,0.82 1.326,0.496 0.703,0.182 0,-0.088 c -0.021,-0.008 -0.045,0.002 -0.053,0.024 -0.009,0.021 0.002,0.044 0.023,0.052 z"
         style="fill:#050606;fill-opacity:1;fill-rule:nonzero;stroke:none"
         transform="matrix(1.3333333,0,0,-1.3333333,703.11253,123.11253)"
         clip-path="url(#clipPath486-3)" />
      <path
         id="path487"
         d="M 0,0 C 0.095,0.038 3.213,0.937 4.247,1.53 5.621,2.317 6.426,5.295 6.426,5.295"
         style="fill:#ffffff;fill-opacity:1;fill-rule:nonzero;stroke:none"
         transform="matrix(1.3333333,0,0,-1.3333333,703.28053,123.95893)"
         clip-path="url(#clipPath488-0)" />
      <path
         id="path489"
         d="M 0,0 C 0.722,0.217 1.431,0.432 2.14,0.668 2.843,0.911 3.556,1.146 4.215,1.488 4.859,1.865 5.278,2.525 5.621,3.176 5.964,3.838 6.229,4.539 6.442,5.254 6.236,4.537 5.978,3.833 5.641,3.167 5.302,2.51 4.891,1.842 4.236,1.45 3.573,1.097 2.863,0.856 2.16,0.606 1.456,0.363 0.738,0.138 0.033,-0.082 L 0.026,-0.084 C 0.003,-0.091 -0.021,-0.079 -0.029,-0.055 -0.036,-0.032 -0.023,-0.007 0,0 Z"
         style="fill:#050606;fill-opacity:1;fill-rule:nonzero;stroke:none"
         transform="matrix(1.3333333,0,0,-1.3333333,703.2584,123.90427)"
         clip-path="url(#clipPath490-1)" />
      <path
         id="path491"
         d="M 0,0 C -0.076,-0.302 -1.396,-3.565 -1.66,-3.772"
         style="fill:#ffffff;fill-opacity:1;fill-rule:nonzero;stroke:none"
         transform="matrix(1.3333333,0,0,-1.3333333,713.1816,116.57227)"
         clip-path="url(#clipPath492-0)" />
      <path
         id="path493"
         d="m 0,0 c -0.233,-0.658 -0.509,-1.283 -0.78,-1.918 l -0.425,-0.941 c -0.155,-0.307 -0.281,-0.634 -0.497,-0.903 0.209,0.273 0.329,0.603 0.476,0.912 l 0.405,0.95 c 0.257,0.635 0.522,1.278 0.736,1.921 l 0.002,0.008 C -0.075,0.052 -0.05,0.064 -0.027,0.057 -0.004,0.049 0.008,0.024 0.001,0.001 0.001,0.001 0,0 0,0"
         style="fill:#050606;fill-opacity:1;fill-rule:nonzero;stroke:none"
         transform="matrix(1.3333333,0,0,-1.3333333,713.2376,116.58653)"
         clip-path="url(#clipPath494-3)" />
      <path
         id="path495"
         d="m 0,0 c 0,0 -0.035,-0.18 -0.45,-0.171 -0.172,0.003 -0.595,0.301 -0.595,0.301 0,0 -0.226,-0.845 -0.314,-1.118 -0.086,-0.264 -0.384,-1.032 -0.384,-1.032 0,0 0.038,-0.83 0.34,-1.038 0.301,-0.207 0.547,-0.245 0.547,-0.245 l 0.629,1.176"
         style="fill:#ffffff;fill-opacity:1;fill-rule:nonzero;stroke:none"
         transform="matrix(1.3333333,0,0,-1.3333333,703.58267,121.1224)"
         clip-path="url(#clipPath496-3)" />
      <path
         id="path497"
         d="M 0,0 C -0.033,-0.098 -0.142,-0.142 -0.234,-0.163 -0.333,-0.18 -0.432,-0.198 -0.534,-0.171 -0.727,-0.109 -0.894,0 -1.06,0.11 l 0.039,0.014 -0.296,-1.094 -0.386,-1.065 0.003,0.017 c 0.017,-0.28 0.054,-0.57 0.171,-0.823 0.112,-0.249 0.423,-0.362 0.676,-0.435 l -0.027,-0.014 0.653,1.163 -0.606,-1.188 c -0.005,-0.011 -0.017,-0.016 -0.027,-0.014 -0.148,0.028 -0.283,0.085 -0.411,0.154 -0.125,0.062 -0.262,0.162 -0.32,0.303 -0.129,0.269 -0.17,0.56 -0.194,0.85 l 0.003,0.017 0.397,1.057 0.316,1.085 c 0.004,0.013 0.018,0.021 0.031,0.017 L -1.03,0.151 c 0.161,-0.109 0.326,-0.222 0.506,-0.292 0.087,-0.03 0.192,-0.019 0.286,-0.006 0.092,0.016 0.2,0.052 0.238,0.147"
         style="fill:#050606;fill-opacity:1;fill-rule:nonzero;stroke:none"
         transform="matrix(1.3333333,0,0,-1.3333333,703.58267,121.1224)"
         clip-path="url(#clipPath498-0)" />
      <path
         id="path499"
         d="m 0,0 c -0.057,-0.038 -0.414,-0.853 -0.414,-0.91 0,-0.056 -0.051,-0.626 -0.051,-0.682 0,-0.057 0.397,-0.321 0.83,-0.415 0.435,-0.095 0.737,0.245 0.737,0.245 l 0.124,0.966"
         style="fill:#ffffff;fill-opacity:1;fill-rule:nonzero;stroke:none"
         transform="matrix(1.3333333,0,0,-1.3333333,700.998,124.10733)"
         clip-path="url(#clipPath500-0)" />
      <path
         id="path501"
         d="m 0,0 c -0.142,-0.248 -0.232,-0.523 -0.343,-0.785 -0.081,-0.238 -0.062,-0.592 -0.076,-0.811 0.204,-0.169 0.481,-0.285 0.746,-0.362 0.266,-0.085 0.561,0.019 0.755,0.214 L 1.075,-1.758 c 0.042,0.321 0.097,0.641 0.152,0.962 C 1.198,-1.12 1.17,-1.443 1.129,-1.766 L 1.122,-1.78 c -0.2,-0.216 -0.519,-0.338 -0.813,-0.253 -0.286,0.071 -0.555,0.181 -0.785,0.387 -0.044,0.184 0.009,0.297 0.009,0.449 0.02,0.135 0.005,0.3 0.075,0.431 C -0.278,-0.502 -0.16,-0.238 0,0"
         style="fill:#050606;fill-opacity:1;fill-rule:nonzero;stroke:none"
         transform="matrix(1.3333333,0,0,-1.3333333,700.99667,124.10733)"
         clip-path="url(#clipPath502-2)" />
      <path
         id="path503"
         d="M 0,0 C 0.169,-0.096 1.372,-0.659 1.466,-1.149 1.561,-1.64 1.579,-3.017 1.692,-3.262 1.806,-3.507 2.938,-5.752 3.504,-6.073"
         style="fill:#ffffff;fill-opacity:1;fill-rule:nonzero;stroke:none"
         transform="matrix(1.3333333,0,0,-1.3333333,703.02667,126.7356)"
         clip-path="url(#clipPath504-9)" />
      <path
         id="path505"
         d="M 0,0 C 0.526,-0.293 1.152,-0.529 1.468,-1.094 1.591,-1.708 1.58,-2.326 1.66,-2.936 1.67,-3.247 1.859,-3.495 1.993,-3.775 L 2.441,-4.582 C 2.752,-5.105 3.027,-5.681 3.504,-6.073 3.506,-6.074 3.507,-6.076 3.506,-6.079 3.505,-6.081 3.502,-6.081 3.499,-6.081 3,-5.704 2.7,-5.139 2.365,-4.625 l -0.442,0.813 c -0.128,0.271 -0.325,0.546 -0.332,0.868 -0.071,0.613 -0.054,1.24 -0.164,1.836 -0.285,0.537 -0.912,0.802 -1.432,1.101 -0.002,0.001 -0.003,0.004 -0.001,0.006 C -0.005,0 -0.002,0.001 0,0"
         style="fill:#050606;fill-opacity:1;fill-rule:nonzero;stroke:none"
         transform="matrix(1.3333333,0,0,-1.3333333,703.0292,126.7304)"
         clip-path="url(#clipPath506-9)" />
      <path
         id="path507"
         d="m 0,0 c 0.151,-0.208 0.634,-1.823 1.181,-3.068 0.547,-1.245 1.278,-3 0.811,-3.547"
         style="fill:#ffffff;fill-opacity:1;fill-rule:nonzero;stroke:none"
         transform="matrix(1.3333333,0,0,-1.3333333,705.04227,126.01293)"
         clip-path="url(#clipPath508-0)" />
      <path
         id="path509"
         d="M 0,0 C 0.259,-0.529 0.423,-1.094 0.638,-1.639 0.841,-2.188 1.057,-2.732 1.3,-3.265 1.535,-3.802 1.764,-4.344 1.946,-4.904 2.03,-5.186 2.101,-5.474 2.136,-5.767 2.168,-6.053 2.178,-6.379 1.991,-6.62 1.989,-6.622 1.987,-6.622 1.985,-6.621 1.983,-6.619 1.983,-6.616 1.984,-6.614 2.155,-6.371 2.132,-6.055 2.087,-5.774 2.04,-5.487 1.956,-5.206 1.862,-4.93 1.687,-4.374 1.465,-3.832 1.235,-3.293 1,-2.756 0.792,-2.206 0.597,-1.654 0.393,-1.105 0.238,-0.534 -0.007,-0.005 -0.009,-0.003 -0.009,0 -0.007,0.001 -0.005,0.003 -0.002,0.002 0,0"
         style="fill:#050606;fill-opacity:1;fill-rule:nonzero;stroke:none"
         transform="matrix(1.3333333,0,0,-1.3333333,705.04747,126.00973)"
         clip-path="url(#clipPath510-3)" />
      <path
         id="path511"
         d="m 0,0 c 0,-0.057 0.649,-2.531 0.649,-2.531 0,0 1.084,-3.08 2.088,-3.305"
         style="fill:#ffffff;fill-opacity:1;fill-rule:nonzero;stroke:none"
         transform="matrix(1.3333333,0,0,-1.3333333,702.63213,125.1692)"
         clip-path="url(#clipPath512-0)" />
      <path
         id="path513"
         d="m 0,0 0.673,-2.524 -0.001,0.003 c 0.234,-0.623 0.501,-1.235 0.812,-1.821 0.163,-0.289 0.32,-0.582 0.512,-0.852 0.195,-0.261 0.416,-0.534 0.737,-0.638 0.002,0 0.004,-0.002 0.003,-0.004 0,-0.003 -0.003,-0.004 -0.005,-0.004 -0.331,0.089 -0.57,0.357 -0.781,0.611 -0.206,0.266 -0.386,0.55 -0.54,0.847 -0.307,0.595 -0.57,1.211 -0.794,1.84 L 0.615,-2.539 -0.009,0 C -0.01,0.002 -0.008,0.005 -0.006,0.005 -0.004,0.006 -0.001,0.002 0,0"
         style="fill:#050606;fill-opacity:1;fill-rule:nonzero;stroke:none"
         transform="matrix(1.3333333,0,0,-1.3333333,702.63853,125.1692)"
         clip-path="url(#clipPath514-0)" />
      <path
         id="path515"
         d="M 0,0 V -5.867 C 0,-5.923 0.472,-8.508 0.66,-8.885 0.85,-9.262 0.981,-9.489 1,-9.564 c 0.019,-0.076 0.038,-1.038 0.132,-1.057 0.095,-0.019 0.208,0.095 0.208,0.095 l 0.17,5.508 -0.05,4.755"
         style="fill:#ffffff;fill-opacity:1;fill-rule:nonzero;stroke:none"
         transform="matrix(1.3333333,0,0,-1.3333333,700.37813,126.2304)"
         clip-path="url(#clipPath516-9)" />
      <path
         id="path517"
         d="m 0,0 0.039,-5.514 c -0.04,-0.465 0.115,-0.895 0.182,-1.354 0.087,-0.451 0.177,-0.901 0.281,-1.348 0.055,-0.221 0.104,-0.45 0.188,-0.653 L 1,-9.493 c 0.077,-0.228 0.042,-0.459 0.074,-0.687 0.029,-0.208 0.006,-0.571 0.237,-0.322 l -0.01,-0.023 0.171,5.129 C 1.496,-4.541 1.468,-3.685 1.469,-2.83 L 1.45,-0.263 c 0,0.002 0.002,0.004 0.004,0.004 0.003,0 0.005,-0.002 0.005,-0.004 L 1.494,-2.83 c 0.005,-0.855 0.039,-1.711 0.021,-2.566 l -0.146,-5.131 c 0,-0.009 -0.005,-0.018 -0.01,-0.024 -0.047,-0.043 -0.094,-0.079 -0.16,-0.099 -0.036,-10e-4 -0.063,-0.031 -0.118,0.025 -0.019,0.034 -0.025,0.063 -0.033,0.093 -0.025,0.116 -0.034,0.231 -0.045,0.346 -0.032,0.224 -10e-4,0.474 -0.074,0.674 l -0.307,0.609 c -0.092,0.222 -0.139,0.445 -0.196,0.669 -0.106,0.448 -0.198,0.899 -0.287,1.35 -0.066,0.446 -0.226,0.908 -0.187,1.37 L -0.009,0 c 0,0.002 0.002,0.004 0.004,0.004 C -0.002,0.004 0,0.002 0,0"
         style="fill:#050606;fill-opacity:1;fill-rule:nonzero;stroke:none"
         transform="matrix(1.3333333,0,0,-1.3333333,700.38467,126.2304)"
         clip-path="url(#clipPath518-9)" />
      <path
         id="path519"
         d="m 0,0 c 0.993,3.772 2.182,13.119 2.182,13.119 l 0.592,0.08 C 4.233,10.004 6.405,7.686 7.161,5.781 8.751,1.776 9.428,-3.75 9.481,-3.896 L 9.906,-5.707 C 9.732,-5.784 9.187,-6.858 9.206,-7.421 7.027,-7.421 2.322,-7.037 1.36,-6.754 1.212,-6.405 1.067,-6.037 0.926,-5.652 0.688,-5.011 0.413,-4.187 0.257,-3.459 -0.168,-2.17 -0.165,-0.627 0,0"
         style="fill:#ffffff;fill-opacity:1;fill-rule:nonzero;stroke:#050606;stroke-width:0.088;stroke-linecap:round;stroke-linejoin:round;stroke-miterlimit:10;stroke-dasharray:none;stroke-opacity:1"
         transform="matrix(1.3333333,0,0,-1.3333333,688.08,116.1184)"
         clip-path="url(#clipPath520-1)" />
      <path
         id="path521"
         d="M 0,0 C -0.282,0.358 -3.237,4.853 -3.237,4.853"
         style="fill:#ffffff;fill-opacity:1;fill-rule:nonzero;stroke:none"
         transform="matrix(1.3333333,0,0,-1.3333333,700.86387,121.9192)"
         clip-path="url(#clipPath522-4)" />
      <path
         id="path523"
         d="M 0,0 -3.203,4.88 0.069,0.055 0.073,0.049 C 0.087,0.029 0.081,0.001 0.062,-0.012 0.041,-0.026 0.014,-0.021 0,0 Z"
         style="fill:#050606;fill-opacity:1;fill-rule:nonzero;stroke:none"
         transform="matrix(1.3333333,0,0,-1.3333333,700.81827,121.95573)"
         clip-path="url(#clipPath524-8)" />
      <path
         id="path525"
         d="M 0,0 C 0,0 -1.177,0.396 -1.629,0.811 -2.082,1.226 -4.478,5.395 -4.478,5.395"
         style="fill:#ffffff;fill-opacity:1;fill-rule:nonzero;stroke:none"
         transform="matrix(1.3333333,0,0,-1.3333333,701.0084,122.5332)"
         clip-path="url(#clipPath526-1)" />
      <path
         id="path527"
         d="M 0,0 C -0.564,0.213 -1.139,0.427 -1.62,0.814 -2.027,1.278 -2.311,1.808 -2.636,2.316 -3.263,3.347 -3.866,4.39 -4.463,5.437 -3.854,4.397 -3.237,3.361 -2.599,2.34 -2.271,1.839 -1.97,1.301 -1.576,0.864 -1.11,0.498 -0.53,0.286 0.028,0.083 0.052,0.076 0.065,0.052 0.059,0.028 0.052,0.005 0.026,-0.008 0.004,-0.001 0.003,-0.001 0.001,0 0,0"
         style="fill:#050606;fill-opacity:1;fill-rule:nonzero;stroke:none"
         transform="matrix(1.3333333,0,0,-1.3333333,700.9888,122.58853)"
         clip-path="url(#clipPath528-08)" />
      <path
         id="path529"
         d="M 0,0 C -0.076,0 -3.187,1.205 -3.681,1.717 -4.41,2.471 -5.903,5.841 -5.903,5.841"
         style="fill:#ffffff;fill-opacity:1;fill-rule:nonzero;stroke:none"
         transform="matrix(1.3333333,0,0,-1.3333333,701.17373,123.2376)"
         clip-path="url(#clipPath530-0)" />
      <path
         id="path531"
         d="M 0,0 C -0.721,0.249 -1.371,0.536 -2.047,0.833 -2.381,0.983 -2.712,1.14 -3.036,1.312 -3.352,1.483 -3.699,1.667 -3.896,1.988 -4.317,2.59 -4.646,3.247 -4.975,3.898 -5.3,4.554 -5.608,5.217 -5.903,5.885 -5.601,5.22 -5.285,4.561 -4.953,3.909 -4.618,3.262 -4.282,2.608 -3.857,2.017 -3.66,1.703 -3.329,1.535 -3.009,1.363 -2.686,1.195 -2.354,1.042 -2.02,0.895 -1.356,0.607 -0.66,0.319 0,0.088 L 0.027,0.079 C 0.049,0.071 0.06,0.047 0.053,0.026 0.045,0.004 0.021,-0.007 0,0"
         style="fill:#050606;fill-opacity:1;fill-rule:nonzero;stroke:none"
         transform="matrix(1.3333333,0,0,-1.3333333,701.17373,123.29613)"
         clip-path="url(#clipPath532-1)" />
      <path
         id="path533"
         d="M 0,0 C 0.052,0.088 -3.297,0.511 -4.417,1.611 -5.024,2.208 -6.379,5.376 -6.379,5.376"
         style="fill:#ffffff;fill-opacity:1;fill-rule:nonzero;stroke:none"
         transform="matrix(1.3333333,0,0,-1.3333333,700.9276,124.06773)"
         clip-path="url(#clipPath534-0)" />
      <path
         id="path535"
         d="m 0,0 c -0.656,0.076 -1.449,0.29 -2.153,0.487 -0.715,0.22 -1.444,0.466 -2.051,0.924 -0.31,0.228 -0.494,0.574 -0.684,0.893 -0.184,0.328 -0.356,0.662 -0.52,1 -0.329,0.675 -0.638,1.36 -0.933,2.05 0.301,-0.687 0.616,-1.37 0.95,-2.041 0.168,-0.336 0.342,-0.669 0.53,-0.994 0.193,-0.318 0.377,-0.656 0.682,-0.875 0.603,-0.446 1.33,-0.684 2.044,-0.895 0.361,-0.103 0.725,-0.192 1.09,-0.273 L -0.494,0.158 -0.219,0.1 -0.08,0.069 -0.01,0.05 C 0.014,0.018 0.036,0.094 0.076,-0.044 0.063,-0.065 0.037,-0.073 0.016,-0.06 -0.005,-0.048 -0.012,-0.021 0,0"
         style="fill:#050606;fill-opacity:1;fill-rule:nonzero;stroke:none"
         transform="matrix(1.3333333,0,0,-1.3333333,700.87693,124.03773)"
         clip-path="url(#clipPath536-4)" />
      <path
         id="path537"
         d="M 0,0 C 0.075,-0.302 1.396,-3.565 1.66,-3.772"
         style="fill:#ffffff;fill-opacity:1;fill-rule:nonzero;stroke:none"
         transform="matrix(1.3333333,0,0,-1.3333333,691.08907,116.57227)"
         clip-path="url(#clipPath538-3)" />
      <path
         id="path539"
         d="M 0,0 C 0.213,-0.644 0.479,-1.286 0.735,-1.922 L 1.14,-2.872 C 1.288,-3.181 1.407,-3.51 1.617,-3.783 1.401,-3.514 1.274,-3.187 1.12,-2.881 l -0.425,0.942 c -0.271,0.635 -0.548,1.259 -0.781,1.918 -0.008,0.022 0.004,0.048 0.026,0.056 0.024,0.008 0.049,-0.004 0.057,-0.027 V 0.007 Z"
         style="fill:#050606;fill-opacity:1;fill-rule:nonzero;stroke:none"
         transform="matrix(1.3333333,0,0,-1.3333333,691.1464,116.55787)"
         clip-path="url(#clipPath540-5)" />
      <path
         id="path541"
         d="m 0,0 -0.38,-1.992 c 0,0 2.78,-0.555 8.226,-0.555"
         style="fill:#ffffff;fill-opacity:1;fill-rule:nonzero;stroke:#050606;stroke-width:0.088;stroke-linecap:round;stroke-linejoin:round;stroke-miterlimit:10;stroke-dasharray:none;stroke-opacity:1"
         transform="matrix(1.3333333,0,0,-1.3333333,689.89373,125.1236)"
         clip-path="url(#clipPath542-3)" />
      <path
         id="path543"
         d="m 0,0 0.406,-1.992 c 0,0 -1.242,-0.555 -6.687,-0.555"
         style="fill:#ffffff;fill-opacity:1;fill-rule:nonzero;stroke:#050606;stroke-width:0.088;stroke-linecap:round;stroke-linejoin:round;stroke-miterlimit:10;stroke-dasharray:none;stroke-opacity:1"
         transform="matrix(1.3333333,0,0,-1.3333333,714.3756,125.1236)"
         clip-path="url(#clipPath544-7)" />
    </g>
  </g>
</svg>
