<?xml version="1.0" encoding="UTF-8" standalone="no"?>
<!-- Created with Inkscape (http://www.inkscape.org/) -->

<svg
   width="178.59375mm"
   height="264.8479mm"
   viewBox="0 0 178.59375 264.8479"
   version="1.1"
   id="svg1"
   xmlns="http://www.w3.org/2000/svg"
   xmlns:svg="http://www.w3.org/2000/svg">
  <defs
     id="defs1">
    <clipPath
       clipPathUnits="userSpaceOnUse"
       id="clipPath1050">
      <path
         d="M 0,1063.397 H 1790.733 V 0 H 0 Z"
         transform="translate(-322.20461,-483.91461)"
         id="path1050" />
    </clipPath>
    <clipPath
       clipPathUnits="userSpaceOnUse"
       id="clipPath1052">
      <path
         d="M 0,1063.397 H 1790.733 V 0 H 0 Z"
         transform="translate(-328.99751,-507.56701)"
         id="path1052" />
    </clipPath>
    <clipPath
       clipPathUnits="userSpaceOnUse"
       id="clipPath1054">
      <path
         d="M 0,1063.397 H 1790.733 V 0 H 0 Z"
         transform="translate(-303.21481,-507.55482)"
         id="path1054" />
    </clipPath>
    <clipPath
       clipPathUnits="userSpaceOnUse"
       id="clipPath1056">
      <path
         d="M 0,1063.397 H 1790.733 V 0 H 0 Z"
         transform="translate(-294.69631,-484.29991)"
         id="path1056" />
    </clipPath>
    <clipPath
       clipPathUnits="userSpaceOnUse"
       id="clipPath1058">
      <path
         d="M 0,1063.397 H 1790.733 V 0 H 0 Z"
         transform="translate(-301.97751,-490.66661)"
         id="path1058" />
    </clipPath>
    <clipPath
       clipPathUnits="userSpaceOnUse"
       id="clipPath1060">
      <path
         d="M 0,1063.397 H 1790.733 V 0 H 0 Z"
         transform="translate(-298.53511,-491.25691)"
         id="path1060" />
    </clipPath>
    <clipPath
       clipPathUnits="userSpaceOnUse"
       id="clipPath1062">
      <path
         d="M 0,1063.397 H 1790.733 V 0 H 0 Z"
         transform="translate(-323.14401,-483.84731)"
         id="path1062" />
    </clipPath>
    <clipPath
       clipPathUnits="userSpaceOnUse"
       id="clipPath1064">
      <path
         d="M 0,1063.397 H 1790.733 V 0 H 0 Z"
         transform="translate(-322.08741,-483.94391)"
         id="path1064" />
    </clipPath>
    <clipPath
       clipPathUnits="userSpaceOnUse"
       id="clipPath1066">
      <path
         d="M 0,1063.397 H 1790.733 V 0 H 0 Z"
         transform="translate(-322.07471,-483.54161)"
         id="path1066" />
    </clipPath>
    <clipPath
       clipPathUnits="userSpaceOnUse"
       id="clipPath1068">
      <path
         d="M 0,1063.397 H 1790.733 V 0 H 0 Z"
         transform="translate(-310.85251,-483.64221)"
         id="path1068" />
    </clipPath>
    <clipPath
       clipPathUnits="userSpaceOnUse"
       id="clipPath1070">
      <path
         d="M 0,1063.397 H 1790.733 V 0 H 0 Z"
         transform="translate(-310.77241,-483.63101)"
         id="path1070" />
    </clipPath>
    <clipPath
       clipPathUnits="userSpaceOnUse"
       id="clipPath1072">
      <path
         d="M 0,1063.397 H 1790.733 V 0 H 0 Z"
         transform="translate(-305.96971,-492.11781)"
         id="path1072" />
    </clipPath>
    <clipPath
       clipPathUnits="userSpaceOnUse"
       id="clipPath1074">
      <path
         d="M 0,1063.397 H 1790.733 V 0 H 0 Z"
         transform="translate(-305.94531,-492.19491)"
         id="path1074" />
    </clipPath>
    <clipPath
       clipPathUnits="userSpaceOnUse"
       id="clipPath1076">
      <path
         d="M 0,1063.397 H 1790.733 V 0 H 0 Z"
         transform="translate(-329.12111,-507.56701)"
         id="path1076" />
    </clipPath>
    <clipPath
       clipPathUnits="userSpaceOnUse"
       id="clipPath1078">
      <path
         d="M 0,1063.397 H 1790.733 V 0 H 0 Z"
         transform="translate(-337.63621,-484.29991)"
         id="path1078" />
    </clipPath>
    <clipPath
       clipPathUnits="userSpaceOnUse"
       id="clipPath1080">
      <path
         d="M 0,1063.397 H 1790.733 V 0 H 0 Z"
         transform="translate(-330.35491,-490.66661)"
         id="path1080" />
    </clipPath>
    <clipPath
       clipPathUnits="userSpaceOnUse"
       id="clipPath1082">
      <path
         d="M 0,1063.397 H 1790.733 V 0 H 0 Z"
         transform="translate(-333.79731,-491.25691)"
         id="path1082" />
    </clipPath>
    <clipPath
       clipPathUnits="userSpaceOnUse"
       id="clipPath1084">
      <path
         d="M 0,1063.397 H 1790.733 V 0 H 0 Z"
         transform="translate(-327.10401,-491.95181)"
         id="path1084" />
    </clipPath>
    <clipPath
       clipPathUnits="userSpaceOnUse"
       id="clipPath1086">
      <path
         d="M 0,1063.397 H 1790.733 V 0 H 0 Z"
         transform="translate(-327.07961,-491.87461)"
         id="path1086" />
    </clipPath>
    <clipPath
       clipPathUnits="userSpaceOnUse"
       id="clipPath1088">
      <path
         d="M 0,1063.397 H 1790.733 V 0 H 0 Z"
         transform="translate(-321.00491,-485.44251)"
         id="path1088" />
    </clipPath>
    <clipPath
       clipPathUnits="userSpaceOnUse"
       id="clipPath1090">
      <path
         d="M 0,1063.397 H 1790.733 V 0 H 0 Z"
         transform="translate(-320.92481,-485.45421)"
         id="path1090" />
    </clipPath>
    <clipPath
       clipPathUnits="userSpaceOnUse"
       id="clipPath1697">
      <path
         d="M 0,1063.397 H 1790.733 V 0 H 0 Z"
         transform="translate(-303.21191,-507.56701)"
         id="path1697" />
    </clipPath>
    <clipPath
       clipPathUnits="userSpaceOnUse"
       id="clipPath1699">
      <path
         d="M 0,1063.397 H 1790.733 V 0 H 0 Z"
         transform="translate(-305.71581,-491.95181)"
         id="path1699" />
    </clipPath>
    <clipPath
       clipPathUnits="userSpaceOnUse"
       id="clipPath1701">
      <path
         d="M 0,1063.397 H 1790.733 V 0 H 0 Z"
         transform="translate(-305.69141,-492.02891)"
         id="path1701" />
    </clipPath>
  </defs>
  <g
     id="layer1">
    <g
       id="g1939"
       transform="matrix(1.3096453,0,0,1.3712073,-460.38583,-988.09613)">
      <path
         id="path1049"
         d="M 0,0 C 0,0 -0.894,-0.066 2.013,0.102 2.917,2.101 4.699,5.492 5.154,9.333 5.419,11.57 6.678,20.396 6.79,23.64"
         style="fill:#ffffff;fill-opacity:1;fill-rule:nonzero;stroke:#231f20;stroke-width:0.232;stroke-linecap:round;stroke-linejoin:round;stroke-miterlimit:10;stroke-dasharray:none;stroke-opacity:1"
         transform="matrix(1.3333333,0,0,-1.3333333,429.60613,772.6472)"
         clip-path="url(#clipPath1050)" />
      <path
         id="path1051"
         d="m 0,0 c -1.302,0.181 -4.165,1.168 -6.513,1.298 -1.699,-5.152 -4.416,-10.762 -6.241,-15.187"
         style="fill:#ffffff;fill-opacity:1;fill-rule:nonzero;stroke:#231f20;stroke-width:0.216;stroke-linecap:round;stroke-linejoin:round;stroke-miterlimit:10;stroke-dasharray:none;stroke-opacity:1"
         transform="matrix(1.3333333,0,0,-1.3333333,438.66333,741.11067)"
         clip-path="url(#clipPath1052)" />
      <path
         id="path1053"
         d="m 0,0 c -1.46,-1.625 -3.507,-3.899 -4.226,-6.564 -0.439,-1.627 -0.644,-1.784 -1.193,-3.58 -0.695,-2.273 -0.9,-3.771 -1.193,-5.314 -0.365,-1.922 -1.007,-4.667 -2.223,-8.081 0.12,-0.175 0.359,-0.471 0.759,-0.705 0.472,-0.276 0.919,-0.318 1.139,-0.325 -0.01,-0.113 -0.019,-0.226 -0.028,-0.339 0.46,0.02 0.84,0.012 1.112,0 1.004,-0.045 1.665,-0.082 1.993,-0.461 0.039,-0.045 0.096,-0.121 0.203,-0.163 0.283,-0.11 0.599,0.144 0.827,0.271 0.441,0.245 0.81,0.158 1.519,0.136 0.582,-0.018 1.468,0.006 2.766,0.203 -0.267,3.667 1.282,5.984 1.015,9.651"
         style="fill:#ffffff;fill-opacity:1;fill-rule:nonzero;stroke:#231f20;stroke-width:0.216;stroke-linecap:round;stroke-linejoin:miter;stroke-miterlimit:10;stroke-dasharray:none;stroke-opacity:1"
         transform="matrix(1.3333333,0,0,-1.3333333,404.2864,741.12693)"
         clip-path="url(#clipPath1054)" />
      <path
         id="path1055"
         d="M 0,0 C 0.121,-0.175 0.36,-0.472 0.759,-0.705 1.231,-0.981 1.679,-1.024 1.898,-1.031 1.889,-1.144 1.88,-1.256 1.871,-1.37 c 0.459,0.021 0.84,0.013 1.112,0 1.004,-0.045 1.665,-0.082 1.993,-0.461 0.039,-0.044 0.096,-0.121 0.203,-0.162 0.283,-0.11 0.599,0.144 0.827,0.271 0.441,0.244 0.81,0.158 1.519,0.136 0.581,-0.018 1.467,0.006 2.766,0.203"
         style="fill:none;stroke:#231f20;stroke-width:0.054;stroke-linecap:round;stroke-linejoin:miter;stroke-miterlimit:10;stroke-dasharray:0.216, 0.216;stroke-dashoffset:0;stroke-opacity:1"
         transform="matrix(1.3333333,0,0,-1.3333333,392.9284,772.13347)"
         clip-path="url(#clipPath1056)" />
      <path
         id="path1057"
         d="m 0,0 -1.954,-8.581 -0.105,0.025 z"
         style="fill:#231f20;fill-opacity:1;fill-rule:nonzero;stroke:none"
         transform="matrix(1.3333333,0,0,-1.3333333,402.63667,763.64453)"
         clip-path="url(#clipPath1058)" />
      <path
         id="path1059"
         d="m 0,0 -1.954,-8.581 -0.105,0.025 z"
         style="fill:#231f20;fill-opacity:1;fill-rule:nonzero;stroke:none"
         transform="matrix(1.3333333,0,0,-1.3333333,398.0468,762.85747)"
         clip-path="url(#clipPath1060)" />
      <path
         id="path1061"
         d="m 0,0 c 0,-0.186 -0.151,-0.337 -0.337,-0.337 -0.186,0 -0.338,0.151 -0.338,0.337 0,0.187 0.152,0.337 0.338,0.337 C -0.151,0.337 0,0.187 0,0"
         style="fill:#050606;fill-opacity:1;fill-rule:nonzero;stroke:#050606;stroke-width:0.108;stroke-linecap:butt;stroke-linejoin:miter;stroke-miterlimit:10;stroke-dasharray:none;stroke-opacity:1"
         transform="matrix(1.3333333,0,0,-1.3333333,430.85867,772.73693)"
         clip-path="url(#clipPath1062)" />
      <path
         id="path1063"
         d="M 0,0 C 0.154,0.036 0.308,0.072 0.461,0.108 0.386,0.005 0.375,-0.052 0.383,-0.167 0.278,-0.2 0.138,-0.232 0.033,-0.265 0.026,-0.174 0.01,-0.093 0,0 Z"
         style="fill:none;stroke:#231f20;stroke-width:0.032;stroke-linecap:butt;stroke-linejoin:miter;stroke-miterlimit:10;stroke-dasharray:none;stroke-opacity:1"
         transform="matrix(1.3333333,0,0,-1.3333333,429.44987,772.60813)"
         clip-path="url(#clipPath1064)" />
      <path
         id="path1065"
         d="M 0,0 C 0.165,0.004 0.368,-0.025 0.533,-0.021 0.493,0.04 0.449,0.1 0.451,0.196 0.338,0.199 0.148,0.202 0.036,0.205 0.024,0.137 0.012,0.068 0,0 Z"
         style="fill:none;stroke:#231f20;stroke-width:0.032;stroke-linecap:butt;stroke-linejoin:miter;stroke-miterlimit:10;stroke-dasharray:none;stroke-opacity:1"
         transform="matrix(1.3333333,0,0,-1.3333333,429.43293,773.14453)"
         clip-path="url(#clipPath1066)" />
      <path
         id="path1067"
         d="M 0,0 C -0.339,2.406 -0.679,4.811 -1.018,7.216"
         style="fill:#ffffff;fill-opacity:1;fill-rule:nonzero;stroke:none"
         transform="matrix(1.3333333,0,0,-1.3333333,414.47,773.0104)"
         clip-path="url(#clipPath1068)" />
      <path
         id="path1069"
         d="M 0,0 -0.937,7.228 0.16,0.023 Z"
         style="fill:#231f20;fill-opacity:1;fill-rule:nonzero;stroke:none"
         transform="matrix(1.3333333,0,0,-1.3333333,414.3632,773.02533)"
         clip-path="url(#clipPath1070)" />
      <path
         id="path1071"
         d="M 0,0 C 1.046,0.332 1.046,0.332 2.093,0.664"
         style="fill:#ffffff;fill-opacity:1;fill-rule:nonzero;stroke:none"
         transform="matrix(1.3333333,0,0,-1.3333333,407.9596,761.7096)"
         clip-path="url(#clipPath1072)" />
      <path
         id="path1073"
         d="M 0,0 2.117,0.586 0.049,-0.154 Z"
         style="fill:#231f20;fill-opacity:1;fill-rule:nonzero;stroke:none"
         transform="matrix(1.3333333,0,0,-1.3333333,407.92707,761.6068)"
         clip-path="url(#clipPath1074)" />
      <path
         id="path1075"
         d="m 0,0 c 1.46,-1.625 3.187,-3.911 3.906,-6.577 0.438,-1.626 0.644,-1.783 1.193,-3.579 0.695,-2.274 0.9,-3.771 1.193,-5.315 0.364,-1.921 1.007,-4.667 2.223,-8.08 -0.12,-0.175 -0.36,-0.471 -0.759,-0.705 -0.472,-0.276 -0.919,-0.319 -1.139,-0.326 0.009,-0.112 0.018,-0.225 0.028,-0.338 -0.46,0.02 -0.841,0.012 -1.112,0 -1.005,-0.045 -1.665,-0.082 -1.993,-0.461 -0.039,-0.045 -0.096,-0.121 -0.204,-0.163 -0.283,-0.11 -0.598,0.144 -0.827,0.271 -0.44,0.245 -0.81,0.158 -1.518,0.136 -0.582,-0.018 -1.468,0.006 -2.766,0.203 0.267,3.667 -0.254,6.948 0.013,10.615"
         style="fill:#ffffff;fill-opacity:1;fill-rule:nonzero;stroke:#231f20;stroke-width:0.216;stroke-linecap:round;stroke-linejoin:miter;stroke-miterlimit:10;stroke-dasharray:none;stroke-opacity:1"
         transform="matrix(1.3333333,0,0,-1.3333333,438.82813,741.11067)"
         clip-path="url(#clipPath1076)" />
      <path
         id="path1077"
         d="m 0,0 c -0.121,-0.175 -0.36,-0.472 -0.759,-0.705 -0.472,-0.276 -0.919,-0.319 -1.139,-0.326 0.009,-0.113 0.018,-0.225 0.027,-0.339 -0.459,0.021 -0.84,0.013 -1.111,0 -1.005,-0.045 -1.665,-0.082 -1.994,-0.461 -0.038,-0.044 -0.095,-0.121 -0.203,-0.162 -0.283,-0.11 -0.598,0.144 -0.827,0.271 -0.44,0.244 -0.81,0.158 -1.518,0.136 -0.582,-0.018 -1.468,0.006 -2.766,0.203"
         style="fill:none;stroke:#231f20;stroke-width:0.054;stroke-linecap:round;stroke-linejoin:miter;stroke-miterlimit:10;stroke-dasharray:0.216, 0.216;stroke-dashoffset:0;stroke-opacity:1"
         transform="matrix(1.3333333,0,0,-1.3333333,450.1816,772.13347)"
         clip-path="url(#clipPath1078)" />
      <path
         id="path1079"
         d="M 0,0 2.06,-8.556 1.954,-8.581 Z"
         style="fill:#231f20;fill-opacity:1;fill-rule:nonzero;stroke:none"
         transform="matrix(1.3333333,0,0,-1.3333333,440.4732,763.64453)"
         clip-path="url(#clipPath1080)" />
      <path
         id="path1081"
         d="M 0,0 2.059,-8.556 1.954,-8.581 Z"
         style="fill:#231f20;fill-opacity:1;fill-rule:nonzero;stroke:none"
         transform="matrix(1.3333333,0,0,-1.3333333,445.06307,762.85747)"
         clip-path="url(#clipPath1082)" />
      <path
         id="path1083"
         d="M 0,0 C -1.046,0.332 -2.093,0.664 -3.139,0.996"
         style="fill:#ffffff;fill-opacity:1;fill-rule:nonzero;stroke:none"
         transform="matrix(1.3333333,0,0,-1.3333333,436.13867,761.93093)"
         clip-path="url(#clipPath1084)" />
      <path
         id="path1085"
         d="M 0,0 -3.114,1.073 0.049,0.154 Z"
         style="fill:#231f20;fill-opacity:1;fill-rule:nonzero;stroke:none"
         transform="matrix(1.3333333,0,0,-1.3333333,436.10613,762.03387)"
         clip-path="url(#clipPath1086)" />
      <path
         id="path1087"
         d="M 0,0 C 0.339,2.406 0.439,3.115 0.778,5.52"
         style="fill:#ffffff;fill-opacity:1;fill-rule:nonzero;stroke:none"
         transform="matrix(1.3333333,0,0,-1.3333333,428.00653,770.61)"
         clip-path="url(#clipPath1088)" />
      <path
         id="path1089"
         d="M 0,0 0.858,5.508 0.16,-0.023 Z"
         style="fill:#231f20;fill-opacity:1;fill-rule:nonzero;stroke:none"
         transform="matrix(1.3333333,0,0,-1.3333333,427.89973,770.5944)"
         clip-path="url(#clipPath1090)" />
      <path
         id="path1696"
         d="m 0,0 c 1.42,0.38 3.812,1.432 6.16,1.562 1.699,-5.152 3.462,-7.606 5.288,-12.031 1.612,-3.906 3.153,-6.155 4.065,-7.725 1.339,-2.306 2.36,-4.207 3.364,-5.574 -2.674,-0.217 -5.615,-0.327 -8.785,-0.277 -2.753,0.043 -4.532,0.326 -7.054,0.494 -0.786,1.999 -0.17,4.426 -0.565,8.268 -0.698,1.394 -1.905,6.424 -2.47,15.271"
         style="fill:#ffffff;fill-opacity:1;fill-rule:nonzero;stroke:#231f20;stroke-width:0.216;stroke-linecap:round;stroke-linejoin:round;stroke-miterlimit:10;stroke-dasharray:none;stroke-opacity:1"
         transform="matrix(1.3333333,0,0,-1.3333333,404.28253,741.11067)"
         clip-path="url(#clipPath1697)" />
      <path
         id="path1698"
         d="M 0,0 C 1.046,0.332 2.093,0.664 3.139,0.996"
         style="fill:#ffffff;fill-opacity:1;fill-rule:nonzero;stroke:none"
         transform="matrix(1.3333333,0,0,-1.3333333,407.62107,761.93093)"
         clip-path="url(#clipPath1699)" />
      <path
         id="path1700"
         d="M 0,0 3.164,0.918 0.049,-0.154 Z"
         style="fill:#231f20;fill-opacity:1;fill-rule:nonzero;stroke:none"
         transform="matrix(1.3333333,0,0,-1.3333333,407.58853,761.82813)"
         clip-path="url(#clipPath1701)" />
    </g>
  </g>
</svg>
