<?xml version="1.0" encoding="UTF-8" standalone="no"?>
<!-- Created with Inkscape (http://www.inkscape.org/) -->

<svg
   width="178.59375mm"
   height="264.8479mm"
   viewBox="0 0 178.59375 264.8479"
   version="1.1"
   id="svg1"
   xmlns="http://www.w3.org/2000/svg"
   xmlns:svg="http://www.w3.org/2000/svg">
  <defs
     id="defs1">
    <clipPath
       clipPathUnits="userSpaceOnUse"
       id="clipPath347">
      <path
         d="M 0,1063.397 H 1790.733 V 0 H 0 Z"
         transform="translate(-323.88081,-803.30532)"
         id="path347" />
    </clipPath>
    <clipPath
       clipPathUnits="userSpaceOnUse"
       id="clipPath349">
      <path
         d="M 0,1063.397 H 1790.733 V 0 H 0 Z"
         transform="translate(-328.07711,-816.97282)"
         id="path349" />
    </clipPath>
  </defs>
  <g
     id="layer1">
    <g
       id="g1927"
       transform="matrix(1.3096453,0,0,1.3712033,-460.2741,-405.82942)">
      <path
         id="path346"
         d="m 0,0 h 0.485 c -0.118,0.887 2.483,8.792 2.653,9.23 0.189,0.485 1.036,4.437 1.036,4.437 -4.177,0 -8.57,-0.345 -12.748,-0.345 -4.322,0 -8.646,0.345 -12.969,0.345 0,0 0.848,-3.952 1.037,-4.437 0.17,-0.438 3.2,-8.343 3.083,-9.23 h 0.055 L -7.99,-0.634 0.326,0"
         style="fill:#ffffff;fill-opacity:1;fill-rule:nonzero;stroke:#050606;stroke-width:0.129;stroke-linecap:round;stroke-linejoin:round;stroke-miterlimit:10;stroke-dasharray:none;stroke-opacity:1"
         transform="matrix(1.3333333,0,0,-1.3333333,431.84107,346.79293)"
         clip-path="url(#clipPath347)" />
      <path
         id="path348"
         d="m 0,0 1.1,3.315 c 0,0 -10.235,-0.518 -13.647,-0.518 -3.498,0 -13.992,0.518 -13.992,0.518 L -25.653,0"
         style="fill:#ffffff;fill-opacity:1;fill-rule:nonzero;stroke:#050606;stroke-width:0.129;stroke-linecap:round;stroke-linejoin:round;stroke-miterlimit:10;stroke-dasharray:none;stroke-opacity:1"
         transform="matrix(1.3333333,0,0,-1.3333333,437.43613,328.5696)"
         clip-path="url(#clipPath349)" />
    </g>
  </g>
</svg>
