<?xml version="1.0" encoding="UTF-8" standalone="no"?>
<!-- Created with Inkscape (http://www.inkscape.org/) -->

<svg
   width="178.59375mm"
   height="264.8479mm"
   viewBox="0 0 178.59375 264.8479"
   version="1.1"
   id="svg1"
   xmlns="http://www.w3.org/2000/svg"
   xmlns:svg="http://www.w3.org/2000/svg">
  <defs
     id="defs1">
    <clipPath
       clipPathUnits="userSpaceOnUse"
       id="clipPath1172">
      <path
         d="M 0,1063.397 H 1790.733 V 0 H 0 Z"
         transform="translate(-320.38281,-348.77791)"
         id="path1172" />
    </clipPath>
    <clipPath
       clipPathUnits="userSpaceOnUse"
       id="clipPath1174">
      <path
         d="M 0,1063.397 H 1790.733 V 0 H 0 Z"
         transform="translate(-319.24221,-351.28521)"
         id="path1174" />
    </clipPath>
    <clipPath
       clipPathUnits="userSpaceOnUse"
       id="clipPath1176">
      <path
         d="M 0,1063.397 H 1790.733 V 0 H 0 Z"
         transform="translate(-320.38281,-348.77791)"
         id="path1176" />
    </clipPath>
    <clipPath
       clipPathUnits="userSpaceOnUse"
       id="clipPath1178">
      <path
         d="M 0,1063.397 H 1790.733 V 0 H 0 Z"
         transform="translate(-306.33441,-325.81601)"
         id="path1178" />
    </clipPath>
    <clipPath
       clipPathUnits="userSpaceOnUse"
       id="clipPath1180">
      <path
         d="M 0,1063.397 H 1790.733 V 0 H 0 Z"
         transform="translate(-311.24311,-348.77791)"
         id="path1180" />
    </clipPath>
    <clipPath
       clipPathUnits="userSpaceOnUse"
       id="clipPath1182">
      <path
         d="M 0,1063.397 H 1790.733 V 0 H 0 Z"
         transform="translate(-320.38281,-348.77791)"
         id="path1182" />
    </clipPath>
    <clipPath
       clipPathUnits="userSpaceOnUse"
       id="clipPath1184">
      <path
         d="M 0,1063.397 H 1790.733 V 0 H 0 Z"
         transform="translate(-308.90181,-335.98351)"
         id="path1184" />
    </clipPath>
    <clipPath
       clipPathUnits="userSpaceOnUse"
       id="clipPath1186">
      <path
         d="M 0,1063.397 H 1790.733 V 0 H 0 Z"
         transform="translate(-322.88421,-335.95031)"
         id="path1186" />
    </clipPath>
    <clipPath
       clipPathUnits="userSpaceOnUse"
       id="clipPath1188">
      <path
         d="M 0,1063.397 H 1790.733 V 0 H 0 Z"
         transform="translate(-327.82811,-328.93421)"
         id="path1188" />
    </clipPath>
    <clipPath
       clipPathUnits="userSpaceOnUse"
       id="clipPath1190">
      <path
         d="M 0,1063.397 H 1790.733 V 0 H 0 Z"
         transform="translate(-307.00341,-324.20521)"
         id="path1190" />
    </clipPath>
    <clipPath
       clipPathUnits="userSpaceOnUse"
       id="clipPath1192">
      <path
         d="M 0,1063.397 H 1790.733 V 0 H 0 Z"
         transform="translate(-324.41401,-324.20521)"
         id="path1192" />
    </clipPath>
  </defs>
  <g
     id="layer1">
    <g
       id="g1942"
       transform="matrix(1.3096379,0,0,1.3711985,-460.846,-1281.9831)">
      <path
         id="path1171"
         d="m 0,0 c -4.061,-3.348 -9.14,0 -9.14,0 0,0 0.723,2.166 0.785,2.482"
         style="fill:#ffffff;fill-opacity:1;fill-rule:nonzero;stroke:#050606;stroke-width:0.187;stroke-linecap:round;stroke-linejoin:round;stroke-miterlimit:10;stroke-dasharray:none;stroke-opacity:1"
         transform="matrix(1.3333333,0,0,-1.3333333,427.17707,952.82947)"
         clip-path="url(#clipPath1172)" />
      <path
         id="path1173"
         d="M 0,0 C -3.222,-2.674 -7.214,-0.038 -7.214,-0.038"
         style="fill:#ffffff;fill-opacity:1;fill-rule:nonzero;stroke:#050606;stroke-width:0.187;stroke-linecap:round;stroke-linejoin:round;stroke-miterlimit:10;stroke-dasharray:none;stroke-opacity:1"
         transform="matrix(1.3333333,0,0,-1.3333333,425.65627,949.4864)"
         clip-path="url(#clipPath1174)" />
      <path
         id="path1175"
         d="M 0,0 C 0,0 -1.098,2.073 -1.125,2.502"
         style="fill:#ffffff;fill-opacity:1;fill-rule:nonzero;stroke:#050606;stroke-width:0.187;stroke-linecap:round;stroke-linejoin:round;stroke-miterlimit:10;stroke-dasharray:none;stroke-opacity:1"
         transform="matrix(1.3333333,0,0,-1.3333333,427.17707,952.82947)"
         clip-path="url(#clipPath1176)" />
      <path
         id="path1177"
         d="M 0,0 C 6.983,-0.925 18.776,0 18.776,0"
         style="fill:#ffffff;fill-opacity:1;fill-rule:nonzero;stroke:#050606;stroke-width:0.281;stroke-linecap:round;stroke-linejoin:round;stroke-miterlimit:10;stroke-dasharray:none;stroke-opacity:1"
         transform="matrix(1.3333333,0,0,-1.3333333,408.44587,983.44533)"
         clip-path="url(#clipPath1178)" />
      <path
         id="path1179"
         d="m 0,0 c 0,0 -5.94,-15.295 -6.349,-16.574 l 1.44,-6.388"
         style="fill:#ffffff;fill-opacity:1;fill-rule:nonzero;stroke:#050606;stroke-width:0.244;stroke-linecap:round;stroke-linejoin:round;stroke-miterlimit:10;stroke-dasharray:none;stroke-opacity:1"
         transform="matrix(1.3333333,0,0,-1.3333333,414.9908,952.82947)"
         clip-path="url(#clipPath1180)" />
      <path
         id="path1181"
         d="m 0,0 c 0,0 2.645,-6.882 3.717,-9.813 2.028,-5.543 2.384,-5.482 2.793,-6.761 l -1.782,-6.388"
         style="fill:#ffffff;fill-opacity:1;fill-rule:nonzero;stroke:#050606;stroke-width:0.244;stroke-linecap:round;stroke-linejoin:round;stroke-miterlimit:10;stroke-dasharray:none;stroke-opacity:1"
         transform="matrix(1.3333333,0,0,-1.3333333,427.17707,952.82947)"
         clip-path="url(#clipPath1182)" />
      <path
         id="path1183"
         d="M 0,0 -2.579,-0.536"
         style="fill:none;stroke:#050606;stroke-width:0.122;stroke-linecap:round;stroke-linejoin:round;stroke-miterlimit:10;stroke-dasharray:none;stroke-opacity:1"
         transform="matrix(1.3333333,0,0,-1.3333333,411.86907,969.88867)"
         clip-path="url(#clipPath1184)" />
      <path
         id="path1185"
         d="M 0,0 2.58,-0.536"
         style="fill:none;stroke:#050606;stroke-width:0.122;stroke-linecap:round;stroke-linejoin:round;stroke-miterlimit:10;stroke-dasharray:none;stroke-opacity:1"
         transform="matrix(1.3333333,0,0,-1.3333333,430.51227,969.93293)"
         clip-path="url(#clipPath1186)" />
      <path
         id="path1187"
         d="M 0,0 C 0,0 0.065,0.07 0.163,0.007"
         style="fill:none;stroke:#231f20;stroke-width:0.035;stroke-linecap:round;stroke-linejoin:miter;stroke-miterlimit:10;stroke-dasharray:none;stroke-opacity:1"
         transform="matrix(1.3333333,0,0,-1.3333333,437.10413,979.28773)"
         clip-path="url(#clipPath1188)" />
      <path
         id="path1189"
         d="M 0,0 H 17.411"
         style="fill:#ffffff;fill-opacity:1;fill-rule:nonzero;stroke:#050606;stroke-width:0.244;stroke-linecap:round;stroke-linejoin:round;stroke-miterlimit:10;stroke-dasharray:none;stroke-opacity:1"
         transform="matrix(1.3333333,0,0,-1.3333333,409.33787,985.59307)"
         clip-path="url(#clipPath1190)" />
      <path
         id="path1191"
         d="m 0,0 0.661,1.426 h -9.353 -9.277 L -17.411,0"
         style="fill:#ffffff;fill-opacity:1;fill-rule:nonzero;stroke:#050606;stroke-width:0.244;stroke-linecap:round;stroke-linejoin:round;stroke-miterlimit:10;stroke-dasharray:none;stroke-opacity:1"
         transform="matrix(1.3333333,0,0,-1.3333333,432.552,985.59307)"
         clip-path="url(#clipPath1192)" />
    </g>
  </g>
</svg>
