<?xml version="1.0" encoding="UTF-8" standalone="no"?>
<!-- Created with Inkscape (http://www.inkscape.org/) -->

<svg
   width="178.59375mm"
   height="264.8479mm"
   viewBox="0 0 178.59375 264.8479"
   version="1.1"
   id="svg1"
   xmlns="http://www.w3.org/2000/svg"
   xmlns:svg="http://www.w3.org/2000/svg">
  <defs
     id="defs1">
    <clipPath
       clipPathUnits="userSpaceOnUse"
       id="clipPath912">
      <path
         d="M 0,1063.397 H 1790.733 V 0 H 0 Z"
         transform="translate(-1172.0514,-818.40152)"
         id="path912" />
    </clipPath>
    <clipPath
       clipPathUnits="userSpaceOnUse"
       id="clipPath914">
      <path
         d="M 0,1063.397 H 1790.733 V 0 H 0 Z"
         transform="translate(-1155.8091,-818.40152)"
         id="path914" />
    </clipPath>
    <clipPath
       clipPathUnits="userSpaceOnUse"
       id="clipPath916">
      <path
         d="M 0,1063.397 H 1790.733 V 0 H 0 Z"
         transform="translate(-1171.6792,-818.40152)"
         id="path916" />
    </clipPath>
    <clipPath
       clipPathUnits="userSpaceOnUse"
       id="clipPath918">
      <path
         d="M 0,1063.397 H 1790.733 V 0 H 0 Z"
         transform="translate(-1171.7749,-826.99082)"
         id="path918" />
    </clipPath>
    <clipPath
       clipPathUnits="userSpaceOnUse"
       id="clipPath920">
      <path
         d="M 0,1063.397 H 1790.733 V 0 H 0 Z"
         transform="translate(-1171.7524,-826.99082)"
         id="path920" />
    </clipPath>
    <clipPath
       clipPathUnits="userSpaceOnUse"
       id="clipPath922">
      <path
         d="M 0,1063.397 H 1790.733 V 0 H 0 Z"
         transform="translate(-1155.9604,-826.99082)"
         id="path922" />
    </clipPath>
    <clipPath
       clipPathUnits="userSpaceOnUse"
       id="clipPath924">
      <path
         d="M 0,1063.397 H 1790.733 V 0 H 0 Z"
         transform="translate(-1155.9829,-826.78722)"
         id="path924" />
    </clipPath>
  </defs>
  <g
     id="layer1">
    <g
       id="g1931"
       transform="matrix(1.3096455,0,0,1.3712033,-1941.047,-405.82942)">
      <path
         id="path911"
         d="m 0,0 3.061,-4.77 c 0,0 -0.647,-2.926 -0.973,-3.887 -0.406,-1.197 -1.984,-4.731 -1.984,-4.731 0,0 -6.758,-0.291 -8.785,-0.291 -1.917,0 -8.644,0.291 -8.644,0.291 0,0 -1.787,3.947 -2.225,5.32 -0.225,0.709 -0.448,2.903 -0.448,2.903 l 3.391,4.889 z"
         style="fill:none;stroke:#050606;stroke-width:0.093;stroke-linecap:butt;stroke-linejoin:miter;stroke-miterlimit:10;stroke-dasharray:none;stroke-opacity:1"
         transform="matrix(1.3333333,0,0,-1.3333333,1562.7351,326.66467)"
         clip-path="url(#clipPath912)" />
      <path
         id="path913"
         d="M 0,0 -0.164,-13.39"
         style="fill:none;stroke:#050606;stroke-width:0.047;stroke-linecap:butt;stroke-linejoin:miter;stroke-miterlimit:10;stroke-dasharray:none;stroke-opacity:1"
         transform="matrix(1.3333333,0,0,-1.3333333,1541.0788,326.66467)"
         clip-path="url(#clipPath914)" />
      <path
         id="path915"
         d="M 0,0 -0.368,-13.39"
         style="fill:none;stroke:#050606;stroke-width:0.047;stroke-linecap:butt;stroke-linejoin:miter;stroke-miterlimit:10;stroke-dasharray:none;stroke-opacity:1"
         transform="matrix(1.3333333,0,0,-1.3333333,1562.2389,326.66467)"
         clip-path="url(#clipPath916)" />
      <path
         id="path917"
         d="M 0,0 C -0.182,0 0.177,-8.632 0.177,-8.632"
         style="fill:none;stroke:#050606;stroke-width:0.043;stroke-linecap:round;stroke-linejoin:round;stroke-miterlimit:10;stroke-dasharray:none;stroke-opacity:1"
         transform="matrix(1.3333333,0,0,-1.3333333,1562.3665,315.21227)"
         clip-path="url(#clipPath918)" />
      <path
         id="path919"
         d="M 0,0 C -0.581,0 -0.073,-8.589 -0.073,-8.589"
         style="fill:none;stroke:#050606;stroke-width:0.042;stroke-linecap:round;stroke-linejoin:round;stroke-miterlimit:10;stroke-dasharray:none;stroke-opacity:1"
         transform="matrix(1.3333333,0,0,-1.3333333,1562.3365,315.21227)"
         clip-path="url(#clipPath920)" />
      <path
         id="path921"
         d="M 0,0 C 0.182,0 -0.177,-8.632 -0.177,-8.632"
         style="fill:none;stroke:#050606;stroke-width:0.043;stroke-linecap:round;stroke-linejoin:round;stroke-miterlimit:10;stroke-dasharray:none;stroke-opacity:1"
         transform="matrix(1.3333333,0,0,-1.3333333,1541.2805,315.21227)"
         clip-path="url(#clipPath922)" />
      <path
         id="path923"
         d="M 0,0 C 0.581,0 0.074,-8.59 0.074,-8.59"
         style="fill:none;stroke:#050606;stroke-width:0.042;stroke-linecap:round;stroke-linejoin:round;stroke-miterlimit:10;stroke-dasharray:none;stroke-opacity:1"
         transform="matrix(1.3333333,0,0,-1.3333333,1541.3105,315.48373)"
         clip-path="url(#clipPath924)" />
    </g>
  </g>
</svg>
