<?xml version="1.0" encoding="UTF-8" standalone="no"?>
<!-- Created with Inkscape (http://www.inkscape.org/) -->

<svg
   width="178.59375mm"
   height="264.8479mm"
   viewBox="0 0 178.59375 264.8479"
   version="1.1"
   id="svg1"
   xmlns="http://www.w3.org/2000/svg"
   xmlns:svg="http://www.w3.org/2000/svg">
  <defs
     id="defs1">
    <clipPath
       clipPathUnits="userSpaceOnUse"
       id="clipPath1629">
      <path
         d="M 0,1063.397 H 1790.733 V 0 H 0 Z"
         transform="translate(-750.03662,-668.40931)"
         id="path1629" />
    </clipPath>
    <clipPath
       clipPathUnits="userSpaceOnUse"
       id="clipPath1631">
      <path
         d="M 0,1063.397 H 1790.733 V 0 H 0 Z"
         transform="translate(-733.00042,-668.31652)"
         id="path1631" />
    </clipPath>
    <clipPath
       clipPathUnits="userSpaceOnUse"
       id="clipPath1633">
      <path
         d="M 0,1063.397 H 1790.733 V 0 H 0 Z"
         transform="translate(-732.11862,-648.31362)"
         id="path1633" />
    </clipPath>
    <clipPath
       clipPathUnits="userSpaceOnUse"
       id="clipPath1635">
      <path
         d="M 0,1063.397 H 1790.733 V 0 H 0 Z"
         transform="translate(-745.50242,-649.06021)"
         id="path1635" />
    </clipPath>
    <clipPath
       clipPathUnits="userSpaceOnUse"
       id="clipPath1637">
      <path
         d="M 0,1063.397 H 1790.733 V 0 H 0 Z"
         transform="translate(-748.33252,-649.03822)"
         id="path1637" />
    </clipPath>
    <clipPath
       clipPathUnits="userSpaceOnUse"
       id="clipPath1639">
      <path
         d="M 0,1063.397 H 1790.733 V 0 H 0 Z"
         transform="translate(-738.05802,-649.03092)"
         id="path1639" />
    </clipPath>
    <clipPath
       clipPathUnits="userSpaceOnUse"
       id="clipPath1641">
      <path
         d="M 0,1063.397 H 1790.733 V 0 H 0 Z"
         transform="translate(-735.14792,-649.03381)"
         id="path1641" />
    </clipPath>
    <clipPath
       clipPathUnits="userSpaceOnUse"
       id="clipPath1643">
      <path
         d="M 0,1063.397 H 1790.733 V 0 H 0 Z"
         transform="translate(-741.31492,-649.03482)"
         id="path1643" />
    </clipPath>
    <clipPath
       clipPathUnits="userSpaceOnUse"
       id="clipPath1645">
      <path
         d="M 0,1063.397 H 1790.733 V 0 H 0 Z"
         transform="translate(-743.35002,-649.03722)"
         id="path1645" />
    </clipPath>
  </defs>
  <g
     id="layer1">
    <g
       id="g1936"
       transform="matrix(1.3096379,0,0,1.3712102,-1203.6763,-694.86232)">
      <path
         id="path1628"
         d="M 0,0 0.702,-8.288 0.931,-8.372 0.223,0.023 C 0.217,0.089 0.17,0.139 0.114,0.139 H 0.108 C 0.044,0.139 -0.006,0.075 0,0 Z"
         style="fill:none;stroke:#1b181a;stroke-width:0.061;stroke-linecap:butt;stroke-linejoin:miter;stroke-miterlimit:10;stroke-dasharray:none;stroke-opacity:1"
         transform="matrix(1.3333333,0,0,-1.3333333,1000.0488,526.65427)"
         clip-path="url(#clipPath1629)" />
      <path
         id="path1630"
         d="m 0,0 c 0.428,0.091 2.388,0.537 3.354,1.209 0.053,0.037 0.125,0.027 0.163,-0.024 0.581,-0.827 6.915,-7.359 17.354,-10.422 1.827,-0.536 -1.689,-10.645 -3.041,-10.645 -1.323,0 -18.269,-0.336 -18.712,0.112 -1.457,1.474 -1.848,2.974 -0.969,7.875 C -0.757,-5.801 -0.12,-0.8 -0.087,-0.1 -0.085,-0.051 -0.05,-0.011 0,0"
         style="fill:#ffffff;fill-opacity:1;fill-rule:nonzero;stroke:#050606;stroke-width:0.127;stroke-linecap:butt;stroke-linejoin:miter;stroke-miterlimit:10;stroke-dasharray:none;stroke-opacity:1"
         transform="matrix(1.3333333,0,0,-1.3333333,977.33387,526.778)"
         clip-path="url(#clipPath1631)" />
      <path
         id="path1632"
         d="M 0,0 0.913,-2.671 H 17.95 l 0.762,2.567"
         style="fill:#ffffff;fill-opacity:1;fill-rule:nonzero;stroke:#050606;stroke-width:0.122;stroke-linecap:butt;stroke-linejoin:miter;stroke-miterlimit:10;stroke-dasharray:none;stroke-opacity:1"
         transform="matrix(1.3333333,0,0,-1.3333333,976.15813,553.44853)"
         clip-path="url(#clipPath1633)" />
      <path
         id="path1634"
         d="M 0,0 C 0.485,0.929 0.943,1.872 1.365,2.831 1.568,3.313 1.757,3.802 1.91,4.303 2.05,4.802 2.185,5.326 2.1,5.847 2.1,5.848 2.101,5.85 2.102,5.851 2.104,5.851 2.105,5.85 2.105,5.848 2.199,5.326 2.072,4.797 1.94,4.293 1.793,3.79 1.61,3.297 1.412,2.811 1.011,1.84 0.538,0.9 0.006,-0.003 0.005,-0.005 0.003,-0.005 0.001,-0.004 0,-0.003 -0.001,-0.001 0,0"
         style="fill:#050606;fill-opacity:1;fill-rule:nonzero;stroke:none"
         transform="matrix(1.3333333,0,0,-1.3333333,994.0032,552.45307)"
         clip-path="url(#clipPath1635)" />
      <path
         id="path1636"
         d="m 0,0 c 0.415,0.442 0.825,0.886 1.223,1.341 0.195,0.231 0.387,0.465 0.553,0.717 0.159,0.251 0.337,0.517 0.339,0.823 -0.001,0.002 0,0.003 0.002,0.004 0.002,0 0.004,-0.002 0.004,-0.003 C 2.129,2.571 1.955,2.297 1.803,2.041 1.641,1.783 1.452,1.544 1.262,1.308 0.881,0.835 0.457,0.399 0.004,-0.004 0.003,-0.005 0.001,-0.005 0,-0.004 -0.001,-0.003 -0.001,-0.001 0,0"
         style="fill:#050606;fill-opacity:1;fill-rule:nonzero;stroke:none"
         transform="matrix(1.3333333,0,0,-1.3333333,997.77667,552.4824)"
         clip-path="url(#clipPath1637)" />
      <path
         id="path1638"
         d="m 0,0 c -0.533,0.904 -1.006,1.843 -1.406,2.814 -0.198,0.486 -0.381,0.979 -0.53,1.483 -0.13,0.504 -0.258,1.032 -0.165,1.554 0,0.002 0.002,0.003 0.004,0.003 0.002,0 0.003,-0.002 0.003,-0.004 -0.085,-0.521 0.05,-1.044 0.19,-1.544 0.153,-0.501 0.342,-0.99 0.545,-1.472 C -0.937,1.875 -0.48,0.933 0.006,0.003 0.007,0.002 0.006,0 0.004,-0.001 0.003,-0.002 0.001,-0.001 0,0"
         style="fill:#050606;fill-opacity:1;fill-rule:nonzero;stroke:none"
         transform="matrix(1.3333333,0,0,-1.3333333,984.07733,552.49213)"
         clip-path="url(#clipPath1639)" />
      <path
         id="path1640"
         d="m 0,0 c -0.453,0.403 -0.876,0.84 -1.258,1.312 -0.19,0.237 -0.379,0.476 -0.541,0.733 -0.152,0.257 -0.325,0.531 -0.317,0.841 0,0.002 10e-4,0.003 0.003,0.003 0.002,0 0.003,-0.002 0.003,-0.004 C -2.109,2.58 -1.931,2.313 -1.771,2.063 -1.605,1.81 -1.413,1.576 -1.219,1.345 -0.82,0.891 -0.41,0.446 0.005,0.004 0.006,0.003 0.006,0.001 0.005,0 0.003,-0.001 0.001,-0.001 0,0"
         style="fill:#050606;fill-opacity:1;fill-rule:nonzero;stroke:none"
         transform="matrix(1.3333333,0,0,-1.3333333,980.1972,552.48827)"
         clip-path="url(#clipPath1641)" />
      <path
         id="path1642"
         d="m 0,0 c -0.231,0.451 -0.427,0.919 -0.582,1.401 -0.147,0.48 -0.321,0.974 -0.287,1.484 0.001,0.002 0.002,0.003 0.004,0.003 0.002,0 0.003,-0.002 0.003,-0.004 C -0.878,2.377 -0.69,1.893 -0.534,1.418 L 0.006,0.002 C 0.007,0.001 0.006,-0.001 0.004,-0.001 0.003,-0.002 0.001,-0.001 0,0"
         style="fill:#050606;fill-opacity:1;fill-rule:nonzero;stroke:none"
         transform="matrix(1.3333333,0,0,-1.3333333,988.41987,552.48693)"
         clip-path="url(#clipPath1643)" />
      <path
         id="path1644"
         d="m 0,0 0.54,1.416 c 0.156,0.474 0.344,0.959 0.328,1.466 0,0.002 0.001,0.003 0.003,0.004 0.002,0 0.003,-0.002 0.004,-0.003 C 0.909,2.372 0.734,1.879 0.588,1.399 0.433,0.917 0.237,0.448 0.006,-0.002 0.005,-0.004 0.003,-0.004 0.002,-0.004 0,-0.003 0,-0.001 0,0"
         style="fill:#050606;fill-opacity:1;fill-rule:nonzero;stroke:none"
         transform="matrix(1.3333333,0,0,-1.3333333,991.13333,552.48373)"
         clip-path="url(#clipPath1645)" />
    </g>
  </g>
</svg>
