<?xml version="1.0" encoding="UTF-8" standalone="no"?>
<!-- Created with Inkscape (http://www.inkscape.org/) -->

<svg
   width="178.59375mm"
   height="264.8479mm"
   viewBox="0 0 178.59375 264.8479"
   version="1.1"
   id="svg1"
   xmlns="http://www.w3.org/2000/svg"
   xmlns:svg="http://www.w3.org/2000/svg">
  <defs
     id="defs1">
    <clipPath
       clipPathUnits="userSpaceOnUse"
       id="clipPath355">
      <path
         d="M 0,1063.397 H 1790.733 V 0 H 0 Z"
         transform="translate(-94.353002,-810.04262)"
         id="path355" />
    </clipPath>
    <clipPath
       clipPathUnits="userSpaceOnUse"
       id="clipPath357">
      <path
         d="M 0,1063.397 H 1790.733 V 0 H 0 Z"
         transform="translate(-88.328102,-816.32632)"
         id="path357" />
    </clipPath>
    <clipPath
       clipPathUnits="userSpaceOnUse"
       id="clipPath359">
      <path
         d="M 0,1063.397 H 1790.733 V 0 H 0 Z"
         transform="translate(-88.324202,-816.36152)"
         id="path359" />
    </clipPath>
    <clipPath
       clipPathUnits="userSpaceOnUse"
       id="clipPath361">
      <path
         d="M 0,1063.397 H 1790.733 V 0 H 0 Z"
         transform="translate(-88.523905,-814.61442)"
         id="path361" />
    </clipPath>
    <clipPath
       clipPathUnits="userSpaceOnUse"
       id="clipPath363">
      <path
         d="M 0,1063.397 H 1790.733 V 0 H 0 Z"
         transform="translate(-88.520005,-814.64952)"
         id="path363" />
    </clipPath>
    <clipPath
       clipPathUnits="userSpaceOnUse"
       id="clipPath365">
      <path
         d="M 0,1063.397 H 1790.733 V 0 H 0 Z"
         transform="translate(-88.6621,-813.82532)"
         id="path365" />
    </clipPath>
    <clipPath
       clipPathUnits="userSpaceOnUse"
       id="clipPath367">
      <path
         d="M 0,1063.397 H 1790.733 V 0 H 0 Z"
         transform="translate(-88.6621,-813.86102)"
         id="path367" />
    </clipPath>
    <clipPath
       clipPathUnits="userSpaceOnUse"
       id="clipPath369">
      <path
         d="M 0,1063.397 H 1790.733 V 0 H 0 Z"
         transform="translate(-88.523905,-815.43032)"
         id="path369" />
    </clipPath>
    <clipPath
       clipPathUnits="userSpaceOnUse"
       id="clipPath371">
      <path
         d="M 0,1063.397 H 1790.733 V 0 H 0 Z"
         transform="translate(-88.531705,-815.46502)"
         id="path371" />
    </clipPath>
    <clipPath
       clipPathUnits="userSpaceOnUse"
       id="clipPath373">
      <path
         d="M 0,1063.397 H 1790.733 V 0 H 0 Z"
         transform="translate(-88.792405,-812.04112)"
         id="path373" />
    </clipPath>
    <clipPath
       clipPathUnits="userSpaceOnUse"
       id="clipPath375">
      <path
         d="M 0,1063.397 H 1790.733 V 0 H 0 Z"
         transform="translate(-88.8022,-812.07392)"
         id="path375" />
    </clipPath>
    <clipPath
       clipPathUnits="userSpaceOnUse"
       id="clipPath377">
      <path
         d="M 0,1063.397 H 1790.733 V 0 H 0 Z"
         transform="translate(-88.800205,-812.78632)"
         id="path377" />
    </clipPath>
    <clipPath
       clipPathUnits="userSpaceOnUse"
       id="clipPath379">
      <path
         d="M 0,1063.397 H 1790.733 V 0 H 0 Z"
         transform="translate(-88.8076,-812.82682)"
         id="path379" />
    </clipPath>
    <clipPath
       clipPathUnits="userSpaceOnUse"
       id="clipPath381">
      <path
         d="M 0,1063.397 H 1790.733 V 0 H 0 Z"
         transform="translate(-88.294405,-816.87222)"
         id="path381" />
    </clipPath>
    <clipPath
       clipPathUnits="userSpaceOnUse"
       id="clipPath383">
      <path
         d="M 0,1063.397 H 1790.733 V 0 H 0 Z"
         transform="translate(-112.93161,-816.32632)"
         id="path383" />
    </clipPath>
    <clipPath
       clipPathUnits="userSpaceOnUse"
       id="clipPath385">
      <path
         d="M 0,1063.397 H 1790.733 V 0 H 0 Z"
         transform="translate(-112.92771,-816.29062)"
         id="path385" />
    </clipPath>
    <clipPath
       clipPathUnits="userSpaceOnUse"
       id="clipPath387">
      <path
         d="M 0,1063.397 H 1790.733 V 0 H 0 Z"
         transform="translate(-112.7358,-814.61442)"
         id="path387" />
    </clipPath>
    <clipPath
       clipPathUnits="userSpaceOnUse"
       id="clipPath389">
      <path
         d="M 0,1063.397 H 1790.733 V 0 H 0 Z"
         transform="translate(-112.7319,-814.57872)"
         id="path389" />
    </clipPath>
    <clipPath
       clipPathUnits="userSpaceOnUse"
       id="clipPath391">
      <path
         d="M 0,1063.397 H 1790.733 V 0 H 0 Z"
         transform="translate(-112.5976,-813.82532)"
         id="path391" />
    </clipPath>
    <clipPath
       clipPathUnits="userSpaceOnUse"
       id="clipPath393">
      <path
         d="M 0,1063.397 H 1790.733 V 0 H 0 Z"
         transform="translate(-112.5976,-813.78972)"
         id="path393" />
    </clipPath>
    <clipPath
       clipPathUnits="userSpaceOnUse"
       id="clipPath395">
      <path
         d="M 0,1063.397 H 1790.733 V 0 H 0 Z"
         transform="translate(-112.7358,-815.43032)"
         id="path395" />
    </clipPath>
    <clipPath
       clipPathUnits="userSpaceOnUse"
       id="clipPath397">
      <path
         d="M 0,1063.397 H 1790.733 V 0 H 0 Z"
         transform="translate(-112.7436,-815.39562)"
         id="path397" />
    </clipPath>
    <clipPath
       clipPathUnits="userSpaceOnUse"
       id="clipPath399">
      <path
         d="M 0,1063.397 H 1790.733 V 0 H 0 Z"
         transform="translate(-112.46721,-812.04112)"
         id="path399" />
    </clipPath>
    <clipPath
       clipPathUnits="userSpaceOnUse"
       id="clipPath401">
      <path
         d="M 0,1063.397 H 1790.733 V 0 H 0 Z"
         transform="translate(-112.477,-812.00842)"
         id="path401" />
    </clipPath>
    <clipPath
       clipPathUnits="userSpaceOnUse"
       id="clipPath403">
      <path
         d="M 0,1063.397 H 1790.733 V 0 H 0 Z"
         transform="translate(-112.45941,-812.78632)"
         id="path403" />
    </clipPath>
    <clipPath
       clipPathUnits="userSpaceOnUse"
       id="clipPath405">
      <path
         d="M 0,1063.397 H 1790.733 V 0 H 0 Z"
         transform="translate(-112.46721,-812.74622)"
         id="path405" />
    </clipPath>
    <clipPath
       clipPathUnits="userSpaceOnUse"
       id="clipPath407">
      <path
         d="M 0,1063.397 H 1790.733 V 0 H 0 Z"
         transform="translate(-112.9653,-816.87222)"
         id="path407" />
    </clipPath>
  </defs>
  <g
     id="layer1">
    <g
       id="g1926"
       transform="matrix(1.3096379,0,0,1.3711985,-85.452601,-405.82706)">
      <path
         id="path354"
         d="m 0,0 c -1.354,0.054 -5.399,1.081 -5.399,1.081 l -0.738,5.967 c 0,0 4.063,1.563 5.469,1.736 3.48,0.43 10.582,0.51 14.049,0.003 1.376,-0.202 5.366,-1.665 5.366,-1.665 L 18.009,1.081 C 18.009,1.081 13.963,0.062 12.61,0 9.461,-0.146 3.149,-0.125 0,0"
         style="fill:#ffffff;fill-opacity:1;fill-rule:nonzero;stroke:#1b181a;stroke-width:0.065;stroke-linecap:butt;stroke-linejoin:round;stroke-miterlimit:10;stroke-dasharray:none;stroke-opacity:1"
         transform="matrix(1.3333333,0,0,-1.3333333,125.804,337.80987)"
         clip-path="url(#clipPath355)" />
      <path
         id="path356"
         d="M 0,0 1.449,0.167"
         style="fill:#ffffff;fill-opacity:1;fill-rule:nonzero;stroke:none"
         transform="matrix(1.3333333,0,0,-1.3333333,117.7708,329.4316)"
         clip-path="url(#clipPath357)" />
      <path
         id="path358"
         d="M 0,0 1.453,0.131 0.008,-0.071 Z"
         style="fill:#1b181a;fill-opacity:1;fill-rule:nonzero;stroke:none"
         transform="matrix(1.3333333,0,0,-1.3333333,117.7656,329.38467)"
         clip-path="url(#clipPath359)" />
      <path
         id="path360"
         d="M 0,0 1.448,0.167"
         style="fill:#ffffff;fill-opacity:1;fill-rule:nonzero;stroke:none"
         transform="matrix(1.3333333,0,0,-1.3333333,118.03187,331.71413)"
         clip-path="url(#clipPath361)" />
      <path
         id="path362"
         d="M 0,0 1.452,0.131 0.008,-0.071 Z"
         style="fill:#1b181a;fill-opacity:1;fill-rule:nonzero;stroke:none"
         transform="matrix(1.3333333,0,0,-1.3333333,118.02667,331.66733)"
         clip-path="url(#clipPath363)" />
      <path
         id="path364"
         d="M 0,0 H 1.699"
         style="fill:#ffffff;fill-opacity:1;fill-rule:nonzero;stroke:none"
         transform="matrix(1.3333333,0,0,-1.3333333,118.21613,332.76627)"
         clip-path="url(#clipPath365)" />
      <path
         id="path366"
         d="M 0,0 1.699,-0.036 0,-0.071 Z"
         style="fill:#1b181a;fill-opacity:1;fill-rule:nonzero;stroke:none"
         transform="matrix(1.3333333,0,0,-1.3333333,118.21613,332.71867)"
         clip-path="url(#clipPath367)" />
      <path
         id="path368"
         d="M 0,0 C 0,0 0.944,-0.215 1.699,0"
         style="fill:#ffffff;fill-opacity:1;fill-rule:nonzero;stroke:none"
         transform="matrix(1.3333333,0,0,-1.3333333,118.03187,330.62627)"
         clip-path="url(#clipPath369)" />
      <path
         id="path370"
         d="M 0,0 C 0.55,-0.118 1.135,-0.17 1.691,-0.035 1.139,-0.193 0.55,-0.167 -0.016,-0.069 Z"
         style="fill:#1b181a;fill-opacity:1;fill-rule:nonzero;stroke:none"
         transform="matrix(1.3333333,0,0,-1.3333333,118.04227,330.58)"
         clip-path="url(#clipPath371)" />
      <path
         id="path372"
         d="M 0,0 C 0,0 1.176,-0.349 1.968,0.211"
         style="fill:#ffffff;fill-opacity:1;fill-rule:nonzero;stroke:none"
         transform="matrix(1.3333333,0,0,-1.3333333,118.38987,335.1452)"
         clip-path="url(#clipPath373)" />
      <path
         id="path374"
         d="M 0,0 C 0.636,-0.169 1.379,-0.202 1.958,0.179 1.391,-0.222 0.639,-0.218 -0.02,-0.065 Z"
         style="fill:#1b181a;fill-opacity:1;fill-rule:nonzero;stroke:none"
         transform="matrix(1.3333333,0,0,-1.3333333,118.40293,335.10147)"
         clip-path="url(#clipPath375)" />
      <path
         id="path376"
         d="M 0,0 C 0,0 0.926,-0.169 1.423,0.304"
         style="fill:#ffffff;fill-opacity:1;fill-rule:nonzero;stroke:none"
         transform="matrix(1.3333333,0,0,-1.3333333,118.40027,334.1516)"
         clip-path="url(#clipPath377)" />
      <path
         id="path378"
         d="M 0,0 C 0.473,-0.077 1.026,-0.071 1.416,0.263 1.042,-0.094 0.48,-0.134 -0.015,-0.081 Z"
         style="fill:#1b181a;fill-opacity:1;fill-rule:nonzero;stroke:none"
         transform="matrix(1.3333333,0,0,-1.3333333,118.41013,334.0976)"
         clip-path="url(#clipPath379)" />
      <path
         id="path380"
         d="M 0,0 C 0.509,0.251 0.679,0.299 0.688,0.256 0.708,0.164 -0.006,-0.301 0.034,-0.546 0.067,-0.75 0.597,-0.638 0.627,-0.846 0.656,-1.045 0.193,-1.322 0.222,-1.492 0.252,-1.669 0.78,-1.526 0.811,-1.709 0.838,-1.867 0.196,-2.092 0.221,-2.261 0.255,-2.493 0.971,-2.398 0.985,-2.534 0.998,-2.658 0.327,-2.819 0.338,-3.051 0.348,-3.267 1.245,-3.32 1.258,-3.542 1.273,-3.8 0.49,-3.983 0.504,-4.141 0.521,-4.314 1.254,-4.291 1.262,-4.399 1.269,-4.505 0.581,-4.58 0.583,-4.821 0.586,-5.082 1.397,-4.972 1.409,-5.281 1.417,-5.487 1.122,-5.64 0.807,-5.736"
         style="fill:#ffffff;fill-opacity:1;fill-rule:nonzero;stroke:#1b181a;stroke-width:0.049;stroke-linecap:butt;stroke-linejoin:round;stroke-miterlimit:10;stroke-dasharray:none;stroke-opacity:1"
         transform="matrix(1.3333333,0,0,-1.3333333,117.72587,328.70373)"
         clip-path="url(#clipPath381)" />
      <path
         id="path382"
         d="M 0,0 -1.448,0.167"
         style="fill:#ffffff;fill-opacity:1;fill-rule:nonzero;stroke:none"
         transform="matrix(1.3333333,0,0,-1.3333333,150.57547,329.4316)"
         clip-path="url(#clipPath383)" />
      <path
         id="path384"
         d="M 0,0 -1.444,0.202 0.008,0.071 Z"
         style="fill:#1b181a;fill-opacity:1;fill-rule:nonzero;stroke:none"
         transform="matrix(1.3333333,0,0,-1.3333333,150.57027,329.4792)"
         clip-path="url(#clipPath385)" />
      <path
         id="path386"
         d="M 0,0 -1.448,0.167"
         style="fill:#ffffff;fill-opacity:1;fill-rule:nonzero;stroke:none"
         transform="matrix(1.3333333,0,0,-1.3333333,150.3144,331.71413)"
         clip-path="url(#clipPath387)" />
      <path
         id="path388"
         d="M 0,0 -1.444,0.202 0.008,0.071 Z"
         style="fill:#1b181a;fill-opacity:1;fill-rule:nonzero;stroke:none"
         transform="matrix(1.3333333,0,0,-1.3333333,150.3092,331.76173)"
         clip-path="url(#clipPath389)" />
      <path
         id="path390"
         d="M 0,0 H -1.699"
         style="fill:#ffffff;fill-opacity:1;fill-rule:nonzero;stroke:none"
         transform="matrix(1.3333333,0,0,-1.3333333,150.13013,332.76627)"
         clip-path="url(#clipPath391)" />
      <path
         id="path392"
         d="M 0,0 -1.699,0.036 0,0.071 Z"
         style="fill:#1b181a;fill-opacity:1;fill-rule:nonzero;stroke:none"
         transform="matrix(1.3333333,0,0,-1.3333333,150.13013,332.81373)"
         clip-path="url(#clipPath393)" />
      <path
         id="path394"
         d="M 0,0 C 0,0 -0.944,-0.215 -1.699,0"
         style="fill:#ffffff;fill-opacity:1;fill-rule:nonzero;stroke:none"
         transform="matrix(1.3333333,0,0,-1.3333333,150.3144,330.62627)"
         clip-path="url(#clipPath395)" />
      <path
         id="path396"
         d="m 0,0 c -0.565,-0.097 -1.155,-0.124 -1.707,0.035 0.557,-0.136 1.141,-0.083 1.691,0.034 z"
         style="fill:#1b181a;fill-opacity:1;fill-rule:nonzero;stroke:none"
         transform="matrix(1.3333333,0,0,-1.3333333,150.3248,330.67253)"
         clip-path="url(#clipPath397)" />
      <path
         id="path398"
         d="M 0,0 C 0,0 -1.176,-0.349 -1.968,0.211"
         style="fill:#ffffff;fill-opacity:1;fill-rule:nonzero;stroke:none"
         transform="matrix(1.3333333,0,0,-1.3333333,149.95627,335.1452)"
         clip-path="url(#clipPath399)" />
      <path
         id="path400"
         d="m 0,0 c -0.659,-0.153 -1.41,-0.157 -1.978,0.244 0.579,-0.381 1.322,-0.348 1.958,-0.179 z"
         style="fill:#1b181a;fill-opacity:1;fill-rule:nonzero;stroke:none"
         transform="matrix(1.3333333,0,0,-1.3333333,149.96933,335.1888)"
         clip-path="url(#clipPath401)" />
      <path
         id="path402"
         d="M 0,0 C 0,0 -0.926,-0.169 -1.423,0.304"
         style="fill:#ffffff;fill-opacity:1;fill-rule:nonzero;stroke:none"
         transform="matrix(1.3333333,0,0,-1.3333333,149.94587,334.1516)"
         clip-path="url(#clipPath403)" />
      <path
         id="path404"
         d="m 0,0 c -0.496,-0.054 -1.057,-0.013 -1.431,0.344 0.39,-0.334 0.943,-0.34 1.416,-0.263 z"
         style="fill:#1b181a;fill-opacity:1;fill-rule:nonzero;stroke:none"
         transform="matrix(1.3333333,0,0,-1.3333333,149.95627,334.20507)"
         clip-path="url(#clipPath405)" />
      <path
         id="path406"
         d="m 0,0 c -0.509,0.251 -0.679,0.299 -0.688,0.256 -0.02,-0.092 0.694,-0.557 0.654,-0.802 -0.033,-0.204 -0.563,-0.092 -0.593,-0.3 -0.029,-0.199 0.434,-0.476 0.405,-0.646 -0.03,-0.177 -0.558,-0.034 -0.589,-0.217 -0.027,-0.158 0.615,-0.383 0.59,-0.552 -0.034,-0.232 -0.75,-0.137 -0.764,-0.273 -0.013,-0.124 0.658,-0.285 0.647,-0.517 -0.01,-0.216 -0.907,-0.269 -0.92,-0.491 -0.014,-0.258 0.768,-0.441 0.754,-0.599 -0.017,-0.173 -0.75,-0.15 -0.758,-0.258 -0.007,-0.106 0.681,-0.181 0.679,-0.422 -0.003,-0.261 -0.814,-0.151 -0.826,-0.46 -0.008,-0.206 0.287,-0.359 0.602,-0.455"
         style="fill:#ffffff;fill-opacity:1;fill-rule:nonzero;stroke:#1b181a;stroke-width:0.049;stroke-linecap:butt;stroke-linejoin:round;stroke-miterlimit:10;stroke-dasharray:none;stroke-opacity:1"
         transform="matrix(1.3333333,0,0,-1.3333333,150.6204,328.70373)"
         clip-path="url(#clipPath407)" />
    </g>
  </g>
</svg>
