<?xml version="1.0" encoding="UTF-8" standalone="no"?>
<!-- Created with Inkscape (http://www.inkscape.org/) -->

<svg
   width="178.59375mm"
   height="264.8479mm"
   viewBox="0 0 178.59375 264.8479"
   version="1.1"
   id="svg1"
   xmlns="http://www.w3.org/2000/svg"
   xmlns:svg="http://www.w3.org/2000/svg">
  <defs
     id="defs1">
    <clipPath
       clipPathUnits="userSpaceOnUse"
       id="clipPath1198">
      <path
         d="M 0,1063.397 H 1790.733 V 0 H 0 Z"
         transform="translate(-105.2089,-188.85313)"
         id="path1198" />
    </clipPath>
    <clipPath
       clipPathUnits="userSpaceOnUse"
       id="clipPath1200">
      <path
         d="M 0,1063.397 H 1790.733 V 0 H 0 Z"
         transform="translate(-104.476,-191.04838)"
         id="path1200" />
    </clipPath>
    <clipPath
       clipPathUnits="userSpaceOnUse"
       id="clipPath1202">
      <path
         d="M 0,1063.397 H 1790.733 V 0 H 0 Z"
         transform="translate(-105.21381,-188.77498)"
         id="path1202" />
    </clipPath>
    <clipPath
       clipPathUnits="userSpaceOnUse"
       id="clipPath1204">
      <path
         d="M 0,1063.397 H 1790.733 V 0 H 0 Z"
         transform="translate(-116.7133,-159.3155)"
         id="path1204" />
    </clipPath>
    <clipPath
       clipPathUnits="userSpaceOnUse"
       id="clipPath1206">
      <path
         d="M 0,1063.397 H 1790.733 V 0 H 0 Z"
         transform="translate(-117.15621,-159.3155)"
         id="path1206" />
    </clipPath>
    <clipPath
       clipPathUnits="userSpaceOnUse"
       id="clipPath1208">
      <path
         d="M 0,1063.397 H 1790.733 V 0 H 0 Z"
         transform="translate(-120.0747,-155.80183)"
         id="path1208" />
    </clipPath>
    <clipPath
       clipPathUnits="userSpaceOnUse"
       id="clipPath1210">
      <path
         d="M 0,1063.397 H 1790.733 V 0 H 0 Z"
         transform="translate(-116.8759,-159.3155)"
         id="path1210" />
    </clipPath>
    <clipPath
       clipPathUnits="userSpaceOnUse"
       id="clipPath1212">
      <path
         d="M 0,1063.397 H 1790.733 V 0 H 0 Z"
         transform="translate(-110.8876,-178.3736)"
         id="path1212" />
    </clipPath>
    <clipPath
       clipPathUnits="userSpaceOnUse"
       id="clipPath1214">
      <path
         d="M 0,1063.397 H 1790.733 V 0 H 0 Z"
         transform="translate(-110.99211,-178.17643)"
         id="path1214" />
    </clipPath>
    <clipPath
       clipPathUnits="userSpaceOnUse"
       id="clipPath1216">
      <path
         d="M 0,1063.397 H 1790.733 V 0 H 0 Z"
         transform="translate(-117.18891,-159.3878)"
         id="path1216" />
    </clipPath>
    <clipPath
       clipPathUnits="userSpaceOnUse"
       id="clipPath1810">
      <path
         d="M 0,1063.397 H 1790.733 V 0 H 0 Z"
         transform="translate(-120.11571,-155.9039)"
         id="path1810" />
    </clipPath>
    <clipPath
       clipPathUnits="userSpaceOnUse"
       id="clipPath1812">
      <path
         d="M 0,1063.397 H 1790.733 V 0 H 0 Z"
         transform="translate(-105.3105,-188.65288)"
         id="path1812" />
    </clipPath>
    <clipPath
       clipPathUnits="userSpaceOnUse"
       id="clipPath1814">
      <path
         d="M 0,1063.397 H 1790.733 V 0 H 0 Z"
         transform="translate(-116.5839,-181.37698)"
         id="path1814" />
    </clipPath>
    <clipPath
       clipPathUnits="userSpaceOnUse"
       id="clipPath1816">
      <path
         d="M 0,1063.397 H 1790.733 V 0 H 0 Z"
         transform="translate(-104.7168,-188.33698)"
         id="path1816" />
    </clipPath>
    <clipPath
       clipPathUnits="userSpaceOnUse"
       id="clipPath1818">
      <path
         d="M 0,1063.397 H 1790.733 V 0 H 0 Z"
         transform="translate(-103.9072,-187.99468)"
         id="path1818" />
    </clipPath>
    <clipPath
       clipPathUnits="userSpaceOnUse"
       id="clipPath1820">
      <path
         d="M 0,1063.397 H 1790.733 V 0 H 0 Z"
         transform="translate(-117.50631,-158.6231)"
         id="path1820" />
    </clipPath>
    <clipPath
       clipPathUnits="userSpaceOnUse"
       id="clipPath1822">
      <path
         d="M 0,1063.397 H 1790.733 V 0 H 0 Z"
         transform="translate(-118.6167,-157.4747)"
         id="path1822" />
    </clipPath>
    <clipPath
       clipPathUnits="userSpaceOnUse"
       id="clipPath1824">
      <path
         d="M 0,1063.397 H 1790.733 V 0 H 0 Z"
         transform="translate(-84.9169,-159.3155)"
         id="path1824" />
    </clipPath>
    <clipPath
       clipPathUnits="userSpaceOnUse"
       id="clipPath1826">
      <path
         d="M 0,1063.397 H 1790.733 V 0 H 0 Z"
         transform="translate(-84.4741,-159.3155)"
         id="path1826" />
    </clipPath>
    <clipPath
       clipPathUnits="userSpaceOnUse"
       id="clipPath1828">
      <path
         d="M 0,1063.397 H 1790.733 V 0 H 0 Z"
         transform="translate(-81.555602,-155.80183)"
         id="path1828" />
    </clipPath>
    <clipPath
       clipPathUnits="userSpaceOnUse"
       id="clipPath1830">
      <path
         d="M 0,1063.397 H 1790.733 V 0 H 0 Z"
         transform="translate(-84.7543,-159.3155)"
         id="path1830" />
    </clipPath>
    <clipPath
       clipPathUnits="userSpaceOnUse"
       id="clipPath1832">
      <path
         d="M 0,1063.397 H 1790.733 V 0 H 0 Z"
         transform="translate(-90.7426,-178.3736)"
         id="path1832" />
    </clipPath>
    <clipPath
       clipPathUnits="userSpaceOnUse"
       id="clipPath1834">
      <path
         d="M 0,1063.397 H 1790.733 V 0 H 0 Z"
         transform="translate(-90.638102,-178.17643)"
         id="path1834" />
    </clipPath>
    <clipPath
       clipPathUnits="userSpaceOnUse"
       id="clipPath1836">
      <path
         d="M 0,1063.397 H 1790.733 V 0 H 0 Z"
         transform="translate(-84.4414,-159.3878)"
         id="path1836" />
    </clipPath>
    <clipPath
       clipPathUnits="userSpaceOnUse"
       id="clipPath1838">
      <path
         d="M 0,1063.397 H 1790.733 V 0 H 0 Z"
         transform="translate(-81.5092,-155.8985)"
         id="path1838" />
    </clipPath>
    <clipPath
       clipPathUnits="userSpaceOnUse"
       id="clipPath1840">
      <path
         d="M 0,1063.397 H 1790.733 V 0 H 0 Z"
         transform="translate(-96.321205,-188.64508)"
         id="path1840" />
    </clipPath>
    <clipPath
       clipPathUnits="userSpaceOnUse"
       id="clipPath1842">
      <path
         d="M 0,1063.397 H 1790.733 V 0 H 0 Z"
         transform="translate(-85.0537,-181.37458)"
         id="path1842" />
    </clipPath>
    <clipPath
       clipPathUnits="userSpaceOnUse"
       id="clipPath1844">
      <path
         d="M 0,1063.397 H 1790.733 V 0 H 0 Z"
         transform="translate(-96.913502,-188.32918)"
         id="path1844" />
    </clipPath>
    <clipPath
       clipPathUnits="userSpaceOnUse"
       id="clipPath1846">
      <path
         d="M 0,1063.397 H 1790.733 V 0 H 0 Z"
         transform="translate(-97.7236,-187.98688)"
         id="path1846" />
    </clipPath>
    <clipPath
       clipPathUnits="userSpaceOnUse"
       id="clipPath1848">
      <path
         d="M 0,1063.397 H 1790.733 V 0 H 0 Z"
         transform="translate(-84.1162,-158.62363)"
         id="path1848" />
    </clipPath>
    <clipPath
       clipPathUnits="userSpaceOnUse"
       id="clipPath1850">
      <path
         d="M 0,1063.397 H 1790.733 V 0 H 0 Z"
         transform="translate(-83.007302,-157.4708)"
         id="path1850" />
    </clipPath>
  </defs>
  <g
     id="layer1">
    <g
       id="g1943"
       transform="matrix(1.3096391,0,0,1.3712011,-85.675778,-1575.4408)">
      <path
         id="path1197"
         d="m 0,0 c -4.091,-3.041 -8.801,0.044 -8.801,0.044 0,0 0.729,1.967 0.791,2.255"
         style="fill:#ffffff;fill-opacity:1;fill-rule:nonzero;stroke:#050606;stroke-width:0.153;stroke-linecap:butt;stroke-linejoin:round;stroke-miterlimit:10;stroke-dasharray:none;stroke-opacity:1"
         transform="matrix(1.3333333,0,0,-1.3333333,140.27853,1166.0625)"
         clip-path="url(#clipPath1198)" />
      <path
         id="path1199"
         d="M 0,0 C -3.246,-2.429 -7.294,0.092 -7.294,0.092"
         style="fill:#ffffff;fill-opacity:1;fill-rule:nonzero;stroke:#050606;stroke-width:0.153;stroke-linecap:round;stroke-linejoin:round;stroke-miterlimit:10;stroke-dasharray:none;stroke-opacity:1"
         transform="matrix(1.3333333,0,0,-1.3333333,139.30133,1163.1355)"
         clip-path="url(#clipPath1200)" />
      <path
         id="path1201"
         d="M 0,0 C 0,0 -0.717,1.906 -0.745,2.296"
         style="fill:#ffffff;fill-opacity:1;fill-rule:nonzero;stroke:#050606;stroke-width:0.153;stroke-linecap:butt;stroke-linejoin:round;stroke-miterlimit:10;stroke-dasharray:none;stroke-opacity:1"
         transform="matrix(1.3333333,0,0,-1.3333333,140.28507,1166.1667)"
         clip-path="url(#clipPath1202)" />
      <path
         id="path1203"
         d="M 0,0 C -1.632,4.32 -3.265,8.64 -4.897,12.959"
         style="fill:none;stroke:#050606;stroke-width:0.153;stroke-linecap:butt;stroke-linejoin:miter;stroke-miterlimit:10;stroke-dasharray:none;stroke-opacity:1"
         transform="matrix(1.3333333,0,0,-1.3333333,155.61773,1205.446)"
         clip-path="url(#clipPath1204)" />
      <path
         id="path1205"
         d="M 0,0 C 0,0 -4.285,11.474 -4.897,12.959"
         style="fill:none;stroke:#050606;stroke-width:0.038;stroke-linecap:round;stroke-linejoin:miter;stroke-miterlimit:10;stroke-dasharray:0.153, 0.153;stroke-dashoffset:0;stroke-opacity:1"
         transform="matrix(1.3333333,0,0,-1.3333333,156.20827,1205.446)"
         clip-path="url(#clipPath1206)" />
      <path
         id="path1207"
         d="M 0,0 -3.164,3.514 -4.391,1.673 -1.838,-1.37 Z"
         style="fill:none;stroke:#050606;stroke-width:0.153;stroke-linecap:butt;stroke-linejoin:miter;stroke-miterlimit:10;stroke-dasharray:none;stroke-opacity:1"
         transform="matrix(1.3333333,0,0,-1.3333333,160.0996,1210.1309)"
         clip-path="url(#clipPath1208)" />
      <path
         id="path1209"
         d="m 0,0 c 0,0 -0.379,6.968 -1.557,9.685 -0.97,2.236 -4.749,9.373 -4.749,9.373 l -0.145,0.164 c 0,0 -2.017,3.687 -3.327,5.905 -1.604,2.717 -4.39,3.1 -4.367,3.227 10e-4,0.004 2.533,1.041 2.535,1.045 0.03,0.095 5.547,0.092 7.487,-0.111 1.293,-0.135 3.635,-3.274 3.87,-4.554 0.207,-1.125 6.379,-6.752 8.114,-7.165 1.427,-0.34 5.411,-1.346 5.15,-3.837 C 12.899,12.662 13.023,5.3 10.463,1.564 9.267,-0.182 4.608,-5.285 3.199,-3.514"
         style="fill:#ffffff;fill-opacity:1;fill-rule:nonzero;stroke:#050606;stroke-width:0.153;stroke-linecap:butt;stroke-linejoin:miter;stroke-miterlimit:10;stroke-dasharray:none;stroke-opacity:1"
         transform="matrix(1.3333333,0,0,-1.3333333,155.83453,1205.446)"
         clip-path="url(#clipPath1210)" />
      <path
         id="path1211"
         d="M 0,0 C 0,0 0.012,-0.022 0.034,-0.064"
         style="fill:none;stroke:#050606;stroke-width:0.038;stroke-linecap:round;stroke-linejoin:miter;stroke-miterlimit:10;stroke-dasharray:none;stroke-opacity:1"
         transform="matrix(1.3333333,0,0,-1.3333333,147.85013,1180.0352)"
         clip-path="url(#clipPath1212)" />
      <path
         id="path1213"
         d="m 0,0 c 0.615,-1.166 3.77,-7.161 4.644,-9.176 1.075,-2.479 1.485,-8.501 1.548,-9.533"
         style="fill:none;stroke:#050606;stroke-width:0.038;stroke-linecap:round;stroke-linejoin:miter;stroke-miterlimit:10;stroke-dasharray:0.154, 0.154;stroke-dashoffset:0;stroke-opacity:1"
         transform="matrix(1.3333333,0,0,-1.3333333,147.98947,1180.2981)"
         clip-path="url(#clipPath1214)" />
      <path
         id="path1215"
         d="M 0,0 C 0.003,-0.047 0.004,-0.072 0.004,-0.072"
         style="fill:none;stroke:#050606;stroke-width:0.038;stroke-linecap:round;stroke-linejoin:miter;stroke-miterlimit:10;stroke-dasharray:none;stroke-opacity:1"
         transform="matrix(1.3333333,0,0,-1.3333333,156.25187,1205.3496)"
         clip-path="url(#clipPath1216)" />
      <path
         id="path1809"
         d="M 0,0 C 1.744,1.867 3.589,3.634 5.39,5.444 L 5.396,5.439 C 3.603,3.62 1.854,1.757 0.005,-0.005 Z"
         style="fill:#050606;fill-opacity:1;fill-rule:nonzero;stroke:none"
         transform="matrix(1.3333333,0,0,-1.3333333,160.15427,1209.9948)"
         clip-path="url(#clipPath1810)" />
      <path
         id="path1811"
         d="M 0,0 1.362,-0.243 2.711,-0.558 C 3.594,-0.826 4.475,-1.115 5.31,-1.513 6.15,-1.894 6.955,-2.363 7.678,-2.94 8.39,-3.518 9.061,-4.197 9.445,-5.042 L 9.438,-5.044 C 9.045,-4.207 8.37,-3.537 7.654,-2.97 6.93,-2.402 6.125,-1.941 5.284,-1.568 4.451,-1.176 3.572,-0.894 2.69,-0.631 l -1.337,0.347 -1.354,0.276 z"
         style="fill:#050606;fill-opacity:1;fill-rule:nonzero;stroke:none"
         transform="matrix(1.3333333,0,0,-1.3333333,140.414,1166.3295)"
         clip-path="url(#clipPath1812)" />
      <path
         id="path1813"
         d="m 0,0 c 0.396,-1.167 0.81,-2.326 1.272,-3.467 0.459,-1.142 0.949,-2.272 1.517,-3.365 0.549,-1.101 1.193,-2.155 1.91,-3.154 0.728,-0.983 1.528,-1.956 2.578,-2.609 l -0.004,-0.007 c -1.058,0.646 -1.867,1.615 -2.605,2.594 -0.724,0.996 -1.376,2.049 -1.933,3.148 -0.574,1.092 -1.069,2.223 -1.534,3.364 -0.442,1.152 -0.834,2.32 -1.208,3.494 z"
         style="fill:#050606;fill-opacity:1;fill-rule:nonzero;stroke:none"
         transform="matrix(1.3333333,0,0,-1.3333333,155.4452,1176.0307)"
         clip-path="url(#clipPath1814)" />
      <path
         id="path1815"
         d="M 0,0 C 0.781,-0.038 1.5,-0.396 2.184,-0.746 2.857,-1.13 3.502,-1.56 4.133,-2.007 5.387,-2.915 6.589,-3.892 7.742,-4.921 L 7.737,-4.927 C 6.569,-3.914 5.357,-2.953 4.098,-2.057 3.465,-1.615 2.819,-1.19 2.146,-0.812 1.477,-0.445 0.776,-0.068 0,-0.008 Z"
         style="fill:#050606;fill-opacity:1;fill-rule:nonzero;stroke:none"
         transform="matrix(1.3333333,0,0,-1.3333333,139.6224,1166.7507)"
         clip-path="url(#clipPath1816)" />
      <path
         id="path1817"
         d="m 0,0 c 0.599,-0.064 1.135,-0.37 1.647,-0.667 0.5,-0.326 0.976,-0.686 1.441,-1.057 0.921,-0.754 1.801,-1.557 2.641,-2.4 L 5.724,-4.129 C 4.869,-3.303 3.978,-2.513 3.049,-1.772 2.583,-1.405 2.105,-1.051 1.606,-0.731 1.11,-0.417 0.591,-0.094 0,-0.008 Z"
         style="fill:#050606;fill-opacity:1;fill-rule:nonzero;stroke:none"
         transform="matrix(1.3333333,0,0,-1.3333333,138.54293,1167.2071)"
         clip-path="url(#clipPath1818)" />
      <path
         id="path1819"
         d="M 0,0 C -0.077,0.862 -0.06,1.732 0.039,2.593 0.133,3.454 0.299,4.31 0.588,5.125 L 0.596,5.123 C 0.327,4.301 0.18,3.445 0.1,2.587 0.03,1.728 -0.004,0.865 0.008,0 Z"
         style="fill:#050606;fill-opacity:1;fill-rule:nonzero;stroke:none"
         transform="matrix(1.3333333,0,0,-1.3333333,156.67507,1206.3692)"
         clip-path="url(#clipPath1820)" />
      <path
         id="path1821"
         d="M 0,0 C 0.849,1.442 1.816,2.807 2.732,4.205 L 2.739,4.201 C 1.833,2.796 0.979,1.357 0.006,-0.004 Z"
         style="fill:#050606;fill-opacity:1;fill-rule:nonzero;stroke:none"
         transform="matrix(1.3333333,0,0,-1.3333333,158.1556,1207.9004)"
         clip-path="url(#clipPath1822)" />
      <path
         id="path1823"
         d="M 0,0 C 1.632,4.32 3.265,8.64 4.897,12.959"
         style="fill:none;stroke:#050606;stroke-width:0.153;stroke-linecap:butt;stroke-linejoin:miter;stroke-miterlimit:10;stroke-dasharray:none;stroke-opacity:1"
         transform="matrix(1.3333333,0,0,-1.3333333,113.22253,1205.446)"
         clip-path="url(#clipPath1824)" />
      <path
         id="path1825"
         d="M 0,0 C 0,0 4.285,11.474 4.897,12.959"
         style="fill:none;stroke:#050606;stroke-width:0.038;stroke-linecap:round;stroke-linejoin:miter;stroke-miterlimit:10;stroke-dasharray:0.153, 0.153;stroke-dashoffset:0;stroke-opacity:1"
         transform="matrix(1.3333333,0,0,-1.3333333,112.63213,1205.446)"
         clip-path="url(#clipPath1826)" />
      <path
         id="path1827"
         d="M 0,0 3.164,3.514 4.391,1.673 1.838,-1.37 Z"
         style="fill:none;stroke:#050606;stroke-width:0.153;stroke-linecap:butt;stroke-linejoin:miter;stroke-miterlimit:10;stroke-dasharray:none;stroke-opacity:1"
         transform="matrix(1.3333333,0,0,-1.3333333,108.7408,1210.1309)"
         clip-path="url(#clipPath1828)" />
      <path
         id="path1829"
         d="m 0,0 c 0,0 0.379,6.968 1.557,9.685 0.97,2.236 4.749,9.373 4.749,9.373 l 0.145,0.164 c 0,0 2.017,3.687 3.327,5.905 1.604,2.717 4.39,3.1 4.367,3.227 -10e-4,0.004 -2.533,1.041 -2.535,1.045 -0.03,0.095 -5.547,0.092 -7.487,-0.111 -1.293,-0.135 -3.635,-3.274 -3.87,-4.554 -0.207,-1.125 -6.379,-6.752 -8.114,-7.165 -1.427,-0.34 -5.411,-1.346 -5.15,-3.837 0.113,-1.07 -0.012,-8.432 2.548,-12.168 1.196,-1.746 5.855,-6.849 7.264,-5.078"
         style="fill:#ffffff;fill-opacity:1;fill-rule:nonzero;stroke:#050606;stroke-width:0.153;stroke-linecap:butt;stroke-linejoin:miter;stroke-miterlimit:10;stroke-dasharray:none;stroke-opacity:1"
         transform="matrix(1.3333333,0,0,-1.3333333,113.00573,1205.446)"
         clip-path="url(#clipPath1830)" />
      <path
         id="path1831"
         d="M 0,0 C 0,0 -0.012,-0.022 -0.034,-0.064"
         style="fill:none;stroke:#050606;stroke-width:0.038;stroke-linecap:round;stroke-linejoin:miter;stroke-miterlimit:10;stroke-dasharray:none;stroke-opacity:1"
         transform="matrix(1.3333333,0,0,-1.3333333,120.99013,1180.0352)"
         clip-path="url(#clipPath1832)" />
      <path
         id="path1833"
         d="m 0,0 c -0.615,-1.166 -3.77,-7.161 -4.644,-9.176 -1.075,-2.479 -1.485,-8.501 -1.548,-9.533"
         style="fill:none;stroke:#050606;stroke-width:0.038;stroke-linecap:round;stroke-linejoin:miter;stroke-miterlimit:10;stroke-dasharray:0.154, 0.154;stroke-dashoffset:0;stroke-opacity:1"
         transform="matrix(1.3333333,0,0,-1.3333333,120.8508,1180.2981)"
         clip-path="url(#clipPath1834)" />
      <path
         id="path1835"
         d="M 0,0 C -0.003,-0.047 -0.004,-0.072 -0.004,-0.072"
         style="fill:none;stroke:#050606;stroke-width:0.038;stroke-linecap:round;stroke-linejoin:miter;stroke-miterlimit:10;stroke-dasharray:none;stroke-opacity:1"
         transform="matrix(1.3333333,0,0,-1.3333333,112.58853,1205.3496)"
         clip-path="url(#clipPath1836)" />
      <path
         id="path1837"
         d="M 0,0 C -1.849,1.763 -3.598,3.625 -5.39,5.444 L -5.385,5.45 C -3.584,3.639 -1.739,1.872 0.005,0.005 Z"
         style="fill:#050606;fill-opacity:1;fill-rule:nonzero;stroke:none"
         transform="matrix(1.3333333,0,0,-1.3333333,108.67893,1210.002)"
         clip-path="url(#clipPath1838)" />
      <path
         id="path1839"
         d="m 0,0 -1.354,-0.276 -1.337,-0.348 c -0.882,-0.262 -1.761,-0.544 -2.595,-0.937 -0.84,-0.372 -1.645,-0.833 -2.369,-1.401 -0.716,-0.567 -1.392,-1.237 -1.784,-2.075 l -0.007,0.003 c 0.384,0.845 1.054,1.524 1.767,2.101 0.722,0.578 1.527,1.047 2.368,1.428 0.835,0.398 1.715,0.687 2.599,0.955 l 1.348,0.315 1.363,0.243 z"
         style="fill:#050606;fill-opacity:1;fill-rule:nonzero;stroke:none"
         transform="matrix(1.3333333,0,0,-1.3333333,128.42827,1166.3399)"
         clip-path="url(#clipPath1840)" />
      <path
         id="path1841"
         d="m 0,0 c -0.374,-1.174 -0.767,-2.342 -1.208,-3.493 -0.465,-1.142 -0.96,-2.272 -1.534,-3.364 -0.557,-1.1 -1.209,-2.152 -1.934,-3.149 -0.738,-0.979 -1.546,-1.948 -2.605,-2.593 l -0.003,0.007 c 1.05,0.652 1.849,1.626 2.577,2.609 0.718,0.999 1.361,2.052 1.911,3.154 0.567,1.092 1.057,2.223 1.517,3.364 0.462,1.141 0.876,2.3 1.272,3.467 z"
         style="fill:#050606;fill-opacity:1;fill-rule:nonzero;stroke:none"
         transform="matrix(1.3333333,0,0,-1.3333333,113.40493,1176.0339)"
         clip-path="url(#clipPath1842)" />
      <path
         id="path1843"
         d="m 0,0 c -0.776,-0.061 -1.477,-0.437 -2.146,-0.805 -0.673,-0.378 -1.319,-0.802 -1.952,-1.244 -1.258,-0.896 -2.471,-1.857 -3.639,-2.87 l -0.005,0.005 c 1.153,1.03 2.355,2.007 3.609,2.914 0.631,0.448 1.276,0.878 1.949,1.262 0.684,0.35 1.403,0.708 2.184,0.746 z"
         style="fill:#050606;fill-opacity:1;fill-rule:nonzero;stroke:none"
         transform="matrix(1.3333333,0,0,-1.3333333,129.218,1166.7611)"
         clip-path="url(#clipPath1844)" />
      <path
         id="path1845"
         d="m 0,0 c -0.591,-0.086 -1.11,-0.409 -1.606,-0.724 -0.5,-0.319 -0.977,-0.673 -1.444,-1.04 -0.928,-0.741 -1.819,-1.531 -2.674,-2.357 l -0.005,0.005 c 0.84,0.843 1.719,1.646 2.641,2.4 0.465,0.371 0.941,0.731 1.441,1.057 0.511,0.297 1.048,0.603 1.647,0.667 z"
         style="fill:#050606;fill-opacity:1;fill-rule:nonzero;stroke:none"
         transform="matrix(1.3333333,0,0,-1.3333333,130.29813,1167.2175)"
         clip-path="url(#clipPath1846)" />
      <path
         id="path1847"
         d="M 0,0 C 0.012,0.864 -0.022,1.727 -0.092,2.586 -0.172,3.445 -0.319,4.3 -0.588,5.123 l 0.007,0.002 C -0.291,4.309 -0.125,3.453 -0.031,2.593 0.068,1.732 0.084,0.862 0.008,0 Z"
         style="fill:#050606;fill-opacity:1;fill-rule:nonzero;stroke:none"
         transform="matrix(1.3333333,0,0,-1.3333333,112.15493,1206.3685)"
         clip-path="url(#clipPath1848)" />
      <path
         id="path1849"
         d="m 0,0 c -0.973,1.361 -1.827,2.8 -2.732,4.205 l 0.006,0.004 C -1.81,2.811 -0.842,1.446 0.006,0.004 Z"
         style="fill:#050606;fill-opacity:1;fill-rule:nonzero;stroke:none"
         transform="matrix(1.3333333,0,0,-1.3333333,110.6764,1207.9056)"
         clip-path="url(#clipPath1850)" />
    </g>
  </g>
</svg>
