<?xml version="1.0" encoding="UTF-8" standalone="no"?>
<!-- Created with Inkscape (http://www.inkscape.org/) -->

<svg
   width="178.59375mm"
   height="264.8479mm"
   viewBox="0 0 178.59375 264.8479"
   version="1.1"
   id="svg1"
   xmlns="http://www.w3.org/2000/svg"
   xmlns:svg="http://www.w3.org/2000/svg">
  <defs
     id="defs1">
    <clipPath
       clipPathUnits="userSpaceOnUse"
       id="clipPath963">
      <path
         d="M 0,1063.397 H 1790.733 V 0 H 0 Z"
         transform="translate(-106.0981,-348.47231)"
         id="path963" />
    </clipPath>
    <clipPath
       clipPathUnits="userSpaceOnUse"
       id="clipPath965">
      <path
         d="M 0,1063.397 H 1790.733 V 0 H 0 Z"
         transform="translate(-106.0981,-348.47231)"
         id="path965" />
    </clipPath>
    <clipPath
       clipPathUnits="userSpaceOnUse"
       id="clipPath967">
      <path
         d="M 0,1063.397 H 1790.733 V 0 H 0 Z"
         transform="translate(-104.36271,-351.16561)"
         id="path967" />
    </clipPath>
    <clipPath
       clipPathUnits="userSpaceOnUse"
       id="clipPath969">
      <path
         d="M 0,1063.397 H 1790.733 V 0 H 0 Z"
         transform="translate(-104.36271,-347.18321)"
         id="path969" />
    </clipPath>
    <clipPath
       clipPathUnits="userSpaceOnUse"
       id="clipPath971">
      <path
         d="M 0,1063.397 H 1790.733 V 0 H 0 Z"
         transform="translate(-104.3647,-347.18521)"
         id="path971" />
    </clipPath>
    <clipPath
       clipPathUnits="userSpaceOnUse"
       id="clipPath973">
      <path
         d="M 0,1063.397 H 1790.733 V 0 H 0 Z"
         transform="translate(-102.5908,-346.75941)"
         id="path973" />
    </clipPath>
    <clipPath
       clipPathUnits="userSpaceOnUse"
       id="clipPath975">
      <path
         d="M 0,1063.397 H 1790.733 V 0 H 0 Z"
         transform="translate(-97.605902,-347.38441)"
         id="path975" />
    </clipPath>
    <clipPath
       clipPathUnits="userSpaceOnUse"
       id="clipPath977">
      <path
         d="M 0,1063.397 H 1790.733 V 0 H 0 Z"
         transform="translate(-97.607905,-347.38241)"
         id="path977" />
    </clipPath>
    <clipPath
       clipPathUnits="userSpaceOnUse"
       id="clipPath979">
      <path
         d="M 0,1063.397 H 1790.733 V 0 H 0 Z"
         transform="translate(-99.3823,-346.95711)"
         id="path979" />
    </clipPath>
    <clipPath
       clipPathUnits="userSpaceOnUse"
       id="clipPath981">
      <path
         d="M 0,1063.397 H 1790.733 V 0 H 0 Z"
         transform="translate(-101.0053,-346.75741)"
         id="path981" />
    </clipPath>
    <clipPath
       clipPathUnits="userSpaceOnUse"
       id="clipPath983">
      <path
         d="M 0,1063.397 H 1790.733 V 0 H 0 Z"
         transform="translate(-93.440905,-329.70661)"
         id="path983" />
    </clipPath>
    <clipPath
       clipPathUnits="userSpaceOnUse"
       id="clipPath985">
      <path
         d="M 0,1063.397 H 1790.733 V 0 H 0 Z"
         transform="translate(-99.245102,-329.46791)"
         id="path985" />
    </clipPath>
    <clipPath
       clipPathUnits="userSpaceOnUse"
       id="clipPath987">
      <path
         d="M 0,1063.397 H 1790.733 V 0 H 0 Z"
         transform="translate(-96.191402,-329.46791)"
         id="path987" />
    </clipPath>
    <clipPath
       clipPathUnits="userSpaceOnUse"
       id="clipPath989">
      <path
         d="M 0,1063.397 H 1790.733 V 0 H 0 Z"
         transform="translate(-106.84221,-329.57381)"
         id="path989" />
    </clipPath>
    <clipPath
       clipPathUnits="userSpaceOnUse"
       id="clipPath991">
      <path
         d="M 0,1063.397 H 1790.733 V 0 H 0 Z"
         transform="translate(-103.5415,-329.40101)"
         id="path991" />
    </clipPath>
    <clipPath
       clipPathUnits="userSpaceOnUse"
       id="clipPath993">
      <path
         d="M 0,1063.397 H 1790.733 V 0 H 0 Z"
         transform="translate(-100.7973,-329.39851)"
         id="path993" />
    </clipPath>
    <clipPath
       clipPathUnits="userSpaceOnUse"
       id="clipPath995">
      <path
         d="M 0,1063.397 H 1790.733 V 0 H 0 Z"
         transform="translate(-106.0981,-348.47231)"
         id="path995" />
    </clipPath>
    <clipPath
       clipPathUnits="userSpaceOnUse"
       id="clipPath997">
      <path
         d="M 0,1063.397 H 1790.733 V 0 H 0 Z"
         transform="translate(-95.610805,-348.49671)"
         id="path997" />
    </clipPath>
    <clipPath
       clipPathUnits="userSpaceOnUse"
       id="clipPath999">
      <path
         d="M 0,1063.397 H 1790.733 V 0 H 0 Z"
         transform="translate(-98.559505,-325.86531)"
         id="path999" />
    </clipPath>
  </defs>
  <g
     id="layer1">
    <g
       id="g1941"
       transform="matrix(1.3096391,0,0,1.3712008,-85.675778,-1281.9122)">
      <path
         id="path962"
         d="m 0,0 c -5.73,-3.829 -10.487,0.024 -10.487,0.024 0,0 1.459,0.873 1.745,2.569"
         style="fill:#ffffff;fill-opacity:1;fill-rule:nonzero;stroke:#050606;stroke-width:0.116;stroke-linecap:round;stroke-linejoin:round;stroke-miterlimit:10;stroke-dasharray:none;stroke-opacity:1"
         transform="matrix(1.3333333,0,0,-1.3333333,141.46413,953.23693)"
         clip-path="url(#clipPath963)" />
      <path
         id="path964"
         d="M 0,0 C 0,0 -1.735,0.858 -1.735,2.693"
         style="fill:#ffffff;fill-opacity:1;fill-rule:nonzero;stroke:#050606;stroke-width:0.116;stroke-linecap:round;stroke-linejoin:round;stroke-miterlimit:10;stroke-dasharray:none;stroke-opacity:1"
         transform="matrix(1.3333333,0,0,-1.3333333,141.46413,953.23693)"
         clip-path="url(#clipPath965)" />
      <path
         id="path966"
         d="M 0,0 C -4.133,-2.109 -6.999,0.001 -7.007,0"
         style="fill:#ffffff;fill-opacity:1;fill-rule:nonzero;stroke:#050606;stroke-width:0.116;stroke-linecap:round;stroke-linejoin:round;stroke-miterlimit:10;stroke-dasharray:none;stroke-opacity:1"
         transform="matrix(1.3333333,0,0,-1.3333333,139.15027,949.64587)"
         clip-path="url(#clipPath967)" />
      <path
         id="path968"
         d="M 0,0 C 2.151,-2.237 2.827,-11.978 2.827,-11.978"
         style="fill:#ffffff;fill-opacity:1;fill-rule:nonzero;stroke:none"
         transform="matrix(1.3333333,0,0,-1.3333333,139.15027,954.95573)"
         clip-path="url(#clipPath969)" />
      <path
         id="path970"
         d="m 0,0 c 0.69,-0.787 1.044,-1.795 1.364,-2.775 0.289,-0.998 0.511,-2.013 0.701,-3.032 0.36,-2.043 0.611,-4.104 0.763,-6.172 H 2.822 C 2.653,-9.914 2.39,-7.854 2.02,-5.815 1.825,-4.798 1.601,-3.786 1.309,-2.792 1.006,-1.81 0.67,-0.8 -0.004,-0.004 Z"
         style="fill:#050606;fill-opacity:1;fill-rule:nonzero;stroke:none"
         transform="matrix(1.3333333,0,0,-1.3333333,139.15293,954.95307)"
         clip-path="url(#clipPath971)" />
      <path
         id="path972"
         d="M 0,0 C 0.495,-0.63 0.724,-1.417 0.927,-2.18 1.104,-2.955 1.229,-3.741 1.331,-4.528 1.516,-6.106 1.616,-7.692 1.641,-9.28 H 1.635 c -0.041,1.587 -0.155,3.172 -0.35,4.746 -0.105,0.786 -0.234,1.569 -0.414,2.341 -0.186,0.764 -0.397,1.55 -0.875,2.19 z"
         style="fill:#050606;fill-opacity:1;fill-rule:nonzero;stroke:none"
         transform="matrix(1.3333333,0,0,-1.3333333,136.78773,955.5208)"
         clip-path="url(#clipPath973)" />
      <path
         id="path974"
         d="M 0,0 C -2.152,-2.237 -2.827,-11.978 -2.827,-11.978"
         style="fill:#ffffff;fill-opacity:1;fill-rule:nonzero;stroke:none"
         transform="matrix(1.3333333,0,0,-1.3333333,130.1412,954.68747)"
         clip-path="url(#clipPath975)" />
      <path
         id="path976"
         d="m 0,0 c -0.674,-0.796 -1.01,-1.806 -1.312,-2.788 -0.292,-0.994 -0.518,-2.006 -0.712,-3.024 -0.37,-2.039 -0.634,-4.098 -0.802,-6.164 l -0.006,0.001 c 0.152,2.068 0.402,4.129 0.762,6.172 0.191,1.019 0.413,2.034 0.702,3.032 0.319,0.979 0.674,1.988 1.364,2.775 z"
         style="fill:#050606;fill-opacity:1;fill-rule:nonzero;stroke:none"
         transform="matrix(1.3333333,0,0,-1.3333333,130.14387,954.69013)"
         clip-path="url(#clipPath977)" />
      <path
         id="path978"
         d="M 0,0 C -0.479,-0.639 -0.689,-1.426 -0.875,-2.19 -1.056,-2.961 -1.184,-3.745 -1.289,-4.531 -1.484,-6.105 -1.599,-7.69 -1.64,-9.276 h -0.006 c 0.025,1.587 0.125,3.173 0.311,4.751 0.101,0.788 0.226,1.573 0.403,2.349 0.203,0.762 0.433,1.549 0.928,2.179 z"
         style="fill:#050606;fill-opacity:1;fill-rule:nonzero;stroke:none"
         transform="matrix(1.3333333,0,0,-1.3333333,132.50973,955.2572)"
         clip-path="url(#clipPath979)" />
      <path
         id="path980"
         d="m 0,0 c -0.011,-3.093 -0.13,-6.186 -0.202,-9.278 h -0.006 c 0.063,3.093 0.079,6.186 0.202,9.278 z"
         style="fill:#050606;fill-opacity:1;fill-rule:nonzero;stroke:none"
         transform="matrix(1.3333333,0,0,-1.3333333,134.67373,955.52347)"
         clip-path="url(#clipPath981)" />
      <path
         id="path982"
         d="m 0,0 c -0.378,0.122 -0.739,0.302 -1.057,0.547 -0.306,0.258 -0.574,0.557 -0.805,0.881 -0.449,0.659 -0.772,1.399 -0.967,2.168 l 0.006,0.002 C -2.612,2.833 -2.277,2.103 -1.824,1.455 -1.362,0.818 -0.751,0.273 0.001,0.006 Z"
         style="fill:#050606;fill-opacity:1;fill-rule:nonzero;stroke:none"
         transform="matrix(1.3333333,0,0,-1.3333333,124.58787,978.25787)"
         clip-path="url(#clipPath983)" />
      <path
         id="path984"
         d="M 0,0 C -0.269,0.095 -0.522,0.238 -0.736,0.433 -0.937,0.64 -1.101,0.88 -1.229,1.136 -1.478,1.653 -1.607,2.219 -1.642,2.787 h 0.006 c 0.051,-0.565 0.194,-1.125 0.448,-1.63 0.259,-0.5 0.658,-0.936 1.19,-1.151 z"
         style="fill:#050606;fill-opacity:1;fill-rule:nonzero;stroke:none"
         transform="matrix(1.3333333,0,0,-1.3333333,132.3268,978.57613)"
         clip-path="url(#clipPath985)" />
      <path
         id="path986"
         d="M 0,0 C -0.269,0.095 -0.522,0.238 -0.736,0.433 -0.937,0.64 -1.1,0.88 -1.229,1.136 -1.478,1.653 -1.607,2.219 -1.642,2.787 h 0.006 c 0.051,-0.565 0.194,-1.125 0.448,-1.63 0.259,-0.5 0.658,-0.936 1.19,-1.151 z"
         style="fill:#050606;fill-opacity:1;fill-rule:nonzero;stroke:none"
         transform="matrix(1.3333333,0,0,-1.3333333,128.2552,978.57613)"
         clip-path="url(#clipPath987)" />
      <path
         id="path988"
         d="M 0,0 C 0.752,0.268 1.364,0.812 1.826,1.449 2.279,2.097 2.614,2.828 2.825,3.592 L 2.831,3.59 C 2.635,2.821 2.313,2.082 1.864,1.422 1.633,1.098 1.365,0.799 1.059,0.541 0.741,0.296 0.38,0.116 0.002,-0.005 Z"
         style="fill:#050606;fill-opacity:1;fill-rule:nonzero;stroke:none"
         transform="matrix(1.3333333,0,0,-1.3333333,142.45627,978.43493)"
         clip-path="url(#clipPath989)" />
      <path
         id="path990"
         d="m 0,0 c 0.532,0.215 0.931,0.651 1.19,1.151 0.254,0.505 0.397,1.065 0.449,1.63 H 1.644 C 1.609,2.213 1.479,1.647 1.231,1.13 1.103,0.875 0.939,0.635 0.739,0.427 0.524,0.232 0.271,0.09 0.002,-0.005 Z"
         style="fill:#050606;fill-opacity:1;fill-rule:nonzero;stroke:none"
         transform="matrix(1.3333333,0,0,-1.3333333,138.05533,978.66533)"
         clip-path="url(#clipPath991)" />
      <path
         id="path992"
         d="M 0,0 C 0.012,0.929 0.13,1.857 0.202,2.784 H 0.208 C 0.145,1.854 0.129,0.927 0.006,0 Z"
         style="fill:#050606;fill-opacity:1;fill-rule:nonzero;stroke:none"
         transform="matrix(1.3333333,0,0,-1.3333333,134.3964,978.66867)"
         clip-path="url(#clipPath993)" />
      <path
         id="path994"
         d="m 0,0 c 0,0 4.687,-10.224 4.821,-10.429 0.194,-0.3 1.224,-2.392 1.585,-3.363 0.12,-0.325 0.277,-2.042 0.147,-2.716 -0.05,-0.254 -0.632,-1.983 -1.776,-2.156"
         style="fill:#ffffff;fill-opacity:1;fill-rule:nonzero;stroke:#050606;stroke-width:0.116;stroke-linecap:butt;stroke-linejoin:round;stroke-miterlimit:10;stroke-dasharray:none;stroke-opacity:1"
         transform="matrix(1.3333333,0,0,-1.3333333,141.46413,953.23693)"
         clip-path="url(#clipPath995)" />
      <path
         id="path996"
         d="m 0,0 c 0,0 -4.435,-10.248 -4.568,-10.454 -0.195,-0.299 -1.225,-2.392 -1.585,-3.362 -0.121,-0.325 -0.278,-2.043 -0.147,-2.717 0.049,-0.254 0.631,-1.983 1.776,-2.155"
         style="fill:#ffffff;fill-opacity:1;fill-rule:nonzero;stroke:#050606;stroke-width:0.116;stroke-linecap:butt;stroke-linejoin:miter;stroke-miterlimit:10;stroke-dasharray:none;stroke-opacity:1"
         transform="matrix(1.3333333,0,0,-1.3333333,127.48107,953.2044)"
         clip-path="url(#clipPath997)" />
      <path
         id="path998"
         d="m 0,0 c -1.685,0 -6.74,0.402 -6.74,0.402 0,0 -0.881,3.449 -0.881,3.578 0,0 5.716,-0.402 7.621,-0.402 h 5.467 c 1.749,0 6.995,0.402 6.995,0.402 C 12.462,3.851 11.11,0.442 11.11,0.442 11.11,0.442 6.761,0 5.155,0 Z"
         style="fill:#ffffff;fill-opacity:1;fill-rule:nonzero;stroke:#050606;stroke-width:0.116;stroke-linecap:butt;stroke-linejoin:miter;stroke-miterlimit:10;stroke-dasharray:none;stroke-opacity:1"
         transform="matrix(1.3333333,0,0,-1.3333333,131.41267,983.3796)"
         clip-path="url(#clipPath999)" />
    </g>
  </g>
</svg>
