<?xml version="1.0" encoding="UTF-8" standalone="no"?>
<!-- Created with Inkscape (http://www.inkscape.org/) -->

<svg
   width="178.59375mm"
   height="264.8479mm"
   viewBox="0 0 178.59375 264.8479"
   version="1.1"
   id="svg1"
   xmlns="http://www.w3.org/2000/svg"
   xmlns:svg="http://www.w3.org/2000/svg">
  <defs
     id="defs1">
    <clipPath
       clipPathUnits="userSpaceOnUse"
       id="clipPath1092">
      <path
         d="M 0,1063.397 H 1790.733 V 0 H 0 Z"
         transform="translate(-509.51321,-469.11431)"
         id="path1092" />
    </clipPath>
    <clipPath
       clipPathUnits="userSpaceOnUse"
       id="clipPath1094">
      <path
         d="M 0,1063.397 H 1790.733 V 0 H 0 Z"
         transform="translate(-549.50531,-469.11431)"
         id="path1094" />
    </clipPath>
    <clipPath
       clipPathUnits="userSpaceOnUse"
       id="clipPath1096">
      <path
         d="M 0,1063.397 H 1790.733 V 0 H 0 Z"
         transform="translate(-521.19481,-486.80581)"
         id="path1096" />
    </clipPath>
    <clipPath
       clipPathUnits="userSpaceOnUse"
       id="clipPath1098">
      <path
         d="M 0,1063.397 H 1790.733 V 0 H 0 Z"
         transform="translate(-521.17912,-486.77501)"
         id="path1098" />
    </clipPath>
    <clipPath
       clipPathUnits="userSpaceOnUse"
       id="clipPath1100">
      <path
         d="M 0,1063.397 H 1790.733 V 0 H 0 Z"
         transform="translate(-538.81391,-488.79551)"
         id="path1100" />
    </clipPath>
    <clipPath
       clipPathUnits="userSpaceOnUse"
       id="clipPath1102">
      <path
         d="M 0,1063.397 H 1790.733 V 0 H 0 Z"
         transform="translate(-519.03461,-507.85362)"
         id="path1102" />
    </clipPath>
    <clipPath
       clipPathUnits="userSpaceOnUse"
       id="clipPath1104">
      <path
         d="M 0,1063.397 H 1790.733 V 0 H 0 Z"
         transform="translate(-513.57862,-470.19641)"
         id="path1104" />
    </clipPath>
    <clipPath
       clipPathUnits="userSpaceOnUse"
       id="clipPath1106">
      <path
         d="M 0,1063.397 H 1790.733 V 0 H 0 Z"
         transform="translate(-540.18211,-507.94542)"
         id="path1106" />
    </clipPath>
    <clipPath
       clipPathUnits="userSpaceOnUse"
       id="clipPath1108">
      <path
         d="M 0,1063.397 H 1790.733 V 0 H 0 Z"
         transform="translate(-545.45261,-470.19641)"
         id="path1108" />
    </clipPath>
    <clipPath
       clipPathUnits="userSpaceOnUse"
       id="clipPath1110">
      <path
         d="M 0,1063.397 H 1790.733 V 0 H 0 Z"
         transform="translate(-517.85591,-493.75061)"
         id="path1110" />
    </clipPath>
    <clipPath
       clipPathUnits="userSpaceOnUse"
       id="clipPath1112">
      <path
         d="M 0,1063.397 H 1790.733 V 0 H 0 Z"
         transform="translate(-525.97801,-486.78961)"
         id="path1112" />
    </clipPath>
    <clipPath
       clipPathUnits="userSpaceOnUse"
       id="clipPath1114">
      <path
         d="M 0,1063.397 H 1790.733 V 0 H 0 Z"
         transform="translate(-540.77971,-493.81311)"
         id="path1114" />
    </clipPath>
  </defs>
  <g
     id="layer1">
    <g
       id="g1940"
       transform="matrix(1.3096453,0,0,1.3712073,-833.88801,-988.09613)">
      <path
         id="path1091"
         d="M 0,0 C 0,0 1.877,-0.73 3.892,-0.543"
         style="fill:none;stroke:#050606;stroke-width:0.041;stroke-linecap:round;stroke-linejoin:miter;stroke-miterlimit:10;stroke-dasharray:0.163, 0.163;stroke-dashoffset:0;stroke-opacity:1"
         transform="matrix(1.3333333,0,0,-1.3333333,679.35093,792.38093)"
         clip-path="url(#clipPath1092)" />
      <path
         id="path1093"
         d="M 0,0 C 0,0 -1.876,-0.73 -3.892,-0.543"
         style="fill:none;stroke:#050606;stroke-width:0.041;stroke-linecap:round;stroke-linejoin:miter;stroke-miterlimit:10;stroke-dasharray:0.163, 0.163;stroke-dashoffset:0;stroke-opacity:1"
         transform="matrix(1.3333333,0,0,-1.3333333,732.67373,792.38093)"
         clip-path="url(#clipPath1094)" />
      <path
         id="path1095"
         d="m 0,0 c -2.931,2.056 -3.285,7.555 -3.324,9.179 -0.007,0.252 1.315,11.961 1.315,11.961 l 4.673,0.87 c 0,0 9.102,-18.802 14.955,-20.02 0,0 -0.296,-1.642 -0.697,-2.075"
         style="fill:#ffffff;fill-opacity:1;fill-rule:nonzero;stroke:#050606;stroke-width:0.163;stroke-linecap:round;stroke-linejoin:round;stroke-miterlimit:10;stroke-dasharray:none;stroke-opacity:1"
         transform="matrix(1.3333333,0,0,-1.3333333,694.9264,768.79227)"
         clip-path="url(#clipPath1096)" />
      <path
         id="path1097"
         d="M 0,0 17.015,-0.056"
         style="fill:none;stroke:#050606;stroke-width:0.17;stroke-linecap:round;stroke-linejoin:round;stroke-miterlimit:10;stroke-dasharray:none;stroke-opacity:1"
         transform="matrix(1.3333333,0,0,-1.3333333,694.90547,768.83333)"
         clip-path="url(#clipPath1098)" />
      <path
         id="path1099"
         d="M 0,0 C 1.503,1.46 2.097,6.185 2.272,7.152 2.289,7.241 1.368,19.15 1.368,19.15 l -4.673,0.871 c 0,0 -2.366,-8.546 -5.631,-10.722"
         style="fill:#ffffff;fill-opacity:1;fill-rule:nonzero;stroke:#050606;stroke-width:0.163;stroke-linecap:round;stroke-linejoin:round;stroke-miterlimit:10;stroke-dasharray:none;stroke-opacity:1"
         transform="matrix(1.3333333,0,0,-1.3333333,718.41853,766.13933)"
         clip-path="url(#clipPath1100)" />
      <path
         id="path1101"
         d="m 0,0 c 0,0 -2.616,-0.766 -3.017,-1.478 -1.121,-1.992 -1.882,-5.315 -2.052,-9.809 -0.171,-4.493 -0.91,-7.897 -0.91,-7.897 0,0 -0.5,-3.586 -1.466,-8.306 -0.967,-4.72 -1.478,-8.397 -1.478,-9.123 l -0.739,-2.542 c 0,0 1.933,-0.726 3.978,-0.59 l 0.454,5.611"
         style="fill:#ffffff;fill-opacity:1;fill-rule:nonzero;stroke:#050606;stroke-width:0.163;stroke-linecap:round;stroke-linejoin:miter;stroke-miterlimit:10;stroke-dasharray:none;stroke-opacity:1"
         transform="matrix(1.3333333,0,0,-1.3333333,692.04613,740.72853)"
         clip-path="url(#clipPath1102)" />
      <path
         id="path1103"
         d="m 0,0 c 0,0.136 3.23,10.935 3.515,12.206 0.284,1.271 1.048,2.269 1.874,7.426"
         style="fill:#ffffff;fill-opacity:1;fill-rule:nonzero;stroke:#050606;stroke-width:0.163;stroke-linecap:round;stroke-linejoin:miter;stroke-miterlimit:10;stroke-dasharray:none;stroke-opacity:1"
         transform="matrix(1.3333333,0,0,-1.3333333,684.77147,790.93813)"
         clip-path="url(#clipPath1104)" />
      <path
         id="path1105"
         d="m 0,0 c 0,0 2.43,-0.857 2.831,-1.57 1.121,-1.992 1.882,-5.315 2.053,-9.808 0.17,-4.494 0.909,-7.898 0.909,-7.898 0,0 0.5,-3.586 1.467,-8.306 0.966,-4.72 1.477,-8.397 1.477,-9.123 l 0.74,-2.542 c 0,0 -1.933,-0.726 -3.98,-0.59 l -0.452,5.611"
         style="fill:#ffffff;fill-opacity:1;fill-rule:nonzero;stroke:#050606;stroke-width:0.163;stroke-linecap:round;stroke-linejoin:miter;stroke-miterlimit:10;stroke-dasharray:none;stroke-opacity:1"
         transform="matrix(1.3333333,0,0,-1.3333333,720.2428,740.60613)"
         clip-path="url(#clipPath1106)" />
      <path
         id="path1107"
         d="M 0,0 C 0,0.136 -3.231,10.935 -3.516,12.206 -3.8,13.477 -4.88,14.967 -5.705,20.124"
         style="fill:#ffffff;fill-opacity:1;fill-rule:nonzero;stroke:#050606;stroke-width:0.163;stroke-linecap:round;stroke-linejoin:miter;stroke-miterlimit:10;stroke-dasharray:none;stroke-opacity:1"
         transform="matrix(1.3333333,0,0,-1.3333333,727.27013,790.93813)"
         clip-path="url(#clipPath1108)" />
      <path
         id="path1109"
         d="M 0,0 3.975,1.409 0.028,-0.077 C 0.007,-0.084 -0.017,-0.074 -0.024,-0.053 -0.032,-0.032 -0.021,-0.008 0,0 Z"
         style="fill:#050606;fill-opacity:1;fill-rule:nonzero;stroke:none"
         transform="matrix(1.3333333,0,0,-1.3333333,690.47453,759.53253)"
         clip-path="url(#clipPath1110)" />
      <path
         id="path1111"
         d="M 0,0 0.026,7.062 0.081,0 C 0.082,-0.022 0.063,-0.041 0.041,-0.041 0.019,-0.041 0,-0.023 0,0 Z"
         style="fill:#050606;fill-opacity:1;fill-rule:nonzero;stroke:none"
         transform="matrix(1.3333333,0,0,-1.3333333,701.304,768.81387)"
         clip-path="url(#clipPath1112)" />
      <path
         id="path1113"
         d="M 0,0 -3.946,1.486 0.028,0.077 C 0.049,0.069 0.061,0.046 0.053,0.024 0.045,0.003 0.021,-0.008 0.001,0 Z"
         style="fill:#050606;fill-opacity:1;fill-rule:nonzero;stroke:none"
         transform="matrix(1.3333333,0,0,-1.3333333,721.0396,759.4492)"
         clip-path="url(#clipPath1114)" />
    </g>
  </g>
</svg>
