<?xml version="1.0" encoding="UTF-8" standalone="no"?>
<!-- Created with Inkscape (http://www.inkscape.org/) -->

<svg
   width="178.59375mm"
   height="264.8479mm"
   viewBox="0 0 178.59375 264.8479"
   version="1.1"
   id="svg1"
   xmlns="http://www.w3.org/2000/svg"
   xmlns:svg="http://www.w3.org/2000/svg">
  <defs
     id="defs1">
    <clipPath
       clipPathUnits="userSpaceOnUse"
       id="clipPath1238">
      <path
         d="M 0,1063.397 H 1790.733 V 0 H 0 Z"
         transform="translate(-318.62401,-189.13243)"
         id="path1238" />
    </clipPath>
    <clipPath
       clipPathUnits="userSpaceOnUse"
       id="clipPath1240">
      <path
         d="M 0,1063.397 H 1790.733 V 0 H 0 Z"
         transform="translate(-306.12301,-166.3448)"
         id="path1240" />
    </clipPath>
    <clipPath
       clipPathUnits="userSpaceOnUse"
       id="clipPath1242">
      <path
         d="M 0,1063.397 H 1790.733 V 0 H 0 Z"
         transform="translate(-320.02781,-166.40443)"
         id="path1242" />
    </clipPath>
    <clipPath
       clipPathUnits="userSpaceOnUse"
       id="clipPath1244">
      <path
         d="M 0,1063.397 H 1790.733 V 0 H 0 Z"
         transform="translate(-309.80761,-166.39903)"
         id="path1244" />
    </clipPath>
    <clipPath
       clipPathUnits="userSpaceOnUse"
       id="clipPath1246">
      <path
         d="M 0,1063.397 H 1790.733 V 0 H 0 Z"
         transform="translate(-313.15721,-166.27258)"
         id="path1246" />
    </clipPath>
    <clipPath
       clipPathUnits="userSpaceOnUse"
       id="clipPath1248">
      <path
         d="M 0,1063.397 H 1790.733 V 0 H 0 Z"
         transform="translate(-317.68011,-166.2794)"
         id="path1248" />
    </clipPath>
    <clipPath
       clipPathUnits="userSpaceOnUse"
       id="clipPath1250">
      <path
         d="M 0,1063.397 H 1790.733 V 0 H 0 Z"
         transform="translate(-315.20261,-166.39513)"
         id="path1250" />
    </clipPath>
    <clipPath
       clipPathUnits="userSpaceOnUse"
       id="clipPath1252">
      <path
         d="M 0,1063.397 H 1790.733 V 0 H 0 Z"
         transform="translate(-316.09471,-166.32718)"
         id="path1252" />
    </clipPath>
    <clipPath
       clipPathUnits="userSpaceOnUse"
       id="clipPath1254">
      <path
         d="M 0,1063.397 H 1790.733 V 0 H 0 Z"
         transform="translate(-318.62401,-189.13243)"
         id="path1254" />
    </clipPath>
    <clipPath
       clipPathUnits="userSpaceOnUse"
       id="clipPath1256">
      <path
         d="M 0,1063.397 H 1790.733 V 0 H 0 Z"
         transform="translate(-318.30221,-190.72033)"
         id="path1256" />
    </clipPath>
    <clipPath
       clipPathUnits="userSpaceOnUse"
       id="clipPath1258">
      <path
         d="M 0,1063.397 H 1790.733 V 0 H 0 Z"
         transform="translate(-318.62841,-189.07633)"
         id="path1258" />
    </clipPath>
    <clipPath
       clipPathUnits="userSpaceOnUse"
       id="clipPath1260">
      <path
         d="M 0,1063.397 H 1790.733 V 0 H 0 Z"
         transform="translate(-301.34321,-181.61923)"
         id="path1260" />
    </clipPath>
    <clipPath
       clipPathUnits="userSpaceOnUse"
       id="clipPath1262">
      <path
         d="M 0,1063.397 H 1790.733 V 0 H 0 Z"
         transform="translate(-328.20551,-181.58803)"
         id="path1262" />
    </clipPath>
    <clipPath
       clipPathUnits="userSpaceOnUse"
       id="clipPath1264">
      <path
         d="M 0,1063.397 H 1790.733 V 0 H 0 Z"
         transform="translate(-301.37841,-181.80868)"
         id="path1264" />
    </clipPath>
    <clipPath
       clipPathUnits="userSpaceOnUse"
       id="clipPath1266">
      <path
         d="M 0,1063.397 H 1790.733 V 0 H 0 Z"
         transform="translate(-301.14301,-181.37953)"
         id="path1266" />
    </clipPath>
    <clipPath
       clipPathUnits="userSpaceOnUse"
       id="clipPath1268">
      <path
         d="M 0,1063.397 H 1790.733 V 0 H 0 Z"
         transform="translate(-301.42581,-175.3487)"
         id="path1268" />
    </clipPath>
    <clipPath
       clipPathUnits="userSpaceOnUse"
       id="clipPath1270">
      <path
         d="M 0,1063.397 H 1790.733 V 0 H 0 Z"
         transform="translate(-301.40381,-176.26078)"
         id="path1270" />
    </clipPath>
    <clipPath
       clipPathUnits="userSpaceOnUse"
       id="clipPath1272">
      <path
         d="M 0,1063.397 H 1790.733 V 0 H 0 Z"
         transform="translate(-301.37791,-180.19738)"
         id="path1272" />
    </clipPath>
    <clipPath
       clipPathUnits="userSpaceOnUse"
       id="clipPath1274">
      <path
         d="M 0,1063.397 H 1790.733 V 0 H 0 Z"
         transform="translate(-301.43361,-177.08548)"
         id="path1274" />
    </clipPath>
    <clipPath
       clipPathUnits="userSpaceOnUse"
       id="clipPath1276">
      <path
         d="M 0,1063.397 H 1790.733 V 0 H 0 Z"
         transform="translate(-301.45941,-178.5641)"
         id="path1276" />
    </clipPath>
    <clipPath
       clipPathUnits="userSpaceOnUse"
       id="clipPath1278">
      <path
         d="M 0,1063.397 H 1790.733 V 0 H 0 Z"
         transform="translate(-301.23391,-160.4762)"
         id="path1278" />
    </clipPath>
    <clipPath
       clipPathUnits="userSpaceOnUse"
       id="clipPath1280">
      <path
         d="M 0,1063.397 H 1790.733 V 0 H 0 Z"
         transform="translate(-298.70601,-169.4405)"
         id="path1280" />
    </clipPath>
    <clipPath
       clipPathUnits="userSpaceOnUse"
       id="clipPath1282">
      <path
         d="M 0,1063.397 H 1790.733 V 0 H 0 Z"
         transform="translate(-298.68751,-169.79548)"
         id="path1282" />
    </clipPath>
    <clipPath
       clipPathUnits="userSpaceOnUse"
       id="clipPath1284">
      <path
         d="M 0,1063.397 H 1790.733 V 0 H 0 Z"
         transform="translate(-298.16991,-158.1266)"
         id="path1284" />
    </clipPath>
    <clipPath
       clipPathUnits="userSpaceOnUse"
       id="clipPath1286">
      <path
         d="M 0,1063.397 H 1790.733 V 0 H 0 Z"
         transform="translate(-300.58401,-159.93613)"
         id="path1286" />
    </clipPath>
    <clipPath
       clipPathUnits="userSpaceOnUse"
       id="clipPath1288">
      <path
         d="M 0,1063.397 H 1790.733 V 0 H 0 Z"
         transform="translate(-299.37691,-158.95663)"
         id="path1288" />
    </clipPath>
    <clipPath
       clipPathUnits="userSpaceOnUse"
       id="clipPath1290">
      <path
         d="M 0,1063.397 H 1790.733 V 0 H 0 Z"
         transform="translate(-298.01071,-157.72228)"
         id="path1290" />
    </clipPath>
    <clipPath
       clipPathUnits="userSpaceOnUse"
       id="clipPath1292">
      <path
         d="M 0,1063.397 H 1790.733 V 0 H 0 Z"
         transform="translate(-301.45651,-174.49963)"
         id="path1292" />
    </clipPath>
    <clipPath
       clipPathUnits="userSpaceOnUse"
       id="clipPath1294">
      <path
         d="M 0,1063.397 H 1790.733 V 0 H 0 Z"
         transform="translate(-328.31341,-181.80868)"
         id="path1294" />
    </clipPath>
    <clipPath
       clipPathUnits="userSpaceOnUse"
       id="clipPath1296">
      <path
         d="M 0,1063.397 H 1790.733 V 0 H 0 Z"
         transform="translate(-328.54981,-181.3868)"
         id="path1296" />
    </clipPath>
    <clipPath
       clipPathUnits="userSpaceOnUse"
       id="clipPath1298">
      <path
         d="M 0,1063.397 H 1790.733 V 0 H 0 Z"
         transform="translate(-328.27341,-175.35208)"
         id="path1298" />
    </clipPath>
    <clipPath
       clipPathUnits="userSpaceOnUse"
       id="clipPath1300">
      <path
         d="M 0,1063.397 H 1790.733 V 0 H 0 Z"
         transform="translate(-328.29591,-176.2628)"
         id="path1300" />
    </clipPath>
    <clipPath
       clipPathUnits="userSpaceOnUse"
       id="clipPath1302">
      <path
         d="M 0,1063.397 H 1790.733 V 0 H 0 Z"
         transform="translate(-328.31441,-180.20473)"
         id="path1302" />
    </clipPath>
    <clipPath
       clipPathUnits="userSpaceOnUse"
       id="clipPath1304">
      <path
         d="M 0,1063.397 H 1790.733 V 0 H 0 Z"
         transform="translate(-328.26411,-177.09088)"
         id="path1304" />
    </clipPath>
    <clipPath
       clipPathUnits="userSpaceOnUse"
       id="clipPath1306">
      <path
         d="M 0,1063.397 H 1790.733 V 0 H 0 Z"
         transform="translate(-328.23531,-178.57138)"
         id="path1306" />
    </clipPath>
    <clipPath
       clipPathUnits="userSpaceOnUse"
       id="clipPath1308">
      <path
         d="M 0,1063.397 H 1790.733 V 0 H 0 Z"
         transform="translate(-328.45851,-160.4762)"
         id="path1308" />
    </clipPath>
    <clipPath
       clipPathUnits="userSpaceOnUse"
       id="clipPath1310">
      <path
         d="M 0,1063.397 H 1790.733 V 0 H 0 Z"
         transform="translate(-330.98581,-169.4405)"
         id="path1310" />
    </clipPath>
    <clipPath
       clipPathUnits="userSpaceOnUse"
       id="clipPath1312">
      <path
         d="M 0,1063.397 H 1790.733 V 0 H 0 Z"
         transform="translate(-331.00491,-169.79548)"
         id="path1312" />
    </clipPath>
    <clipPath
       clipPathUnits="userSpaceOnUse"
       id="clipPath1314">
      <path
         d="M 0,1063.397 H 1790.733 V 0 H 0 Z"
         transform="translate(-331.51711,-158.13193)"
         id="path1314" />
    </clipPath>
    <clipPath
       clipPathUnits="userSpaceOnUse"
       id="clipPath1316">
      <path
         d="M 0,1063.397 H 1790.733 V 0 H 0 Z"
         transform="translate(-329.10061,-159.93523)"
         id="path1316" />
    </clipPath>
    <clipPath
       clipPathUnits="userSpaceOnUse"
       id="clipPath1318">
      <path
         d="M 0,1063.397 H 1790.733 V 0 H 0 Z"
         transform="translate(-330.30861,-158.96053)"
         id="path1318" />
    </clipPath>
    <clipPath
       clipPathUnits="userSpaceOnUse"
       id="clipPath1320">
      <path
         d="M 0,1063.397 H 1790.733 V 0 H 0 Z"
         transform="translate(-331.68111,-157.72228)"
         id="path1320" />
    </clipPath>
    <clipPath
       clipPathUnits="userSpaceOnUse"
       id="clipPath1322">
      <path
         d="M 0,1063.397 H 1790.733 V 0 H 0 Z"
         transform="translate(-328.23531,-174.49963)"
         id="path1322" />
    </clipPath>
  </defs>
  <g
     id="layer1">
    <g
       id="g1944"
       transform="matrix(1.3096379,0,0,1.3711985,-459.70967,-1575.4373)">
      <path
         id="path1237"
         d="m 0,0 c 0,0 4.77,-11.813 8.683,-13.428 0,0 -0.735,-3.811 -1.286,-5.572 -0.643,-2.056 -1.982,-3.856 -1.982,-3.856 l -8.408,0.104 h -1.718 l -7.79,-0.036 c 0,0 -1.209,1.732 -1.538,2.661 -0.624,1.764 -1.835,7.946 -1.835,7.946 3.914,1.615 8.169,12.213 8.169,12.213"
         style="fill:#ffffff;fill-opacity:1;fill-rule:nonzero;stroke:#231f20;stroke-width:0.158;stroke-linecap:butt;stroke-linejoin:miter;stroke-miterlimit:10;stroke-dasharray:none;stroke-opacity:1"
         transform="matrix(1.3333333,0,0,-1.3333333,424.832,1165.6901)"
         clip-path="url(#clipPath1238)" />
      <path
         id="path1239"
         d="M 0,0 0.452,-2.26 H 17.28 l 0.636,2.191"
         style="fill:none;stroke:#231f20;stroke-width:0.158;stroke-linecap:butt;stroke-linejoin:miter;stroke-miterlimit:10;stroke-dasharray:none;stroke-opacity:1"
         transform="matrix(1.3333333,0,0,-1.3333333,408.164,1196.0736)"
         clip-path="url(#clipPath1240)" />
      <path
         id="path1241"
         d="M 0,0 C 0.602,0.822 1.099,1.72 1.474,2.664 1.831,3.613 2.01,4.648 1.835,5.659 L 1.843,5.661 C 2.041,4.651 1.88,3.604 1.533,2.642 1.184,1.678 0.663,0.778 0.006,-0.005 Z"
         style="fill:#231f20;fill-opacity:1;fill-rule:nonzero;stroke:none"
         transform="matrix(1.3333333,0,0,-1.3333333,426.70373,1195.9941)"
         clip-path="url(#clipPath1242)" />
      <path
         id="path1243"
         d="M 0,0 C -1.369,1.528 -1.925,3.655 -1.837,5.666 L -1.83,5.665 C -1.854,4.652 -1.717,3.634 -1.402,2.674 -1.251,2.191 -1.046,1.727 -0.809,1.282 -0.582,0.832 -0.318,0.396 0.006,0.005 Z"
         style="fill:#231f20;fill-opacity:1;fill-rule:nonzero;stroke:none"
         transform="matrix(1.3333333,0,0,-1.3333333,413.0768,1196.0013)"
         clip-path="url(#clipPath1244)" />
      <path
         id="path1245"
         d="m 0,0 c -0.615,0.403 -1.064,1.02 -1.375,1.679 -0.306,0.665 -0.49,1.382 -0.562,2.106 L -1.93,3.786 C -1.835,3.064 -1.633,2.358 -1.318,1.706 -0.983,1.069 -0.565,0.46 0.004,0.007 Z"
         style="fill:#231f20;fill-opacity:1;fill-rule:nonzero;stroke:none"
         transform="matrix(1.3333333,0,0,-1.3333333,417.54293,1196.1699)"
         clip-path="url(#clipPath1246)" />
      <path
         id="path1247"
         d="m 0,0 c 0.569,0.453 0.988,1.062 1.323,1.699 0.315,0.652 0.516,1.359 0.611,2.08 L 1.942,3.778 C 1.87,3.054 1.686,2.337 1.38,1.672 1.068,1.013 0.62,0.396 0.004,-0.007 Z"
         style="fill:#231f20;fill-opacity:1;fill-rule:nonzero;stroke:none"
         transform="matrix(1.3333333,0,0,-1.3333333,423.57347,1196.1608)"
         clip-path="url(#clipPath1248)" />
      <path
         id="path1249"
         d="m 0,0 c -0.615,0.403 -1.064,1.02 -1.375,1.679 -0.307,0.665 -0.49,1.382 -0.562,2.106 l 0.007,10e-4 c 0.095,-0.721 0.297,-1.428 0.612,-2.079 0.335,-0.638 0.753,-1.247 1.322,-1.7 z"
         style="fill:#231f20;fill-opacity:1;fill-rule:nonzero;stroke:none"
         transform="matrix(1.3333333,0,0,-1.3333333,420.27013,1196.0065)"
         clip-path="url(#clipPath1250)" />
      <path
         id="path1251"
         d="M 0,0 C -0.027,1.39 0.093,2.775 0.148,4.162 H 0.156 C 0.113,2.774 0.134,1.384 0.008,0 Z"
         style="fill:#231f20;fill-opacity:1;fill-rule:nonzero;stroke:none"
         transform="matrix(1.3333333,0,0,-1.3333333,421.4596,1196.0971)"
         clip-path="url(#clipPath1252)" />
      <path
         id="path1253"
         d="m 0,0 c -3.581,-2.176 -7.705,0.032 -7.705,0.032 0,0 0.6,1.385 0.655,1.592"
         style="fill:#ffffff;fill-opacity:1;fill-rule:nonzero;stroke:#231f20;stroke-width:0.139;stroke-linecap:butt;stroke-linejoin:miter;stroke-miterlimit:10;stroke-dasharray:none;stroke-opacity:1"
         transform="matrix(1.3333333,0,0,-1.3333333,424.832,1165.6901)"
         clip-path="url(#clipPath1254)" />
      <path
         id="path1255"
         d="M 0,0 C -2.842,-1.739 -6.706,0.049 -6.706,0.049"
         style="fill:#ffffff;fill-opacity:1;fill-rule:nonzero;stroke:#231f20;stroke-width:0.139;stroke-linecap:round;stroke-linejoin:round;stroke-miterlimit:10;stroke-dasharray:none;stroke-opacity:1"
         transform="matrix(1.3333333,0,0,-1.3333333,424.40293,1163.5729)"
         clip-path="url(#clipPath1256)" />
      <path
         id="path1257"
         d="M 0,0 C 0,0 -0.301,1.364 -0.326,1.644"
         style="fill:#ffffff;fill-opacity:1;fill-rule:nonzero;stroke:#231f20;stroke-width:0.139;stroke-linecap:butt;stroke-linejoin:miter;stroke-miterlimit:10;stroke-dasharray:none;stroke-opacity:1"
         transform="matrix(1.3333333,0,0,-1.3333333,424.83787,1165.7649)"
         clip-path="url(#clipPath1258)" />
      <path
         id="path1259"
         d="M 0,0 C 0,0 5.6,-2.314 9.576,7.545"
         style="fill:none;stroke:#231f20;stroke-width:0.069;stroke-linecap:butt;stroke-linejoin:miter;stroke-miterlimit:10;stroke-dasharray:none;stroke-opacity:1"
         transform="matrix(1.3333333,0,0,-1.3333333,401.79093,1175.7077)"
         clip-path="url(#clipPath1260)" />
      <path
         id="path1261"
         d="M 0,0 C 0,0 -5.662,-2.151 -9.582,7.488"
         style="fill:none;stroke:#231f20;stroke-width:0.068;stroke-linecap:butt;stroke-linejoin:miter;stroke-miterlimit:10;stroke-dasharray:none;stroke-opacity:1"
         transform="matrix(1.3333333,0,0,-1.3333333,437.60733,1175.7493)"
         clip-path="url(#clipPath1262)" />
      <path
         id="path1263"
         d="M 0,0 C 0,0 5.006,-2.413 9.489,7.368"
         style="fill:none;stroke:#231f20;stroke-width:0.068;stroke-linecap:butt;stroke-linejoin:miter;stroke-miterlimit:10;stroke-dasharray:none;stroke-opacity:1"
         transform="matrix(1.3333333,0,0,-1.3333333,401.83787,1175.4551)"
         clip-path="url(#clipPath1264)" />
      <path
         id="path1265"
         d="M 0,0 C -0.461,-0.102 -0.908,-0.263 -1.323,-0.479 -1.734,-0.703 -2.096,-1.028 -2.332,-1.44 l -0.006,0.003 c 0.443,0.85 1.398,1.371 2.337,1.444 z"
         style="fill:#231f20;fill-opacity:1;fill-rule:nonzero;stroke:none"
         transform="matrix(1.3333333,0,0,-1.3333333,401.524,1176.0273)"
         clip-path="url(#clipPath1266)" />
      <path
         id="path1267"
         d="m 0,0 c -0.437,-0.886 -1.298,-1.518 -2.216,-1.82 l -0.002,0.008 c 0.456,0.169 0.883,0.415 1.249,0.732 0.363,0.319 0.691,0.68 0.962,1.083 z"
         style="fill:#231f20;fill-opacity:1;fill-rule:nonzero;stroke:none"
         transform="matrix(1.3333333,0,0,-1.3333333,401.90107,1184.0684)"
         clip-path="url(#clipPath1268)" />
      <path
         id="path1269"
         d="m 0,0 c -0.169,-0.718 -0.78,-1.238 -1.402,-1.559 l -0.003,0.007 c 0.309,0.178 0.591,0.402 0.826,0.665 0.225,0.27 0.43,0.562 0.572,0.889 z"
         style="fill:#231f20;fill-opacity:1;fill-rule:nonzero;stroke:none"
         transform="matrix(1.3333333,0,0,-1.3333333,401.87173,1182.8523)"
         clip-path="url(#clipPath1270)" />
      <path
         id="path1271"
         d="m 0,0 c -0.331,-0.063 -0.642,-0.187 -0.948,-0.319 -0.301,-0.145 -0.585,-0.328 -0.846,-0.54 l -0.005,0.005 C -1.304,-0.417 -0.696,0.003 0,0.007 Z"
         style="fill:#231f20;fill-opacity:1;fill-rule:nonzero;stroke:none"
         transform="matrix(1.3333333,0,0,-1.3333333,401.8372,1177.6035)"
         clip-path="url(#clipPath1272)" />
      <path
         id="path1273"
         d="m 0,0 c -0.491,-0.532 -1.274,-0.658 -1.955,-0.606 v 0.008 c 0.349,-0.01 0.699,0.034 1.029,0.136 0.324,0.114 0.642,0.258 0.92,0.467 z"
         style="fill:#231f20;fill-opacity:1;fill-rule:nonzero;stroke:none"
         transform="matrix(1.3333333,0,0,-1.3333333,401.91147,1181.7527)"
         clip-path="url(#clipPath1274)" />
      <path
         id="path1275"
         d="m 0,0 c -0.574,-0.273 -1.193,-0.414 -1.793,-0.613 l -0.002,0.008 c 0.595,0.209 1.171,0.478 1.793,0.612 z"
         style="fill:#231f20;fill-opacity:1;fill-rule:nonzero;stroke:none"
         transform="matrix(1.3333333,0,0,-1.3333333,401.94587,1179.7812)"
         clip-path="url(#clipPath1276)" />
      <path
         id="path1277"
         d="M 0,0 C 0,0 0.821,0.533 1.348,1.769 1.87,2.994 2.022,3.545 1.236,5.026 1.015,5.443 -0.562,5.737 -1.236,6.447 -1.91,7.158 -2.472,8.935 -2.472,8.935 c 0.066,1.038 1.108,2.004 1.901,3.259 0.564,0.893 0.964,2.307 0.964,2.307 0,0 0.081,3.318 0.012,4.423 -0.057,0.915 -0.348,2.415 -0.348,2.415 0.094,0.062 -2.036,0.48 -3.248,-0.058 -3.62,-1.608 -2.622,-3.36 -3.381,-3.817 -0.787,-0.474 -5.022,-4.905 -5.449,-5.805 -0.562,-1.185 -1.067,-1.303 -0.843,-3.376 0.097,-0.89 1.424,-5.718 2.023,-6.218 1.348,-1.125 0.851,-3.508 1.179,-4.264 0.618,-1.421 2.303,-1.895 3.314,-1.48 1.012,0.414 2.795,0.822 3.02,0.881"
         style="fill:none;stroke:#231f20;stroke-width:0.152;stroke-linecap:butt;stroke-linejoin:miter;stroke-miterlimit:10;stroke-dasharray:none;stroke-opacity:1"
         transform="matrix(1.3333333,0,0,-1.3333333,401.6452,1203.8984)"
         clip-path="url(#clipPath1278)" />
      <path
         id="path1279"
         d="m 0,0 c -0.539,0.106 -1.097,0.148 -1.629,0.029 -0.539,-0.099 -1.017,-0.418 -1.333,-0.873 0.142,0.235 0.316,0.461 0.552,0.614 0.231,0.156 0.492,0.268 0.764,0.333 C -1.096,0.199 -0.526,0.17 0,0"
         style="fill:#231f20;fill-opacity:1;fill-rule:nonzero;stroke:none"
         transform="matrix(1.3333333,0,0,-1.3333333,398.27467,1191.946)"
         clip-path="url(#clipPath1280)" />
      <path
         id="path1281"
         d="m 0,0 c -0.583,0.281 -1.172,0.551 -1.794,0.724 -0.608,0.19 -1.271,0.314 -1.895,0.12 0.611,0.259 1.301,0.119 1.917,-0.048 C -1.154,0.597 -0.553,0.339 0,0"
         style="fill:#231f20;fill-opacity:1;fill-rule:nonzero;stroke:none"
         transform="matrix(1.3333333,0,0,-1.3333333,398.25,1191.4727)"
         clip-path="url(#clipPath1282)" />
      <path
         id="path1283"
         d="m 0,0 c -1.596,1.458 -3.094,3.016 -4.634,4.53 l 0.005,0.006 C -3.08,3.03 -1.488,1.568 0.005,0.005 Z"
         style="fill:#231f20;fill-opacity:1;fill-rule:nonzero;stroke:none"
         transform="matrix(1.3333333,0,0,-1.3333333,397.55987,1207.0312)"
         clip-path="url(#clipPath1284)" />
      <path
         id="path1285"
         d="m 0,0 c 0.006,0.719 -0.025,1.437 -0.083,2.153 -0.068,0.715 -0.193,1.426 -0.422,2.109 l 0.007,0.003 c 0.249,-0.677 0.394,-1.389 0.476,-2.106 0.086,-0.716 0.1,-1.442 0.03,-2.16 z"
         style="fill:#231f20;fill-opacity:1;fill-rule:nonzero;stroke:none"
         transform="matrix(1.3333333,0,0,-1.3333333,400.77867,1204.6185)"
         clip-path="url(#clipPath1286)" />
      <path
         id="path1287"
         d="m 0,0 c -0.82,1.145 -1.521,2.366 -2.275,3.553 l 0.006,0.004 C -1.505,2.376 -0.69,1.228 0.006,0.004 Z"
         style="fill:#231f20;fill-opacity:1;fill-rule:nonzero;stroke:none"
         transform="matrix(1.3333333,0,0,-1.3333333,399.1692,1205.9245)"
         clip-path="url(#clipPath1288)" />
      <path
         id="path1289"
         d="M 0,0 3.371,2.82 4.74,1.222 1.643,-1.821 Z"
         style="fill:none;stroke:#231f20;stroke-width:0.152;stroke-linecap:butt;stroke-linejoin:miter;stroke-miterlimit:10;stroke-dasharray:none;stroke-opacity:1"
         transform="matrix(1.3333333,0,0,-1.3333333,397.3476,1207.5703)"
         clip-path="url(#clipPath1290)" />
      <path
         id="path1291"
         d="M 0,0 C 0,0 0.068,3.541 -0.001,4.661 -0.058,5.587 -0.332,7.413 -0.332,7.413"
         style="fill:none;stroke:#231f20;stroke-width:0.076;stroke-linecap:butt;stroke-linejoin:miter;stroke-miterlimit:10;stroke-dasharray:none;stroke-opacity:1"
         transform="matrix(1.3333333,0,0,-1.3333333,401.942,1185.2005)"
         clip-path="url(#clipPath1292)" />
      <path
         id="path1293"
         d="M 0,0 C 0,0 -5.207,-2.465 -9.689,7.316"
         style="fill:none;stroke:#231f20;stroke-width:0.068;stroke-linecap:butt;stroke-linejoin:miter;stroke-miterlimit:10;stroke-dasharray:none;stroke-opacity:1"
         transform="matrix(1.3333333,0,0,-1.3333333,437.7512,1175.4551)"
         clip-path="url(#clipPath1294)" />
      <path
         id="path1295"
         d="M 0,0 C 0.939,-0.074 1.894,-0.595 2.337,-1.444 L 2.331,-1.448 C 2.095,-1.036 1.734,-0.71 1.322,-0.486 0.907,-0.27 0.461,-0.109 -0.001,-0.007 Z"
         style="fill:#231f20;fill-opacity:1;fill-rule:nonzero;stroke:none"
         transform="matrix(1.3333333,0,0,-1.3333333,438.0664,1176.0176)"
         clip-path="url(#clipPath1296)" />
      <path
         id="path1297"
         d="M 0,0 C 0.271,-0.404 0.6,-0.765 0.962,-1.083 1.328,-1.4 1.755,-1.646 2.211,-1.816 L 2.208,-1.823 c -0.917,0.302 -1.778,0.934 -2.215,1.82 z"
         style="fill:#231f20;fill-opacity:1;fill-rule:nonzero;stroke:none"
         transform="matrix(1.3333333,0,0,-1.3333333,437.69787,1184.0639)"
         clip-path="url(#clipPath1298)" />
      <path
         id="path1299"
         d="M 0,0 C 0.141,-0.327 0.346,-0.619 0.571,-0.889 0.807,-1.152 1.089,-1.376 1.398,-1.554 L 1.394,-1.561 C 0.772,-1.24 0.162,-0.72 -0.007,-0.002 Z"
         style="fill:#231f20;fill-opacity:1;fill-rule:nonzero;stroke:none"
         transform="matrix(1.3333333,0,0,-1.3333333,437.72787,1182.8496)"
         clip-path="url(#clipPath1300)" />
      <path
         id="path1301"
         d="M 0,0 C 0.696,-0.004 1.303,-0.425 1.799,-0.861 L 1.794,-0.867 C 1.533,-0.654 1.249,-0.472 0.947,-0.326 0.642,-0.194 0.33,-0.07 0,-0.007 Z"
         style="fill:#231f20;fill-opacity:1;fill-rule:nonzero;stroke:none"
         transform="matrix(1.3333333,0,0,-1.3333333,437.75253,1177.5937)"
         clip-path="url(#clipPath1302)" />
      <path
         id="path1303"
         d="M 0,0 C 0.278,-0.209 0.596,-0.354 0.92,-0.467 1.25,-0.57 1.6,-0.613 1.949,-0.604 L 1.95,-0.611 c -0.681,-0.053 -1.465,0.074 -1.955,0.606 z"
         style="fill:#231f20;fill-opacity:1;fill-rule:nonzero;stroke:none"
         transform="matrix(1.3333333,0,0,-1.3333333,437.68547,1181.7455)"
         clip-path="url(#clipPath1304)" />
      <path
         id="path1305"
         d="M 0,0 C 0.621,-0.135 1.197,-0.403 1.793,-0.613 L 1.791,-0.62 c -0.6,0.199 -1.22,0.339 -1.793,0.613 z"
         style="fill:#231f20;fill-opacity:1;fill-rule:nonzero;stroke:none"
         transform="matrix(1.3333333,0,0,-1.3333333,437.64707,1179.7715)"
         clip-path="url(#clipPath1306)" />
      <path
         id="path1307"
         d="m 0,0 c 0,0 -0.822,0.533 -1.348,1.769 -0.522,1.225 -0.674,1.776 0.112,3.257 0.221,0.417 1.798,0.711 2.472,1.421 0.674,0.711 1.235,2.488 1.235,2.488 -0.065,1.038 -1.108,2.004 -1.901,3.259 -0.563,0.893 -0.964,2.307 -0.964,2.307 0,0 -0.081,3.318 -0.011,4.423 0.056,0.915 0.348,2.415 0.348,2.415 -0.094,0.062 2.036,0.48 3.248,-0.058 3.62,-1.608 2.621,-3.36 3.381,-3.817 0.786,-0.474 5.022,-4.905 5.449,-5.805 0.562,-1.185 1.067,-1.303 0.842,-3.376 C 12.767,7.393 11.44,2.565 10.841,2.065 9.493,0.94 9.99,-1.443 9.662,-2.199 9.043,-3.62 7.358,-4.094 6.347,-3.679 5.336,-3.265 3.553,-2.857 3.328,-2.798"
         style="fill:none;stroke:#231f20;stroke-width:0.152;stroke-linecap:butt;stroke-linejoin:miter;stroke-miterlimit:10;stroke-dasharray:none;stroke-opacity:1"
         transform="matrix(1.3333333,0,0,-1.3333333,437.94467,1203.8984)"
         clip-path="url(#clipPath1308)" />
      <path
         id="path1309"
         d="M 0,0 C 0.526,0.17 1.097,0.199 1.646,0.103 1.918,0.038 2.179,-0.074 2.41,-0.23 2.646,-0.383 2.82,-0.609 2.962,-0.844 2.646,-0.389 2.168,-0.07 1.63,0.029 1.097,0.148 0.539,0.106 0,0"
         style="fill:#231f20;fill-opacity:1;fill-rule:nonzero;stroke:none"
         transform="matrix(1.3333333,0,0,-1.3333333,441.3144,1191.946)"
         clip-path="url(#clipPath1310)" />
      <path
         id="path1311"
         d="M 0,0 C 0.553,0.339 1.153,0.597 1.772,0.796 2.387,0.963 3.078,1.103 3.688,0.844 3.064,1.038 2.402,0.914 1.794,0.724 1.172,0.551 0.583,0.281 0,0"
         style="fill:#231f20;fill-opacity:1;fill-rule:nonzero;stroke:none"
         transform="matrix(1.3333333,0,0,-1.3333333,441.33987,1191.4727)"
         clip-path="url(#clipPath1312)" />
      <path
         id="path1313"
         d="M 0,0 C 1.494,1.562 3.085,3.024 4.634,4.53 L 4.64,4.525 C 3.099,3.011 1.601,1.453 0.005,-0.005 Z"
         style="fill:#231f20;fill-opacity:1;fill-rule:nonzero;stroke:none"
         transform="matrix(1.3333333,0,0,-1.3333333,442.0228,1207.0241)"
         clip-path="url(#clipPath1314)" />
      <path
         id="path1315"
         d="M 0,0 C -0.07,0.718 -0.057,1.444 0.03,2.16 0.112,2.877 0.256,3.589 0.506,4.266 L 0.513,4.263 C 0.284,3.58 0.158,2.869 0.09,2.154 0.032,1.438 0.001,0.72 0.007,0.001 Z"
         style="fill:#231f20;fill-opacity:1;fill-rule:nonzero;stroke:none"
         transform="matrix(1.3333333,0,0,-1.3333333,438.8008,1204.6197)"
         clip-path="url(#clipPath1316)" />
      <path
         id="path1317"
         d="M 0,0 C 0.697,1.224 1.512,2.372 2.275,3.553 L 2.282,3.549 C 1.528,2.362 0.827,1.141 0.006,-0.004 Z"
         style="fill:#231f20;fill-opacity:1;fill-rule:nonzero;stroke:none"
         transform="matrix(1.3333333,0,0,-1.3333333,440.41147,1205.9193)"
         clip-path="url(#clipPath1318)" />
      <path
         id="path1319"
         d="M 0,0 -3.37,2.82 -4.74,1.222 -1.643,-1.821 Z"
         style="fill:none;stroke:#231f20;stroke-width:0.152;stroke-linecap:butt;stroke-linejoin:miter;stroke-miterlimit:10;stroke-dasharray:none;stroke-opacity:1"
         transform="matrix(1.3333333,0,0,-1.3333333,442.24147,1207.5703)"
         clip-path="url(#clipPath1320)" />
      <path
         id="path1321"
         d="M 0,0 C 0,0 -0.067,3.541 0.001,4.661 0.059,5.587 0.333,7.413 0.333,7.413"
         style="fill:none;stroke:#231f20;stroke-width:0.076;stroke-linecap:butt;stroke-linejoin:miter;stroke-miterlimit:10;stroke-dasharray:none;stroke-opacity:1"
         transform="matrix(1.3333333,0,0,-1.3333333,437.64707,1185.2005)"
         clip-path="url(#clipPath1322)" />
    </g>
  </g>
</svg>
