<?xml version="1.0" encoding="UTF-8" standalone="no"?>
<!-- Created with Inkscape (http://www.inkscape.org/) -->

<svg
   width="178.59375mm"
   height="264.8479mm"
   viewBox="0 0 178.59375 264.8479"
   version="1.1"
   id="svg1"
   xmlns="http://www.w3.org/2000/svg"
   xmlns:svg="http://www.w3.org/2000/svg">
  <defs
     id="defs1">
    <clipPath
       clipPathUnits="userSpaceOnUse"
       id="clipPath316">
      <path
         d="M 0,1063.397 H 1790.733 V 0 H 0 Z"
         transform="translate(-520.63231,-827.29312)"
         id="path316" />
    </clipPath>
    <clipPath
       clipPathUnits="userSpaceOnUse"
       id="clipPath318">
      <path
         d="M 0,1063.397 H 1790.733 V 0 H 0 Z"
         transform="translate(-520.88032,-821.11732)"
         id="path318" />
    </clipPath>
    <clipPath
       clipPathUnits="userSpaceOnUse"
       id="clipPath320">
      <path
         d="M 0,1063.397 H 1790.733 V 0 H 0 Z"
         transform="translate(-536.24261,-827.29312)"
         id="path320" />
    </clipPath>
    <clipPath
       clipPathUnits="userSpaceOnUse"
       id="clipPath322">
      <path
         d="M 0,1063.397 H 1790.733 V 0 H 0 Z"
         transform="translate(-535.90571,-821.11342)"
         id="path322" />
    </clipPath>
    <clipPath
       clipPathUnits="userSpaceOnUse"
       id="clipPath324">
      <path
         d="M 0,1063.397 H 1790.733 V 0 H 0 Z"
         transform="translate(-514.25531,-818.79502)"
         id="path324" />
    </clipPath>
    <clipPath
       clipPathUnits="userSpaceOnUse"
       id="clipPath326">
      <path
         d="M 0,1063.397 H 1790.733 V 0 H 0 Z"
         transform="translate(-540.93601,-818.79502)"
         id="path326" />
    </clipPath>
    <clipPath
       clipPathUnits="userSpaceOnUse"
       id="clipPath328">
      <path
         d="M 0,1063.397 H 1790.733 V 0 H 0 Z"
         transform="translate(-520.94482,-821.07432)"
         id="path328" />
    </clipPath>
  </defs>
  <g
     id="layer1">
    <g
       id="g1928"
       transform="matrix(1.3096453,0,0,1.3712033,-830.66805,-405.82942)">
      <path
         id="path315"
         d="M 0,0 C 0,0.035 -0.191,0.034 -0.19,-0.001"
         style="fill:none;stroke:#1b181a;stroke-width:0.053;stroke-linecap:butt;stroke-linejoin:round;stroke-miterlimit:10;stroke-dasharray:none;stroke-opacity:1"
         transform="matrix(1.3333333,0,0,-1.3333333,694.1764,314.8092)"
         clip-path="url(#clipPath316)" />
      <path
         id="path317"
         d="M 0,0 H 0.164 C 0.04,2.046 -0.133,4.146 -0.257,6.191 h -0.201 z"
         style="fill:#ffffff;fill-opacity:1;fill-rule:nonzero;stroke:#1b181a;stroke-width:0.024;stroke-linecap:butt;stroke-linejoin:round;stroke-miterlimit:10;stroke-dasharray:none;stroke-opacity:1"
         transform="matrix(1.3333333,0,0,-1.3333333,694.50707,323.0436)"
         clip-path="url(#clipPath318)" />
      <path
         id="path319"
         d="M 0,0 C 0,0.035 0.191,0.034 0.19,-0.001"
         style="fill:none;stroke:#1b181a;stroke-width:0.053;stroke-linecap:butt;stroke-linejoin:round;stroke-miterlimit:10;stroke-dasharray:none;stroke-opacity:1"
         transform="matrix(1.3333333,0,0,-1.3333333,714.99013,314.8092)"
         clip-path="url(#clipPath320)" />
      <path
         id="path321"
         d="M 0,0 C -0.012,0 -0.172,-0.001 -0.184,-0.001 -0.023,1.805 0.192,3.66 0.353,5.466 L 0.578,5.468 Z"
         style="fill:#ffffff;fill-opacity:1;fill-rule:nonzero;stroke:#1b181a;stroke-width:0.024;stroke-linecap:butt;stroke-linejoin:round;stroke-miterlimit:10;stroke-dasharray:none;stroke-opacity:1"
         transform="matrix(1.3333333,0,0,-1.3333333,714.54093,323.0488)"
         clip-path="url(#clipPath322)" />
      <path
         id="path323"
         d="M 0,0 6.679,2.275 7.395,-13.751 4.067,-13.767 Z"
         style="fill:none;stroke:#1b181a;stroke-width:0.082;stroke-linecap:butt;stroke-linejoin:round;stroke-miterlimit:10;stroke-dasharray:none;stroke-opacity:1"
         transform="matrix(1.3333333,0,0,-1.3333333,685.67373,326.14)"
         clip-path="url(#clipPath324)" />
      <path
         id="path325"
         d="m 0,0 -4.938,2.279 -0.828,-16.03 h 1.51 z"
         style="fill:none;stroke:#1b181a;stroke-width:0.082;stroke-linecap:butt;stroke-linejoin:miter;stroke-miterlimit:10;stroke-dasharray:none;stroke-opacity:1"
         transform="matrix(1.3333333,0,0,-1.3333333,721.248,326.14)"
         clip-path="url(#clipPath326)" />
      <path
         id="path327"
         d="M 0,0 H 15.053 L 14.226,-16.031 H 0.705 Z"
         style="fill:none;stroke:#1b181a;stroke-width:0.082;stroke-linecap:butt;stroke-linejoin:round;stroke-miterlimit:10;stroke-dasharray:none;stroke-opacity:1"
         transform="matrix(1.3333333,0,0,-1.3333333,694.59307,323.10093)"
         clip-path="url(#clipPath328)" />
    </g>
  </g>
</svg>
