<?xml version="1.0" encoding="UTF-8" standalone="no"?>
<!-- Created with Inkscape (http://www.inkscape.org/) -->

<svg
   width="178.59375mm"
   height="264.8479mm"
   viewBox="0 0 178.59375 264.8479"
   version="1.1"
   id="svg1"
   xmlns="http://www.w3.org/2000/svg"
   xmlns:svg="http://www.w3.org/2000/svg">
  <defs
     id="defs1">
    <clipPath
       clipPathUnits="userSpaceOnUse"
       id="clipPath692">
      <path
         d="M 0,1063.397 H 1790.733 V 0 H 0 Z"
         transform="translate(-1156.5015,-989.59442)"
         id="path692" />
    </clipPath>
    <clipPath
       clipPathUnits="userSpaceOnUse"
       id="clipPath694">
      <path
         d="M 0,1063.397 H 1790.733 V 0 H 0 Z"
         transform="translate(-1156.5279,-989.72282)"
         id="path694" />
    </clipPath>
    <clipPath
       clipPathUnits="userSpaceOnUse"
       id="clipPath696">
      <path
         d="M 0,1063.397 H 1790.733 V 0 H 0 Z"
         transform="translate(-1156.2525,-985.33702)"
         id="path696" />
    </clipPath>
    <clipPath
       clipPathUnits="userSpaceOnUse"
       id="clipPath698">
      <path
         d="M 0,1063.397 H 1790.733 V 0 H 0 Z"
         transform="translate(-1164.0465,-982.91612)"
         id="path698" />
    </clipPath>
    <clipPath
       clipPathUnits="userSpaceOnUse"
       id="clipPath700">
      <path
         d="M 0,1063.397 H 1790.733 V 0 H 0 Z"
         transform="translate(-1152.7974,-976.63292)"
         id="path700" />
    </clipPath>
    <clipPath
       clipPathUnits="userSpaceOnUse"
       id="clipPath702">
      <path
         d="M 0,1063.397 H 1790.733 V 0 H 0 Z"
         transform="translate(-1156.9468,-967.98742)"
         id="path702" />
    </clipPath>
    <clipPath
       clipPathUnits="userSpaceOnUse"
       id="clipPath704">
      <path
         d="M 0,1063.397 H 1790.733 V 0 H 0 Z"
         transform="translate(-1171.4077,-989.59442)"
         id="path704" />
    </clipPath>
    <clipPath
       clipPathUnits="userSpaceOnUse"
       id="clipPath706">
      <path
         d="M 0,1063.397 H 1790.733 V 0 H 0 Z"
         transform="translate(-1171.3813,-989.72282)"
         id="path706" />
    </clipPath>
    <clipPath
       clipPathUnits="userSpaceOnUse"
       id="clipPath708">
      <path
         d="M 0,1063.397 H 1790.733 V 0 H 0 Z"
         transform="translate(-1171.6567,-985.33702)"
         id="path708" />
    </clipPath>
    <clipPath
       clipPathUnits="userSpaceOnUse"
       id="clipPath710">
      <path
         d="M 0,1063.397 H 1790.733 V 0 H 0 Z"
         transform="translate(-1163.8629,-982.91612)"
         id="path710" />
    </clipPath>
    <clipPath
       clipPathUnits="userSpaceOnUse"
       id="clipPath712">
      <path
         d="M 0,1063.397 H 1790.733 V 0 H 0 Z"
         transform="translate(-1175.1118,-976.53382)"
         id="path712" />
    </clipPath>
    <clipPath
       clipPathUnits="userSpaceOnUse"
       id="clipPath714">
      <path
         d="M 0,1063.397 H 1790.733 V 0 H 0 Z"
         transform="translate(-1170.8638,-967.98742)"
         id="path714" />
    </clipPath>
  </defs>
  <g
     id="layer1">
    <g
       id="g1923"
       transform="matrix(1.3096391,0,0,1.3711993,-1941.8225,-108.32931)">
      <path
         id="path691"
         d="M 0,0 C 0.097,0 -0.249,-4.26 -0.249,-4.26"
         style="fill:none;stroke:#231f20;stroke-width:0.078;stroke-linecap:round;stroke-linejoin:round;stroke-miterlimit:10;stroke-dasharray:none;stroke-opacity:1"
         transform="matrix(1.3333333,0,0,-1.3333333,1542.002,98.407467)"
         clip-path="url(#clipPath692)" />
      <path
         id="path693"
         d="M 0,0 C 0.31,0 0.256,-4.392 0.256,-4.392"
         style="fill:none;stroke:#231f20;stroke-width:0.078;stroke-linecap:round;stroke-linejoin:round;stroke-miterlimit:10;stroke-dasharray:none;stroke-opacity:1"
         transform="matrix(1.3333333,0,0,-1.3333333,1542.0371,98.236267)"
         clip-path="url(#clipPath694)" />
      <path
         id="path695"
         d="m 0,0 c 0,0 -0.116,-1.232 -0.906,-4.424 -1.121,-4.534 -2.809,-4.277 -2.809,-4.277 -0.057,-2.255 0.711,-2.661 1.259,-5.928 3.963,-2.954 2.898,-3.118 10.121,-8.095"
         style="fill:none;stroke:#231f20;stroke-width:0.099;stroke-linecap:round;stroke-linejoin:round;stroke-miterlimit:10;stroke-dasharray:none;stroke-opacity:1"
         transform="matrix(1.3333333,0,0,-1.3333333,1541.6699,104.084)"
         clip-path="url(#clipPath696)" />
      <path
         id="path697"
         d="M 0,0 C -6.076,0 -7.263,2.415 -7.263,2.415"
         style="fill:none;stroke:#231f20;stroke-width:0.099;stroke-linecap:round;stroke-linejoin:round;stroke-miterlimit:10;stroke-dasharray:none;stroke-opacity:1"
         transform="matrix(1.3333333,0,0,-1.3333333,1552.0619,107.31187)"
         clip-path="url(#clipPath698)" />
      <path
         id="path699"
         d="M 0,0 4.539,-0.05 0,-0.099 Z"
         style="fill:#231f20;fill-opacity:1;fill-rule:nonzero;stroke:none"
         transform="matrix(1.3333333,0,0,-1.3333333,1537.0632,115.68947)"
         clip-path="url(#clipPath700)" />
      <path
         id="path701"
         d="M 0,0 0.049,4.186 0.099,0 Z"
         style="fill:#231f20;fill-opacity:1;fill-rule:nonzero;stroke:none"
         transform="matrix(1.3333333,0,0,-1.3333333,1542.5957,127.2168)"
         clip-path="url(#clipPath702)" />
      <path
         id="path703"
         d="M 0,0 C -0.097,0 0.249,-4.26 0.249,-4.26"
         style="fill:none;stroke:#231f20;stroke-width:0.078;stroke-linecap:round;stroke-linejoin:round;stroke-miterlimit:10;stroke-dasharray:none;stroke-opacity:1"
         transform="matrix(1.3333333,0,0,-1.3333333,1561.8769,98.407467)"
         clip-path="url(#clipPath704)" />
      <path
         id="path705"
         d="M 0,0 C -0.31,0 -0.256,-4.392 -0.256,-4.392"
         style="fill:none;stroke:#231f20;stroke-width:0.078;stroke-linecap:round;stroke-linejoin:round;stroke-miterlimit:10;stroke-dasharray:none;stroke-opacity:1"
         transform="matrix(1.3333333,0,0,-1.3333333,1561.8417,98.236267)"
         clip-path="url(#clipPath706)" />
      <path
         id="path707"
         d="m 0,0 c 0,0 0.116,-1.232 0.906,-4.424 1.121,-4.534 2.605,-4.277 2.605,-4.277 0.057,-2.255 -0.284,-2.661 -1.198,-5.928 -3.963,-2.954 -2.755,-3.118 -9.978,-8.095"
         style="fill:none;stroke:#231f20;stroke-width:0.099;stroke-linecap:round;stroke-linejoin:round;stroke-miterlimit:10;stroke-dasharray:none;stroke-opacity:1"
         transform="matrix(1.3333333,0,0,-1.3333333,1562.2089,104.084)"
         clip-path="url(#clipPath708)" />
      <path
         id="path709"
         d="M 0,0 C 6.076,0 7.263,2.415 7.263,2.415"
         style="fill:none;stroke:#231f20;stroke-width:0.099;stroke-linecap:round;stroke-linejoin:round;stroke-miterlimit:10;stroke-dasharray:none;stroke-opacity:1"
         transform="matrix(1.3333333,0,0,-1.3333333,1551.8171,107.31187)"
         clip-path="url(#clipPath710)" />
      <path
         id="path711"
         d="M 0,0 -4.539,0.049 0,0.099 Z"
         style="fill:#231f20;fill-opacity:1;fill-rule:nonzero;stroke:none"
         transform="matrix(1.3333333,0,0,-1.3333333,1566.8157,115.8216)"
         clip-path="url(#clipPath712)" />
      <path
         id="path713"
         d="M 0,0 0.05,4.186 0.099,0 Z"
         style="fill:#231f20;fill-opacity:1;fill-rule:nonzero;stroke:none"
         transform="matrix(1.3333333,0,0,-1.3333333,1561.1517,127.2168)"
         clip-path="url(#clipPath714)" />
    </g>
  </g>
</svg>
