<?xml version="1.0" encoding="UTF-8" standalone="no"?>
<!-- Created with Inkscape (http://www.inkscape.org/) -->

<svg
   width="178.59375mm"
   height="264.8479mm"
   viewBox="0 0 178.59375 264.8479"
   version="1.1"
   id="svg1"
   xmlns="http://www.w3.org/2000/svg"
   xmlns:svg="http://www.w3.org/2000/svg">
  <defs
     id="defs1">
    <clipPath
       clipPathUnits="userSpaceOnUse"
       id="clipPath1433">
      <path
         d="M 0,1063.397 H 1790.733 V 0 H 0 Z"
         transform="translate(-940.37845,-656.34391)"
         id="path1433" />
    </clipPath>
    <clipPath
       clipPathUnits="userSpaceOnUse"
       id="clipPath1435">
      <path
         d="M 0,1063.397 H 1790.733 V 0 H 0 Z"
         transform="translate(-963.44575,-655.20622)"
         id="path1435" />
    </clipPath>
    <clipPath
       clipPathUnits="userSpaceOnUse"
       id="clipPath1437">
      <path
         d="M 0,1063.397 H 1790.733 V 0 H 0 Z"
         transform="translate(-942.46922,-668.50062)"
         id="path1437" />
    </clipPath>
    <clipPath
       clipPathUnits="userSpaceOnUse"
       id="clipPath1439">
      <path
         d="M 0,1063.397 H 1790.733 V 0 H 0 Z"
         transform="translate(-940.37845,-656.34391)"
         id="path1439" />
    </clipPath>
    <clipPath
       clipPathUnits="userSpaceOnUse"
       id="clipPath1441">
      <path
         d="M 0,1063.397 H 1790.733 V 0 H 0 Z"
         transform="translate(-940.37845,-656.34391)"
         id="path1441" />
    </clipPath>
    <clipPath
       clipPathUnits="userSpaceOnUse"
       id="clipPath1443">
      <path
         d="M 0,1063.397 H 1790.733 V 0 H 0 Z"
         transform="translate(-939.61472,-635.78041)"
         id="path1443" />
    </clipPath>
    <clipPath
       clipPathUnits="userSpaceOnUse"
       id="clipPath1445">
      <path
         d="M 0,1063.397 H 1790.733 V 0 H 0 Z"
         transform="translate(-946.21825,-669.30582)"
         id="path1445" />
    </clipPath>
    <clipPath
       clipPathUnits="userSpaceOnUse"
       id="clipPath1447">
      <path
         d="M 0,1063.397 H 1790.733 V 0 H 0 Z"
         transform="translate(-956.72702,-645.16962)"
         id="path1447" />
    </clipPath>
    <clipPath
       clipPathUnits="userSpaceOnUse"
       id="clipPath1449">
      <path
         d="M 0,1063.397 H 1790.733 V 0 H 0 Z"
         transform="translate(-948.8764,-645.11881)"
         id="path1449" />
    </clipPath>
    <clipPath
       clipPathUnits="userSpaceOnUse"
       id="clipPath1451">
      <path
         d="M 0,1063.397 H 1790.733 V 0 H 0 Z"
         transform="translate(-959.6938,-652.68472)"
         id="path1451" />
    </clipPath>
    <clipPath
       clipPathUnits="userSpaceOnUse"
       id="clipPath1453">
      <path
         d="M 0,1063.397 H 1790.733 V 0 H 0 Z"
         transform="translate(-944.6479,-652.68472)"
         id="path1453" />
    </clipPath>
  </defs>
  <g
     id="layer1">
    <g
       id="g1937"
       transform="matrix(1.3096453,0,0,1.3712132,-1571.3268,-694.71754)">
      <path
         id="path1432"
         d="m 0,0 c 0.834,-4.058 2.715,-9.738 3.549,-13.795 5.355,-1.154 15.722,-0.049 15.722,-0.049 0.482,0.743 4.009,10.267 3.796,12.706"
         style="fill:#ffffff;fill-opacity:1;fill-rule:nonzero;stroke:#050606;stroke-width:0.208;stroke-linecap:round;stroke-linejoin:round;stroke-miterlimit:10;stroke-dasharray:none;stroke-opacity:1"
         transform="matrix(1.3333333,0,0,-1.3333333,1253.8379,542.74147)"
         clip-path="url(#clipPath1433)" />
      <path
         id="path1434"
         d="M 0,0 C -0.051,0.026 -8.799,2.721 -11.125,3.766 -15.079,5.54 -17.354,14.591 -17.228,14.1"
         style="fill:#ffffff;fill-opacity:1;fill-rule:nonzero;stroke:#050606;stroke-width:0.208;stroke-linecap:round;stroke-linejoin:round;stroke-miterlimit:10;stroke-dasharray:none;stroke-opacity:1"
         transform="matrix(1.3333333,0,0,-1.3333333,1284.5943,544.2584)"
         clip-path="url(#clipPath1435)" />
      <path
         id="path1436"
         d="m 0,0 c -0.709,-0.178 -2.668,-0.146 -3.981,-1.017 -2.468,-1.635 -4.062,-5.832 -4.723,-6.698 -4.256,-5.579 -9.767,-14.139 -9.527,-14.376 4.417,-4.387 7.476,-9.62 11.893,-14.006"
         style="fill:#ffffff;fill-opacity:1;fill-rule:nonzero;stroke:#050606;stroke-width:0.208;stroke-linecap:round;stroke-linejoin:round;stroke-miterlimit:10;stroke-dasharray:none;stroke-opacity:1"
         transform="matrix(1.3333333,0,0,-1.3333333,1256.6256,526.53253)"
         clip-path="url(#clipPath1437)" />
      <path
         id="path1438"
         d="m 0,0 c -1.289,-1.079 -1.633,-1.457 -2.922,-2.743 -2.451,-2.444 -4.477,-4.685 -6.588,-6.421 3.087,-4.023 5.66,-7.377 8.746,-11.399"
         style="fill:none;stroke:#050606;stroke-width:0.208;stroke-linecap:round;stroke-linejoin:round;stroke-miterlimit:10;stroke-dasharray:none;stroke-opacity:1"
         transform="matrix(1.3333333,0,0,-1.3333333,1253.8379,542.74147)"
         clip-path="url(#clipPath1439)" />
      <path
         id="path1440"
         d="M 0,0 C 1.121,1.198 3.547,6.302 2.091,12.13"
         style="fill:none;stroke:#050606;stroke-width:0.208;stroke-linecap:round;stroke-linejoin:round;stroke-miterlimit:10;stroke-dasharray:none;stroke-opacity:1"
         transform="matrix(1.3333333,0,0,-1.3333333,1253.8379,542.74147)"
         clip-path="url(#clipPath1441)" />
      <path
         id="path1442"
         d="M 0,0 C -0.787,-1.095 -2.11,-2.548 -3.433,-3.455"
         style="fill:none;stroke:#050606;stroke-width:0.208;stroke-linecap:round;stroke-linejoin:round;stroke-miterlimit:10;stroke-dasharray:none;stroke-opacity:1"
         transform="matrix(1.3333333,0,0,-1.3333333,1252.8196,570.15947)"
         clip-path="url(#clipPath1443)" />
      <path
         id="path1444"
         d="M 0,0 -3.712,-0.784"
         style="fill:none;stroke:#050606;stroke-width:0.208;stroke-linecap:round;stroke-linejoin:round;stroke-miterlimit:10;stroke-dasharray:none;stroke-opacity:1"
         transform="matrix(1.3333333,0,0,-1.3333333,1261.6243,525.45893)"
         clip-path="url(#clipPath1445)" />
      <path
         id="path1446"
         d="M 0,0 -0.772,-2.95"
         style="fill:none;stroke:#050606;stroke-width:0.104;stroke-linecap:round;stroke-linejoin:round;stroke-miterlimit:10;stroke-dasharray:none;stroke-opacity:1"
         transform="matrix(1.3333333,0,0,-1.3333333,1275.636,557.64053)"
         clip-path="url(#clipPath1447)" />
      <path
         id="path1448"
         d="M 0,0 0.019,-2.849"
         style="fill:none;stroke:#050606;stroke-width:0.104;stroke-linecap:round;stroke-linejoin:round;stroke-miterlimit:10;stroke-dasharray:none;stroke-opacity:1"
         transform="matrix(1.3333333,0,0,-1.3333333,1265.1685,557.70827)"
         clip-path="url(#clipPath1449)" />
      <path
         id="path1450"
         d="M 0,0 2.954,-0.845"
         style="fill:none;stroke:#050606;stroke-width:0.104;stroke-linecap:round;stroke-linejoin:round;stroke-miterlimit:10;stroke-dasharray:none;stroke-opacity:1"
         transform="matrix(1.3333333,0,0,-1.3333333,1279.5917,547.6204)"
         clip-path="url(#clipPath1451)" />
      <path
         id="path1452"
         d="M 0,0 -2.954,-0.845"
         style="fill:none;stroke:#050606;stroke-width:0.104;stroke-linecap:round;stroke-linejoin:round;stroke-miterlimit:10;stroke-dasharray:none;stroke-opacity:1"
         transform="matrix(1.3333333,0,0,-1.3333333,1259.5305,547.6204)"
         clip-path="url(#clipPath1453)" />
    </g>
  </g>
</svg>
