<?xml version="1.0" encoding="UTF-8" standalone="no"?>
<!-- Created with Inkscape (http://www.inkscape.org/) -->

<svg
   width="178.59375mm"
   height="264.8479mm"
   viewBox="0 0 178.59375 264.8479"
   version="1.1"
   id="svg1"
   xmlns="http://www.w3.org/2000/svg"
   xmlns:svg="http://www.w3.org/2000/svg">
  <defs
     id="defs1">
    <clipPath
       clipPathUnits="userSpaceOnUse"
       id="clipPath1031">
      <path
         d="M 0,1063.397 H 1790.733 V 0 H 0 Z"
         transform="translate(-110.5161,-488.02841)"
         id="path1031" />
    </clipPath>
    <clipPath
       clipPathUnits="userSpaceOnUse"
       id="clipPath1033">
      <path
         d="M 0,1063.397 H 1790.733 V 0 H 0 Z"
         transform="translate(-109.28121,-482.41071)"
         id="path1033" />
    </clipPath>
    <clipPath
       clipPathUnits="userSpaceOnUse"
       id="clipPath1035">
      <path
         d="M 0,1063.397 H 1790.733 V 0 H 0 Z"
         transform="translate(-94.460905,-487.13391)"
         id="path1035" />
    </clipPath>
    <clipPath
       clipPathUnits="userSpaceOnUse"
       id="clipPath1037">
      <path
         d="M 0,1063.397 H 1790.733 V 0 H 0 Z"
         transform="translate(-91.569805,-492.72571)"
         id="path1037" />
    </clipPath>
    <clipPath
       clipPathUnits="userSpaceOnUse"
       id="clipPath1039">
      <path
         d="M 0,1063.397 H 1790.733 V 0 H 0 Z"
         transform="translate(-109.5312,-485.86831)"
         id="path1039" />
    </clipPath>
    <clipPath
       clipPathUnits="userSpaceOnUse"
       id="clipPath1041">
      <path
         d="M 0,1063.397 H 1790.733 V 0 H 0 Z"
         transform="translate(-108.7876,-483.94391)"
         id="path1041" />
    </clipPath>
    <clipPath
       clipPathUnits="userSpaceOnUse"
       id="clipPath1043">
      <path
         d="M 0,1063.397 H 1790.733 V 0 H 0 Z"
         transform="translate(-93.236305,-483.46251)"
         id="path1043" />
    </clipPath>
    <clipPath
       clipPathUnits="userSpaceOnUse"
       id="clipPath1045">
      <path
         d="M 0,1063.397 H 1790.733 V 0 H 0 Z"
         transform="translate(-111.8193,-507.35121)"
         id="path1045" />
    </clipPath>
    <clipPath
       clipPathUnits="userSpaceOnUse"
       id="clipPath1047">
      <path
         d="M 0,1063.397 H 1790.733 V 0 H 0 Z"
         transform="translate(-90.950102,-507.32532)"
         id="path1047" />
    </clipPath>
  </defs>
  <g
     id="layer1">
    <g
       id="g1938"
       transform="matrix(1.3096391,0,0,1.3712073,-85.675793,-988.09613)">
      <path
         id="path1030"
         d="m 0,0 c 0,0 1.995,5.832 2,8.107 0.005,2.674 -0.102,6.424 0.903,10.941 0.069,0.31 -3.384,0.948 -3.384,0.948 0,0 2.379,-7.044 -8.249,-16.039 0,0 2.806,-2.254 3.776,-2.962 0.746,-0.544 3.087,-2.043 3.087,-2.043 z"
         style="fill:#ffffff;fill-opacity:1;fill-rule:nonzero;stroke:#050606;stroke-width:0.127;stroke-linecap:butt;stroke-linejoin:round;stroke-miterlimit:10;stroke-dasharray:none;stroke-opacity:1"
         transform="matrix(1.3333333,0,0,-1.3333333,147.3548,767.16213)"
         clip-path="url(#clipPath1031)" />
      <path
         id="path1032"
         d="m 0,0 c 0,0 -5.208,0.822 -9.384,2.486 -4.793,1.911 -9.065,3.685 -9.065,3.685 0,0 -1.676,4.447 -1.131,6.655 0.636,2.573 0.11,10.027 0,11.583 -0.022,0.318 3.321,1.243 3.321,1.243 0,0 -3.257,-10.113 16.725,-21.736 z"
         style="fill:#ffffff;fill-opacity:1;fill-rule:nonzero;stroke:#050606;stroke-width:0.127;stroke-linecap:butt;stroke-linejoin:round;stroke-miterlimit:10;stroke-dasharray:none;stroke-opacity:1"
         transform="matrix(1.3333333,0,0,-1.3333333,145.70827,774.6524)"
         clip-path="url(#clipPath1033)" />
      <path
         id="path1034"
         d="m 0,0 c -0.541,-0.568 -1.944,-1.599 -1.944,-1.599 l 0.485,-3.069 c 0,0 5.601,0.123 8.491,1.823"
         style="fill:#ffffff;fill-opacity:1;fill-rule:nonzero;stroke:#050606;stroke-width:0.127;stroke-linecap:round;stroke-linejoin:miter;stroke-miterlimit:10;stroke-dasharray:none;stroke-opacity:1"
         transform="matrix(1.3333333,0,0,-1.3333333,125.94787,768.3548)"
         clip-path="url(#clipPath1035)" />
      <path
         id="path1036"
         d="m 0,0 c 0.276,-0.222 0.545,-0.439 0.833,-0.638 0.286,-0.198 0.583,-0.38 0.892,-0.536 0.309,-0.156 0.629,-0.294 0.964,-0.378 0.333,-0.085 0.68,-0.126 1.024,-0.092 -0.344,-0.039 -0.692,-0.003 -1.028,0.077 -0.337,0.078 -0.661,0.212 -0.974,0.363 -0.312,0.153 -0.614,0.33 -0.904,0.526 -0.29,0.193 -0.569,0.412 -0.841,0.624 z"
         style="fill:#050606;fill-opacity:1;fill-rule:nonzero;stroke:none"
         transform="matrix(1.3333333,0,0,-1.3333333,122.09307,760.89907)"
         clip-path="url(#clipPath1037)" />
      <path
         id="path1038"
         d="m 0,0 c -0.872,0.423 -0.883,0.386 -1.747,0.816 l -2.584,1.288 c -0.861,0.427 -1.726,0.851 -2.592,1.268 -0.433,0.209 -0.869,0.414 -1.305,0.617 -0.439,0.194 -0.872,0.408 -1.327,0.558 0.456,-0.147 0.89,-0.359 1.33,-0.551 0.437,-0.2 0.873,-0.403 1.308,-0.609 0.869,-0.413 1.735,-0.831 2.6,-1.254 L -1.726,0.86 C -0.864,0.436 -0.86,0.413 0,0"
         style="fill:#050606;fill-opacity:1;fill-rule:nonzero;stroke:none"
         transform="matrix(1.3333333,0,0,-1.3333333,146.0416,770.04227)"
         clip-path="url(#clipPath1039)" />
      <path
         id="path1040"
         d="M 0,0 C -0.511,0.288 -1.019,0.581 -1.524,0.879 -2.03,1.178 -2.532,1.481 -3.03,1.793 -3.525,2.108 -4.023,2.423 -4.485,2.79 -4.02,2.427 -3.52,2.118 -3.021,1.807 -2.522,1.5 -2.017,1.201 -1.509,0.907 -1.001,0.614 -0.491,0.326 0.022,0.043 0.536,-0.239 0.512,-0.287 0,0"
         style="fill:#050606;fill-opacity:1;fill-rule:nonzero;stroke:none"
         transform="matrix(1.3333333,0,0,-1.3333333,145.05013,772.60813)"
         clip-path="url(#clipPath1041)" />
      <path
         id="path1042"
         d="M 0,0 C 0.836,0.203 1.223,0.364 2.055,0.584 2.471,0.695 2.887,0.807 3.3,0.927 3.712,1.051 4.128,1.166 4.525,1.337 4.13,1.161 3.715,1.04 3.305,0.912 2.893,0.786 2.478,0.669 2.063,0.553 1.233,0.322 0.401,0.102 -0.433,-0.112 Z"
         style="fill:#050606;fill-opacity:1;fill-rule:nonzero;stroke:none"
         transform="matrix(1.3333333,0,0,-1.3333333,124.31507,773.25)"
         clip-path="url(#clipPath1043)" />
      <path
         id="path1044"
         d="M 0,0 C 0,0 -3.145,-18.31 -5.076,-19.083"
         style="fill:none;stroke:#050606;stroke-width:0.127;stroke-linecap:round;stroke-linejoin:miter;stroke-miterlimit:10;stroke-dasharray:none;stroke-opacity:1"
         transform="matrix(1.3333333,0,0,-1.3333333,149.0924,741.3984)"
         clip-path="url(#clipPath1045)" />
      <path
         id="path1046"
         d="M 0,0 C -0.046,0.173 -2.571,-19.446 18.331,-24.915"
         style="fill:none;stroke:#050606;stroke-width:0.127;stroke-linecap:round;stroke-linejoin:miter;stroke-miterlimit:10;stroke-dasharray:none;stroke-opacity:1"
         transform="matrix(1.3333333,0,0,-1.3333333,121.2668,741.43293)"
         clip-path="url(#clipPath1047)" />
    </g>
  </g>
</svg>
