<?xml version="1.0" encoding="UTF-8" standalone="no"?>
<!-- Created with Inkscape (http://www.inkscape.org/) -->

<svg
   width="178.59375mm"
   height="264.8479mm"
   viewBox="0 0 178.59375 264.8479"
   version="1.1"
   id="svg1"
   xmlns="http://www.w3.org/2000/svg"
   xmlns:svg="http://www.w3.org/2000/svg">
  <defs
     id="defs1">
    <clipPath
       clipPathUnits="userSpaceOnUse"
       id="clipPath716">
      <path
         d="M 0,1063.397 H 1790.733 V 0 H 0 Z"
         transform="translate(-1581.0435,-989.59442)"
         id="path716" />
    </clipPath>
    <clipPath
       clipPathUnits="userSpaceOnUse"
       id="clipPath718">
      <path
         d="M 0,1063.397 H 1790.733 V 0 H 0 Z"
         transform="translate(-1581.0699,-989.72282)"
         id="path718" />
    </clipPath>
    <clipPath
       clipPathUnits="userSpaceOnUse"
       id="clipPath720">
      <path
         d="M 0,1063.397 H 1790.733 V 0 H 0 Z"
         transform="translate(-1580.7945,-985.33702)"
         id="path720" />
    </clipPath>
    <clipPath
       clipPathUnits="userSpaceOnUse"
       id="clipPath722">
      <path
         d="M 0,1063.397 H 1790.733 V 0 H 0 Z"
         transform="translate(-1596.2397,-985.33702)"
         id="path722" />
    </clipPath>
    <clipPath
       clipPathUnits="userSpaceOnUse"
       id="clipPath724">
      <path
         d="M 0,1063.397 H 1790.733 V 0 H 0 Z"
         transform="translate(-1588.5885,-982.91612)"
         id="path724" />
    </clipPath>
    <clipPath
       clipPathUnits="userSpaceOnUse"
       id="clipPath726">
      <path
         d="M 0,1063.397 H 1790.733 V 0 H 0 Z"
         transform="translate(-1577.3394,-976.58362)"
         id="path726" />
    </clipPath>
    <clipPath
       clipPathUnits="userSpaceOnUse"
       id="clipPath728">
      <path
         d="M 0,1063.397 H 1790.733 V 0 H 0 Z"
         transform="translate(-1577.3394,-976.63292)"
         id="path728" />
    </clipPath>
    <clipPath
       clipPathUnits="userSpaceOnUse"
       id="clipPath730">
      <path
         d="M 0,1063.397 H 1790.733 V 0 H 0 Z"
         transform="translate(-1581.5376,-968.45473)"
         id="path730" />
    </clipPath>
    <clipPath
       clipPathUnits="userSpaceOnUse"
       id="clipPath732">
      <path
         d="M 0,1063.397 H 1790.733 V 0 H 0 Z"
         transform="translate(-1581.4849,-968.45473)"
         id="path732" />
    </clipPath>
    <clipPath
       clipPathUnits="userSpaceOnUse"
       id="clipPath734">
      <path
         d="M 0,1063.397 H 1790.733 V 0 H 0 Z"
         transform="translate(-1595.9497,-989.59442)"
         id="path734" />
    </clipPath>
    <clipPath
       clipPathUnits="userSpaceOnUse"
       id="clipPath736">
      <path
         d="M 0,1063.397 H 1790.733 V 0 H 0 Z"
         transform="translate(-1595.9233,-989.72282)"
         id="path736" />
    </clipPath>
    <clipPath
       clipPathUnits="userSpaceOnUse"
       id="clipPath738">
      <path
         d="M 0,1063.397 H 1790.733 V 0 H 0 Z"
         transform="translate(-1588.4049,-982.91612)"
         id="path738" />
    </clipPath>
    <clipPath
       clipPathUnits="userSpaceOnUse"
       id="clipPath740">
      <path
         d="M 0,1063.397 H 1790.733 V 0 H 0 Z"
         transform="translate(-1595.4556,-968.65543)"
         id="path740" />
    </clipPath>
    <clipPath
       clipPathUnits="userSpaceOnUse"
       id="clipPath742">
      <path
         d="M 0,1063.397 H 1790.733 V 0 H 0 Z"
         transform="translate(-1595.4028,-968.65543)"
         id="path742" />
    </clipPath>
  </defs>
  <g
     id="layer1">
    <g
       id="g1925"
       transform="matrix(1.3096561,0,0,1.3711993,-2683.6345,-108.32931)">
      <path
         id="path715"
         d="M 0,0 C 0.097,0 -0.249,-4.26 -0.249,-4.26"
         style="fill:#ffffff;fill-opacity:1;fill-rule:nonzero;stroke:#231f20;stroke-width:0.078;stroke-linecap:round;stroke-linejoin:round;stroke-miterlimit:10;stroke-dasharray:none;stroke-opacity:1"
         transform="matrix(1.3333333,0,0,-1.3333333,2108.058,98.407467)"
         clip-path="url(#clipPath716)" />
      <path
         id="path717"
         d="M 0,0 C 0.31,0 0.256,-4.392 0.256,-4.392"
         style="fill:#ffffff;fill-opacity:1;fill-rule:nonzero;stroke:#231f20;stroke-width:0.078;stroke-linecap:round;stroke-linejoin:round;stroke-miterlimit:10;stroke-dasharray:none;stroke-opacity:1"
         transform="matrix(1.3333333,0,0,-1.3333333,2108.0931,98.236267)"
         clip-path="url(#clipPath718)" />
      <path
         id="path719"
         d="m 0,0 c 0,0 -0.116,-1.232 -0.906,-4.424 -1.121,-4.534 -2.809,-4.277 -2.809,-4.277 -0.057,-2.255 0.711,-3.661 1.259,-6.928 3.963,-2.954 18.273,-1.219 20.165,-0.664"
         style="fill:#ffffff;fill-opacity:1;fill-rule:nonzero;stroke:#231f20;stroke-width:0.099;stroke-linecap:round;stroke-linejoin:round;stroke-miterlimit:10;stroke-dasharray:none;stroke-opacity:1"
         transform="matrix(1.3333333,0,0,-1.3333333,2107.7259,104.084)"
         clip-path="url(#clipPath720)" />
      <path
         id="path721"
         d="m 0,0 c 0,0 0.116,-1.232 0.906,-4.424 1.121,-4.534 2.809,-4.277 2.809,-4.277 0.057,-2.255 -0.902,-4.325 -1.451,-7.592"
         style="fill:#ffffff;fill-opacity:1;fill-rule:nonzero;stroke:#231f20;stroke-width:0.099;stroke-linecap:round;stroke-linejoin:round;stroke-miterlimit:10;stroke-dasharray:none;stroke-opacity:1"
         transform="matrix(1.3333333,0,0,-1.3333333,2128.3196,104.084)"
         clip-path="url(#clipPath722)" />
      <path
         id="path723"
         d="M 0,0 C -6.076,0 -7.263,2.415 -7.263,2.415"
         style="fill:#ffffff;fill-opacity:1;fill-rule:nonzero;stroke:#231f20;stroke-width:0.099;stroke-linecap:round;stroke-linejoin:round;stroke-miterlimit:10;stroke-dasharray:none;stroke-opacity:1"
         transform="matrix(1.3333333,0,0,-1.3333333,2118.1179,107.31187)"
         clip-path="url(#clipPath724)" />
      <path
         id="path725"
         d="M 0,0 H 4.539"
         style="fill:#ffffff;fill-opacity:1;fill-rule:nonzero;stroke:none"
         transform="matrix(1.3333333,0,0,-1.3333333,2103.1192,115.7552)"
         clip-path="url(#clipPath726)" />
      <path
         id="path727"
         d="M 0,0 4.539,-0.05 0,-0.099 Z"
         style="fill:#231f20;fill-opacity:1;fill-rule:nonzero;stroke:none"
         transform="matrix(1.3333333,0,0,-1.3333333,2103.1192,115.68947)"
         clip-path="url(#clipPath728)" />
      <path
         id="path729"
         d="M 0,0 V 4.719"
         style="fill:#ffffff;fill-opacity:1;fill-rule:nonzero;stroke:none"
         transform="matrix(1.3333333,0,0,-1.3333333,2108.7168,126.59373)"
         clip-path="url(#clipPath730)" />
      <path
         id="path731"
         d="M 0,0 0.053,4.719 0.105,0 Z"
         style="fill:#231f20;fill-opacity:1;fill-rule:nonzero;stroke:none"
         transform="matrix(1.3333333,0,0,-1.3333333,2108.6465,126.59373)"
         clip-path="url(#clipPath732)" />
      <path
         id="path733"
         d="M 0,0 C -0.097,0 0.249,-4.26 0.249,-4.26"
         style="fill:#ffffff;fill-opacity:1;fill-rule:nonzero;stroke:#231f20;stroke-width:0.078;stroke-linecap:round;stroke-linejoin:round;stroke-miterlimit:10;stroke-dasharray:none;stroke-opacity:1"
         transform="matrix(1.3333333,0,0,-1.3333333,2127.9329,98.407467)"
         clip-path="url(#clipPath734)" />
      <path
         id="path735"
         d="M 0,0 C -0.31,0 -0.256,-4.392 -0.256,-4.392"
         style="fill:#ffffff;fill-opacity:1;fill-rule:nonzero;stroke:#231f20;stroke-width:0.078;stroke-linecap:round;stroke-linejoin:round;stroke-miterlimit:10;stroke-dasharray:none;stroke-opacity:1"
         transform="matrix(1.3333333,0,0,-1.3333333,2127.8977,98.236267)"
         clip-path="url(#clipPath736)" />
      <path
         id="path737"
         d="M 0,0 C 6.076,0 7.263,2.415 7.263,2.415"
         style="fill:#ffffff;fill-opacity:1;fill-rule:nonzero;stroke:#231f20;stroke-width:0.099;stroke-linecap:round;stroke-linejoin:round;stroke-miterlimit:10;stroke-dasharray:none;stroke-opacity:1"
         transform="matrix(1.3333333,0,0,-1.3333333,2117.8731,107.31187)"
         clip-path="url(#clipPath738)" />
      <path
         id="path739"
         d="M 0,0 V 4.719"
         style="fill:#ffffff;fill-opacity:1;fill-rule:nonzero;stroke:none"
         transform="matrix(1.3333333,0,0,-1.3333333,2127.2741,126.32613)"
         clip-path="url(#clipPath740)" />
      <path
         id="path741"
         d="M 0,0 0.053,4.719 0.105,0 Z"
         style="fill:#231f20;fill-opacity:1;fill-rule:nonzero;stroke:none"
         transform="matrix(1.3333333,0,0,-1.3333333,2127.2037,126.32613)"
         clip-path="url(#clipPath742)" />
    </g>
  </g>
</svg>
