<?xml version="1.0" encoding="UTF-8" standalone="no"?>
<!-- Created with Inkscape (http://www.inkscape.org/) -->

<svg
   width="178.59375mm"
   height="264.8479mm"
   viewBox="0 0 178.59375 264.8479"
   version="1.1"
   id="svg1"
   xmlns="http://www.w3.org/2000/svg"
   xmlns:svg="http://www.w3.org/2000/svg">
  <defs
     id="defs1">
    <clipPath
       clipPathUnits="userSpaceOnUse"
       id="clipPath1477">
      <path
         d="M 0,1063.397 H 1790.733 V 0 H 0 Z"
         transform="translate(-536.46431,-668.40931)"
         id="path1477" />
    </clipPath>
    <clipPath
       clipPathUnits="userSpaceOnUse"
       id="clipPath1479">
      <path
         d="M 0,1063.397 H 1790.733 V 0 H 0 Z"
         transform="translate(-519.42821,-668.31652)"
         id="path1479" />
    </clipPath>
    <clipPath
       clipPathUnits="userSpaceOnUse"
       id="clipPath1481">
      <path
         d="M 0,1063.397 H 1790.733 V 0 H 0 Z"
         transform="translate(-518.54632,-648.31362)"
         id="path1481" />
    </clipPath>
    <clipPath
       clipPathUnits="userSpaceOnUse"
       id="clipPath1483">
      <path
         d="M 0,1063.397 H 1790.733 V 0 H 0 Z"
         transform="translate(-531.93011,-649.06021)"
         id="path1483" />
    </clipPath>
    <clipPath
       clipPathUnits="userSpaceOnUse"
       id="clipPath1485">
      <path
         d="M 0,1063.397 H 1790.733 V 0 H 0 Z"
         transform="translate(-534.76021,-649.03822)"
         id="path1485" />
    </clipPath>
    <clipPath
       clipPathUnits="userSpaceOnUse"
       id="clipPath1487">
      <path
         d="M 0,1063.397 H 1790.733 V 0 H 0 Z"
         transform="translate(-524.48581,-649.03092)"
         id="path1487" />
    </clipPath>
    <clipPath
       clipPathUnits="userSpaceOnUse"
       id="clipPath1489">
      <path
         d="M 0,1063.397 H 1790.733 V 0 H 0 Z"
         transform="translate(-521.57561,-649.03381)"
         id="path1489" />
    </clipPath>
    <clipPath
       clipPathUnits="userSpaceOnUse"
       id="clipPath1491">
      <path
         d="M 0,1063.397 H 1790.733 V 0 H 0 Z"
         transform="translate(-527.74261,-649.03482)"
         id="path1491" />
    </clipPath>
    <clipPath
       clipPathUnits="userSpaceOnUse"
       id="clipPath1493">
      <path
         d="M 0,1063.397 H 1790.733 V 0 H 0 Z"
         transform="translate(-529.77781,-649.03722)"
         id="path1493" />
    </clipPath>
    <clipPath
       clipPathUnits="userSpaceOnUse"
       id="clipPath1615">
      <path
         d="M 0,1063.397 H 1790.733 V 0 H 0 Z"
         transform="translate(-517.53271,-650.47381)"
         id="path1615" />
    </clipPath>
    <clipPath
       clipPathUnits="userSpaceOnUse"
       id="clipPath1617">
      <path
         d="M 0,1063.397 H 1790.733 V 0 H 0 Z"
         transform="translate(-511.15672,-631.77112)"
         id="path1617" />
    </clipPath>
    <clipPath
       clipPathUnits="userSpaceOnUse"
       id="clipPath1619">
      <path
         d="M 0,1063.397 H 1790.733 V 0 H 0 Z"
         transform="translate(-507.89111,-633.13392)"
         id="path1619" />
    </clipPath>
    <clipPath
       clipPathUnits="userSpaceOnUse"
       id="clipPath1621">
      <path
         d="M 0,1063.397 H 1790.733 V 0 H 0 Z"
         transform="translate(-507.88721,-633.13642)"
         id="path1621" />
    </clipPath>
    <clipPath
       clipPathUnits="userSpaceOnUse"
       id="clipPath1623">
      <path
         d="M 0,1063.397 H 1790.733 V 0 H 0 Z"
         transform="translate(-510.09712,-632.43811)"
         id="path1623" />
    </clipPath>
    <clipPath
       clipPathUnits="userSpaceOnUse"
       id="clipPath1625">
      <path
         d="M 0,1063.397 H 1790.733 V 0 H 0 Z"
         transform="translate(-510.09322,-632.44152)"
         id="path1625" />
    </clipPath>
    <clipPath
       clipPathUnits="userSpaceOnUse"
       id="clipPath1627">
      <path
         d="M 0,1063.397 H 1790.733 V 0 H 0 Z"
         transform="translate(-509.75531,-630.69541)"
         id="path1627" />
    </clipPath>
  </defs>
  <g
     id="layer1">
    <g
       id="g1935"
       transform="matrix(1.3096379,0,0,1.3712102,-831.4479,-694.86232)">
      <path
         id="path1476"
         d="M 0,0 0.702,-8.288 0.931,-8.372 0.223,0.023 C 0.217,0.089 0.17,0.139 0.114,0.139 H 0.108 C 0.045,0.139 -0.006,0.075 0,0 Z"
         style="fill:none;stroke:#1b181a;stroke-width:0.061;stroke-linecap:butt;stroke-linejoin:miter;stroke-miterlimit:10;stroke-dasharray:none;stroke-opacity:1"
         transform="matrix(1.3333333,0,0,-1.3333333,715.28573,526.65427)"
         clip-path="url(#clipPath1477)" />
      <path
         id="path1478"
         d="M 0,0 C 0.428,0.091 2.388,0.537 3.354,1.209 3.407,1.246 3.48,1.236 3.517,1.185 4.098,0.358 10.432,-6.174 20.871,-9.237 c 1.827,-0.536 -1.689,-10.645 -3.041,-10.645 -1.322,0 -18.269,-0.336 -18.712,0.112 -1.457,1.474 -1.848,2.974 -0.969,7.875 C -0.757,-5.801 -0.12,-0.8 -0.087,-0.1 -0.085,-0.051 -0.05,-0.011 0,0"
         style="fill:#ffffff;fill-opacity:1;fill-rule:nonzero;stroke:#050606;stroke-width:0.127;stroke-linecap:butt;stroke-linejoin:miter;stroke-miterlimit:10;stroke-dasharray:none;stroke-opacity:1"
         transform="matrix(1.3333333,0,0,-1.3333333,692.57093,526.778)"
         clip-path="url(#clipPath1479)" />
      <path
         id="path1480"
         d="M 0,0 0.913,-2.671 H 17.95 l 0.762,2.567"
         style="fill:#ffffff;fill-opacity:1;fill-rule:nonzero;stroke:#050606;stroke-width:0.122;stroke-linecap:butt;stroke-linejoin:miter;stroke-miterlimit:10;stroke-dasharray:none;stroke-opacity:1"
         transform="matrix(1.3333333,0,0,-1.3333333,691.39507,553.44853)"
         clip-path="url(#clipPath1481)" />
      <path
         id="path1482"
         d="M 0,0 C 0.485,0.929 0.943,1.872 1.365,2.831 1.568,3.313 1.757,3.802 1.91,4.303 2.05,4.802 2.185,5.326 2.1,5.847 2.1,5.848 2.101,5.85 2.102,5.851 2.104,5.851 2.105,5.85 2.106,5.848 2.199,5.326 2.072,4.797 1.94,4.293 1.793,3.79 1.61,3.297 1.412,2.811 1.012,1.84 0.539,0.9 0.006,-0.003 0.005,-0.005 0.003,-0.005 0.001,-0.004 0,-0.003 -0.001,-0.001 0,0"
         style="fill:#050606;fill-opacity:1;fill-rule:nonzero;stroke:none"
         transform="matrix(1.3333333,0,0,-1.3333333,709.24013,552.45307)"
         clip-path="url(#clipPath1483)" />
      <path
         id="path1484"
         d="m 0,0 c 0.415,0.442 0.825,0.886 1.224,1.341 0.194,0.231 0.386,0.465 0.552,0.717 0.16,0.251 0.337,0.517 0.339,0.823 -0.001,0.002 0,0.003 0.002,0.004 0.002,0 0.004,-0.002 0.004,-0.003 C 2.129,2.571 1.956,2.297 1.803,2.041 1.641,1.783 1.452,1.544 1.263,1.308 0.881,0.835 0.457,0.399 0.004,-0.004 0.003,-0.005 0.001,-0.005 0,-0.004 -0.001,-0.003 -0.001,-0.001 0,0"
         style="fill:#050606;fill-opacity:1;fill-rule:nonzero;stroke:none"
         transform="matrix(1.3333333,0,0,-1.3333333,713.0136,552.4824)"
         clip-path="url(#clipPath1485)" />
      <path
         id="path1486"
         d="m 0,0 c -0.533,0.904 -1.006,1.843 -1.406,2.814 -0.198,0.486 -0.381,0.979 -0.529,1.483 -0.131,0.504 -0.259,1.032 -0.166,1.554 10e-4,0.002 0.002,0.003 0.004,0.003 0.002,0 0.003,-0.002 0.003,-0.004 -0.085,-0.521 0.05,-1.044 0.19,-1.544 0.153,-0.501 0.342,-0.99 0.545,-1.472 C -0.937,1.875 -0.48,0.933 0.006,0.003 0.007,0.002 0.006,0 0.004,-0.001 0.003,-0.002 0.001,-0.001 0,0"
         style="fill:#050606;fill-opacity:1;fill-rule:nonzero;stroke:none"
         transform="matrix(1.3333333,0,0,-1.3333333,699.3144,552.49213)"
         clip-path="url(#clipPath1487)" />
      <path
         id="path1488"
         d="m 0,0 c -0.453,0.403 -0.876,0.84 -1.258,1.312 -0.19,0.237 -0.379,0.476 -0.541,0.733 -0.152,0.257 -0.325,0.531 -0.317,0.841 0,0.002 10e-4,0.003 0.003,0.003 0.002,0 0.003,-0.002 0.003,-0.004 C -2.109,2.58 -1.931,2.313 -1.771,2.063 -1.605,1.81 -1.413,1.576 -1.219,1.345 -0.82,0.891 -0.41,0.446 0.005,0.004 0.006,0.003 0.006,0.001 0.005,0 0.003,-0.001 0.001,-0.001 0,0"
         style="fill:#050606;fill-opacity:1;fill-rule:nonzero;stroke:none"
         transform="matrix(1.3333333,0,0,-1.3333333,695.43413,552.48827)"
         clip-path="url(#clipPath1489)" />
      <path
         id="path1490"
         d="m 0,0 c -0.231,0.451 -0.427,0.919 -0.582,1.401 -0.147,0.48 -0.32,0.974 -0.286,1.484 0,0.002 0.001,0.003 0.003,0.003 0.002,0 0.003,-0.002 0.003,-0.004 C -0.878,2.377 -0.69,1.893 -0.534,1.418 L 0.006,0.002 C 0.007,0.001 0.006,-0.001 0.004,-0.001 0.003,-0.002 0.001,-0.001 0,0"
         style="fill:#050606;fill-opacity:1;fill-rule:nonzero;stroke:none"
         transform="matrix(1.3333333,0,0,-1.3333333,703.6568,552.48693)"
         clip-path="url(#clipPath1491)" />
      <path
         id="path1492"
         d="m 0,0 0.54,1.416 c 0.157,0.474 0.344,0.959 0.328,1.466 0,0.002 0.001,0.003 0.003,0.004 0.002,0 0.003,-0.002 0.004,-0.003 C 0.909,2.372 0.734,1.879 0.588,1.399 0.433,0.917 0.237,0.448 0.006,-0.002 0.005,-0.004 0.003,-0.004 0.002,-0.004 0,-0.003 0,-0.001 0,0"
         style="fill:#050606;fill-opacity:1;fill-rule:nonzero;stroke:none"
         transform="matrix(1.3333333,0,0,-1.3333333,706.3704,552.48373)"
         clip-path="url(#clipPath1493)" />
      <path
         id="path1614"
         d="m 0,0 c -0.519,1.152 -0.717,1.259 0.163,6.161 1.094,6.094 1.731,11.095 1.764,11.795 0.002,0.049 -8.243,1.331 -9.045,-13.991 -0.574,-10.998 -6.905,-19.159 -5.063,-20.984 l 5.786,-1.701 c 0,0 0.586,0.147 2.001,1.91 C -2.638,-14.621 -0.12,-1.227 0,0"
         style="fill:#ffffff;fill-opacity:1;fill-rule:nonzero;stroke:#050606;stroke-width:0.127;stroke-linecap:round;stroke-linejoin:round;stroke-miterlimit:10;stroke-dasharray:none;stroke-opacity:1"
         transform="matrix(1.3333333,0,0,-1.3333333,690.0436,550.56827)"
         clip-path="url(#clipPath1615)" />
      <path
         id="path1616"
         d="M 0,0 -0.432,-1.987 C -0.493,-2.271 -0.828,-2.44 -1.141,-2.346 l -5.204,1.657 c -0.613,0.192 -0.857,0.252 -0.523,0.671 l 1.063,1.702"
         style="fill:#ffffff;fill-opacity:1;fill-rule:nonzero;stroke:#050606;stroke-width:0.127;stroke-linecap:butt;stroke-linejoin:miter;stroke-miterlimit:10;stroke-dasharray:none;stroke-opacity:1"
         transform="matrix(1.3333333,0,0,-1.3333333,681.54227,575.5052)"
         clip-path="url(#clipPath1617)" />
      <path
         id="path1618"
         d="M 0,0 C 0,0 2.452,4.325 2.1,5.849"
         style="fill:#ffffff;fill-opacity:1;fill-rule:nonzero;stroke:none"
         transform="matrix(1.3333333,0,0,-1.3333333,677.18813,573.68813)"
         clip-path="url(#clipPath1619)" />
      <path
         id="path1620"
         d="M 0,0 C 0.465,0.94 0.933,1.876 1.354,2.834 1.56,3.316 1.749,3.804 1.903,4.304 2.045,4.803 2.182,5.325 2.1,5.845 2.099,5.848 2.101,5.851 2.103,5.851 2.105,5.852 2.107,5.85 2.108,5.847 2.204,5.325 2.079,4.795 1.949,4.291 1.804,3.786 1.621,3.292 1.425,2.805 1.024,1.834 0.562,0.888 0.008,-0.005 0.007,-0.007 0.004,-0.008 0.001,-0.006 -0.001,-0.005 -0.001,-0.002 0,0"
         style="fill:#050606;fill-opacity:1;fill-rule:nonzero;stroke:none"
         transform="matrix(1.3333333,0,0,-1.3333333,677.18293,573.6848)"
         clip-path="url(#clipPath1621)" />
      <path
         id="path1622"
         d="M 0,0 C 0,0 2.213,2.116 2.115,2.883"
         style="fill:#ffffff;fill-opacity:1;fill-rule:nonzero;stroke:none"
         transform="matrix(1.3333333,0,0,-1.3333333,680.12947,574.61587)"
         clip-path="url(#clipPath1623)" />
      <path
         id="path1624"
         d="M 0,0 C 0.398,0.458 0.817,0.893 1.215,1.348 1.41,1.577 1.604,1.81 1.771,2.061 1.932,2.31 2.111,2.575 2.114,2.879 2.114,2.882 2.116,2.884 2.118,2.885 2.121,2.886 2.123,2.883 2.124,2.88 2.134,2.569 1.962,2.293 1.812,2.035 1.65,1.776 1.463,1.536 1.273,1.299 0.892,0.826 0.477,0.38 0.007,-0.007 0.005,-0.009 0.002,-0.008 0,-0.006 -0.001,-0.004 -0.001,-0.002 0,0"
         style="fill:#050606;fill-opacity:1;fill-rule:nonzero;stroke:none"
         transform="matrix(1.3333333,0,0,-1.3333333,680.12427,574.61133)"
         clip-path="url(#clipPath1625)" />
      <path
         id="path1626"
         d="M 0,0 C -0.17,-0.156 -0.46,-0.144 -0.647,0.028 -0.834,0.2 -0.848,0.466 -0.678,0.622 -0.508,0.778 -0.218,0.765 -0.031,0.594 0.156,0.422 0.17,0.156 0,0"
         style="fill:#1b181a;fill-opacity:1;fill-rule:nonzero;stroke:none"
         transform="matrix(1.3333333,0,0,-1.3333333,679.67373,576.93947)"
         clip-path="url(#clipPath1627)" />
    </g>
  </g>
</svg>
